<?xml version="1.0" encoding="utf-8"?>
<!-- Generator: Adobe Illustrator 16.0.0, SVG Export Plug-In . SVG Version: 6.00 Build 0)  -->
<!DOCTYPE svg PUBLIC "-//W3C//DTD SVG 1.1//EN" "http://www.w3.org/Graphics/SVG/1.1/DTD/svg11.dtd">
<svg width="19" height="19" viewBox="0 0 19 19" fill="none" xmlns="http://www.w3.org/2000/svg">
<circle cx="9.78753" cy="9.35205" r="9" fill="#BA1A27"/>
<path d="M12.3657 15.5821C12.3476 15.8348 12.3586 16.0644 12.1112 16.0991C11.8638 16.1338 11.8241 15.8936 11.7522 15.7162C11.612 15.3709 11.4766 15.0235 11.3461 14.674C11.2927 14.5293 11.2385 14.525 11.1472 14.634C11.0634 14.7348 10.9708 14.8269 10.8826 14.9233C10.7631 15.0502 10.6268 15.1076 10.4976 14.958C10.3794 14.8216 10.4217 14.6764 10.5329 14.5525C10.6718 14.3977 10.8094 14.2409 10.954 14.0924C11.0422 14.0017 11.0572 13.9149 11.003 13.7943C10.9029 13.5701 9.27468 11.8956 9.14546 11.6897C9.05197 11.5402 9.02286 11.384 9.1781 11.2672C9.33333 11.1505 9.45725 11.2441 9.55162 11.3869C9.82152 11.7944 11.5185 13.5706 11.6975 14.0287C11.7416 14.1367 11.7416 14.0991 11.8069 14.2617C11.8797 13.1876 11.7227 12.5327 11.2385 11.6622C11.1542 11.5113 11.0554 11.3729 10.9699 11.2205C10.7428 10.8231 10.6793 10.4006 10.8257 9.95259C10.8998 9.72592 10.9818 9.50215 11.0625 9.27741C11.1066 9.15299 11.1683 9.04351 11.3086 9.03628C11.4488 9.02904 11.5167 9.13273 11.5692 9.25474C11.7236 9.61596 11.9397 9.92317 12.262 10.1489C12.2259 10.0399 12.1915 9.9304 12.1535 9.82237C11.9419 9.22099 11.7977 8.59838 11.6684 7.97143C11.6173 7.72547 11.5057 7.61793 11.2685 7.64831C11.1214 7.66177 10.9735 7.65725 10.8274 7.63481C10.6868 7.61841 10.5955 7.53015 10.6025 7.36281C10.6096 7.19546 10.7066 7.11781 10.8469 7.10913C11.0083 7.09901 11.1701 7.10335 11.332 7.10383C11.425 7.10383 11.4867 7.07248 11.4938 6.95674C11.515 6.6124 11.5595 6.26565 11.4718 5.92661C11.3368 5.40673 11.0369 5.03779 10.5743 4.84296C10.4076 4.77254 10.2925 4.68622 10.2947 4.46823C10.2947 4.30957 10.2012 4.24301 10.0619 4.24494C9.92251 4.24687 9.84136 4.31535 9.83916 4.4774C9.83916 4.67754 9.73067 4.77447 9.5675 4.83572C9.21823 4.96738 8.96818 5.2307 8.78207 5.57407C8.71725 5.69416 8.71548 5.77084 8.87292 5.76216C8.91722 5.75949 8.96164 5.76273 9.00522 5.7718C9.14237 5.80074 9.23587 5.8779 9.23102 6.0467C9.22617 6.21549 9.12561 6.28349 8.98934 6.30664C8.60788 6.37271 8.60744 6.37174 8.60744 6.79807C8.60744 7.30445 8.61317 7.81083 8.60523 8.31721C8.60214 8.49806 8.663 8.56365 8.82573 8.55112C8.95045 8.54204 9.07561 8.54333 9.20015 8.55497C9.23009 8.55493 9.25973 8.56156 9.28726 8.57445C9.31479 8.58735 9.33963 8.60624 9.36026 8.62997C9.38089 8.65371 9.39689 8.68179 9.40727 8.71251C9.41765 8.74323 9.4222 8.77594 9.42065 8.80865C9.42065 8.95863 9.33642 9.04978 9.20015 9.05943C9.024 9.07294 8.84725 9.07439 8.67094 9.06377C8.50468 9.05219 8.39531 9.12743 8.29697 9.26439C7.93182 9.77463 7.71132 10.3548 7.69412 10.9972C7.68055 11.7284 7.62887 12.4581 7.53933 13.1828C7.82136 12.8591 8.00098 12.4449 8.05177 12.0013C8.0897 11.6834 8.10161 11.3618 8.13997 11.044C8.17484 10.7806 8.2541 10.5267 8.37371 10.295C8.4963 10.0539 8.72033 10.0539 8.83323 10.2993C8.99509 10.6694 9.21208 11.0074 9.47533 11.2996C9.58602 11.4196 9.62307 11.5692 9.49518 11.7037C9.36729 11.8383 9.24204 11.7973 9.12429 11.6777C8.9523 11.5036 8.81868 11.2918 8.65374 11.0739C8.59482 11.253 8.56671 11.4425 8.57083 11.6328C8.57438 11.9467 8.52843 12.259 8.435 12.5559C8.39575 12.6784 8.41251 12.7657 8.50115 12.8544C8.63654 12.9899 8.76267 13.1365 8.891 13.2798C8.99728 13.3984 9.03256 13.5354 8.92099 13.6656C8.80942 13.7958 8.66874 13.7741 8.54967 13.6574C8.45691 13.566 8.36859 13.4694 8.28506 13.368C8.19245 13.2556 8.13203 13.2682 8.04339 13.3859C7.80922 13.6955 7.56049 13.9911 7.31794 14.293C7.21563 14.4198 7.10053 14.5308 6.93824 14.4348C6.77595 14.3388 6.80594 14.1638 6.8421 14.0061C6.98676 13.3917 7.09212 12.7671 7.15742 12.1368C7.16139 12.0982 7.16315 12.0596 7.16976 11.9603C7.0432 12.0939 6.95191 12.1922 6.85842 12.2882C6.74199 12.4073 6.60881 12.4493 6.48797 12.3152C6.36714 12.1811 6.40595 12.0345 6.51752 11.9101C6.69392 11.7172 6.86547 11.5171 7.04672 11.3314C7.09792 11.2797 7.139 11.2172 7.1675 11.1476C7.196 11.0781 7.21132 11.003 7.21254 10.9268C7.2487 10.1828 7.50518 9.47182 7.94329 8.90124C8.05802 8.7542 8.11702 8.56477 8.10822 8.37171C8.10072 7.72065 8.09852 7.06959 8.10822 6.41853C8.12013 5.53453 8.46852 4.86032 9.18647 4.43206C9.27864 4.38276 9.34976 4.29634 9.38493 4.19093C9.50973 3.83984 9.70024 3.72265 10.0985 3.72602C10.4358 3.72892 10.6396 3.86492 10.7445 4.19238C10.786 4.32114 10.8579 4.38287 10.9575 4.44364C11.6354 4.8579 12.001 5.48341 12.0071 6.34184C12.0071 6.63121 11.9696 6.92491 11.9899 7.20655C12.0151 7.55378 12.0781 7.92224 12.3657 8.16434C12.5522 8.32059 12.7396 8.47636 12.9257 8.63358C13.058 8.7445 13.126 8.88484 13.0139 9.04785C12.9019 9.21086 12.7604 9.15829 12.6267 9.05846C12.5619 9.01023 12.5099 8.93741 12.4023 8.91812C12.4973 9.30717 12.6203 9.68741 12.7701 10.0553C12.8609 10.2839 12.9619 10.5072 13.0554 10.7343C13.1268 10.907 13.249 11.0927 13.0673 11.2591C12.8856 11.4254 12.7515 11.2542 12.6197 11.1491C12.176 10.7956 11.7037 10.4792 11.3642 9.94342C11.2023 10.3095 11.2036 10.6331 11.3902 10.9345C11.5942 11.2684 11.7815 11.6142 11.9511 11.9704C12.0834 12.2424 12.3286 12.416 12.5183 12.6388C12.6285 12.7685 12.748 12.8882 12.8592 13.0164C12.9703 13.1447 13.0435 13.3058 12.8997 13.4596C12.763 13.6043 12.6276 13.5296 12.5152 13.4037C12.4539 13.3347 12.4054 13.2523 12.3176 13.1939C12.3692 13.7162 12.3467 14.2231 12.3586 14.729C12.3608 14.8172 12.4239 14.8698 12.475 14.9267C12.6201 15.0863 12.7665 15.2445 12.9112 15.4046C13.0223 15.5286 13.066 15.6675 12.9443 15.8078C12.8225 15.9481 12.6933 15.9043 12.5751 15.7895C12.5183 15.734 12.4587 15.6752 12.3657 15.5821Z" fill="white"/>
</svg>



