<?xml version="1.0" encoding="utf-8"?>
<!-- Generator: Adobe Illustrator 16.0.0, SVG Export Plug-In . SVG Version: 6.00 Build 0)  -->
<!DOCTYPE svg PUBLIC "-//W3C//DTD SVG 1.1//EN" "http://www.w3.org/Graphics/SVG/1.1/DTD/svg11.dtd">
<svg width="19" height="19" viewBox="0 0 19 19" fill="none" xmlns="http://www.w3.org/2000/svg">
<circle cx="9.78753" cy="9.81274" r="9" fill="#D16127"/>
<path d="M9.84253 5.96355C9.91599 5.93046 9.92745 5.85994 9.95929 5.80598C10.2935 5.22431 10.765 4.72026 11.3388 4.33152C11.3837 4.29942 11.4307 4.27007 11.4797 4.24368C11.6581 4.14992 11.8517 4.17947 11.9544 4.3138C11.9806 4.34885 11.999 4.38839 12.0085 4.4301C12.018 4.47181 12.0184 4.51486 12.0098 4.55673C12.0012 4.59861 11.9837 4.63848 11.9583 4.674C11.9329 4.70953 11.9001 4.74001 11.8619 4.76366C11.5126 4.98859 11.2014 5.26048 10.9384 5.57041C10.628 5.93859 10.4001 6.36061 10.268 6.81166C10.254 6.85893 10.2064 6.91645 10.2658 6.95544C10.3083 6.98381 10.3588 6.94166 10.4026 6.92235C10.4917 6.88296 10.5792 6.83963 10.6679 6.79906C11.5838 6.37835 12.4325 6.4914 13.1947 7.13271C13.8413 7.67711 14.1627 8.37711 14.2527 9.16102C14.4332 10.7304 13.9487 12.1308 12.9123 13.3717C12.6909 13.6372 12.4171 13.8614 12.1056 14.0323C11.515 14.3565 10.8993 14.4211 10.2913 14.102C9.94401 13.9196 9.65232 13.9153 9.30331 14.1C8.69699 14.4207 8.07752 14.3624 7.48946 14.0338C6.87084 13.688 6.4488 13.1727 6.10785 12.5952C5.5682 11.6802 5.27184 10.7013 5.29179 9.65579C5.3075 8.85297 5.51216 8.09467 6.06624 7.44982C6.41058 7.04959 6.84197 6.75888 7.38247 6.62731C7.58712 6.57728 7.56674 6.51661 7.45847 6.38386C7.10361 5.96057 6.90609 5.44202 6.89546 4.90586C6.88867 4.56669 7.03473 4.44064 7.40497 4.47255C8.407 4.56 9.18485 4.99056 9.71898 5.78904C9.75125 5.84891 9.76908 5.92455 9.84253 5.96355ZM13.6065 9.77514C13.6123 9.55796 13.5949 9.34077 13.5547 9.12675C13.4337 8.45708 13.1598 7.86856 12.5416 7.46045C12.0708 7.14925 11.5727 7.0878 11.0454 7.33243C10.8756 7.41121 10.7057 7.49 10.5316 7.56878C10.3285 7.66287 10.1063 7.71614 9.87951 7.7251C9.6527 7.73406 9.42641 7.69851 9.21542 7.62078C9.01184 7.5472 8.81332 7.46208 8.62099 7.36591C8.00916 7.06259 7.44955 7.15241 6.93028 7.54909C6.27599 8.04897 6.04162 8.73085 5.99067 9.47931C5.91934 10.5252 6.21782 11.493 6.77276 12.3943C7.02327 12.8017 7.3277 13.1712 7.75526 13.4371C8.18282 13.7029 8.6142 13.7522 9.07148 13.5076C9.16349 13.4585 9.25831 13.4142 9.35553 13.3748C9.49341 13.3139 9.64419 13.2823 9.79689 13.2823C9.94959 13.2823 10.1004 13.3139 10.2382 13.3748C10.3656 13.4292 10.493 13.493 10.6174 13.5513C10.7677 13.6256 10.9352 13.6653 11.1055 13.6669C11.2758 13.6686 11.4441 13.6321 11.5961 13.5607C11.8785 13.4366 12.1278 13.2559 12.326 13.0317C13.1666 12.089 13.5624 10.9908 13.6065 9.77514ZM7.71492 5.16034C7.55188 5.17294 7.63 5.27851 7.64741 5.33327C7.889 6.05572 8.38959 6.54222 9.17933 6.75769C9.37846 6.81206 9.4103 6.78369 9.34322 6.59225C9.09483 5.88319 8.59764 5.39984 7.8147 5.18673L7.71492 5.16034Z" fill="white"/>
</svg>



