<?xml version="1.0" encoding="utf-8"?>
<!-- Generator: Adobe Illustrator 16.0.0, SVG Export Plug-In . SVG Version: 6.00 Build 0)  -->
<!DOCTYPE svg PUBLIC "-//W3C//DTD SVG 1.1//EN" "http://www.w3.org/Graphics/SVG/1.1/DTD/svg11.dtd">
<svg width="19" height="20" viewBox="0 0 19 20" fill="none" xmlns="http://www.w3.org/2000/svg">
<ellipse cx="9.78212" cy="9.9922" rx="9.02724" ry="9.0428" fill="#D16127"/>
<path d="M9.88589 15.078C9.38688 15.0947 8.8887 15.0234 8.41147 14.8669C8.18484 14.7991 7.9708 14.6903 7.77867 14.5453C7.44961 14.292 7.37763 13.9413 7.43814 13.5365C7.58646 12.5433 8.08241 11.8346 8.94658 11.426C9.07077 11.367 9.06918 11.3691 8.97031 11.2614C8.60328 10.8613 8.47989 10.3822 8.62978 9.84829C8.77493 9.32152 9.11625 8.99398 9.61853 8.87115C10.1809 8.7344 10.7548 9.01593 11.0495 9.56506C11.1823 9.82363 11.2363 10.12 11.204 10.4129C11.1716 10.7057 11.0544 10.9805 10.8687 11.199C10.8478 11.2254 10.8249 11.25 10.8003 11.2724C10.7085 11.3454 10.735 11.3788 10.828 11.4231C11.7859 11.8781 12.2913 12.6742 12.3665 13.7838C12.3886 14.1139 12.2423 14.3646 11.9971 14.5537C11.6605 14.8137 11.2709 14.9243 10.8707 14.9999C10.5461 15.0645 10.2158 15.0907 9.88589 15.078ZM9.93691 14.6495C10.1287 14.6339 10.3633 14.6234 10.5954 14.5938C10.9617 14.5478 11.3212 14.4672 11.6478 14.2709C11.9073 14.1147 11.9797 13.9565 11.9413 13.6424C11.9358 13.5956 11.9275 13.5487 11.9207 13.5019C11.7558 12.3251 10.6492 11.4813 9.55169 11.6962C8.60961 11.8806 7.94043 12.6581 7.8376 13.6745C7.8111 13.9392 7.89653 14.1266 8.1097 14.2557C8.21509 14.3196 8.32545 14.3737 8.43955 14.4174C8.91098 14.5955 9.40259 14.625 9.93691 14.6495ZM9.89736 9.29535C9.38756 9.29282 8.99325 9.70646 8.98178 10.256C8.9711 10.7655 9.3927 11.2188 9.8851 11.2268C10.3775 11.2348 10.7999 10.7836 10.8015 10.256C10.8001 10.001 10.7044 9.75694 10.5351 9.57698C10.3658 9.39703 10.1367 9.29579 9.89776 9.29535H9.89736Z" fill="white"/>
<path d="M14.0679 9.90864V10.1374C14.0679 11.4383 14.0679 12.7393 14.0679 14.0405C14.0679 14.6774 13.6898 15.0809 13.093 15.0813C10.8853 15.0813 8.67775 15.0813 6.47033 15.0813C5.87471 15.0813 5.4978 14.6761 5.4974 14.0379C5.4974 12.737 5.4974 11.436 5.4974 10.1349V9.8563C5.40723 9.94874 5.34949 10.0108 5.28858 10.0673C5.13038 10.2206 4.9263 10.2223 4.79499 10.0737C4.66962 9.93186 4.67199 9.72039 4.81596 9.56253C5.14303 9.20544 5.47605 8.85469 5.80668 8.50182C6.76195 7.48206 7.71721 6.46272 8.67247 5.4438C9.34482 4.72625 10.2228 4.72625 10.8956 5.4438C12.1498 6.78041 13.4033 8.118 14.656 9.45658C14.6888 9.4912 14.7224 9.52496 14.7529 9.56211C14.8897 9.72672 14.8961 9.93312 14.7691 10.0741C14.6366 10.2214 14.4333 10.2206 14.2767 10.0619C14.2238 9.99906 14.1761 9.93156 14.1339 9.8601L14.0679 9.90864ZM11.6011 14.3798C12.0623 14.3688 12.5239 14.3769 12.9854 14.3756C13.3204 14.3756 13.4062 14.2836 13.4066 13.9256C13.4066 13.1659 13.4066 12.4061 13.4066 11.6464C13.4066 10.8799 13.4038 10.1134 13.4094 9.34684C13.412 9.28096 13.4011 9.21527 13.3774 9.15437C13.3537 9.09348 13.3178 9.03888 13.2721 8.9944C12.3185 7.98308 11.367 6.97007 10.4178 5.95537C10.0116 5.52315 9.55444 5.52231 9.14905 5.95284C8.19247 6.97063 7.23655 7.98955 6.28128 9.0096C6.24037 9.04926 6.20799 9.0979 6.18635 9.15218C6.16471 9.20646 6.15432 9.26509 6.15591 9.32405C6.15907 10.8644 6.15986 12.4046 6.15828 13.9446C6.15828 14.2772 6.24964 14.3752 6.55655 14.3769C7.02443 14.3769 7.4927 14.368 7.96018 14.3819" fill="white"/>
</svg>




