<?xml version="1.0" encoding="utf-8"?>
<!-- Generator: Adobe Illustrator 16.0.0, SVG Export Plug-In . SVG Version: 6.00 Build 0)  -->
<!DOCTYPE svg PUBLIC "-//W3C//DTD SVG 1.1//EN" "http://www.w3.org/Graphics/SVG/1.1/DTD/svg11.dtd">
<svg width="19" height="19" viewBox="0 0 19 19" fill="none" xmlns="http://www.w3.org/2000/svg">
<ellipse cx="9.78212" cy="9.37935" rx="9.02724" ry="9.0428" fill="#D16127"/>
<path d="M7.90571 5.43398C8.54395 5.45891 9.15103 5.73955 9.60966 6.22167C9.74341 6.35903 9.81425 6.36633 9.95749 6.22725C10.756 5.45115 11.6816 5.21377 12.6915 5.61641C13.6879 6.01348 14.2676 6.81834 14.4326 7.96361C14.5043 8.45855 14.4326 8.93245 14.27 9.39262C14.2162 9.54329 14.2146 9.62399 14.3927 9.59952C14.4387 9.59437 14.4851 9.59437 14.5312 9.59952C14.7369 9.61927 14.862 9.75148 14.8628 9.94765C14.8636 10.1438 14.7389 10.2851 14.5335 10.2971C14.349 10.3083 14.1641 10.3083 13.9795 10.2971C13.8213 10.2876 13.7081 10.3464 13.5969 10.4688C12.4443 11.7259 11.2891 12.9805 10.1312 14.2325C9.84749 14.5399 9.72204 14.5403 9.44188 14.2364C8.29984 12.9978 7.15886 11.7583 6.01894 10.5177C5.87806 10.3636 5.73877 10.2769 5.53537 10.2975C5.37726 10.3089 5.21863 10.3089 5.06052 10.2975C4.83891 10.2876 4.70833 10.1554 4.70437 9.95409C4.70041 9.75277 4.83179 9.61584 5.04983 9.59824C5.34741 9.57463 5.34741 9.57463 5.24769 9.2574C4.66599 7.38626 5.97106 5.42754 7.90571 5.43398ZM9.7723 10.249C9.80554 10.1958 9.84076 10.1464 9.86925 10.0923C10.1331 9.59666 10.3953 9.10043 10.6559 8.60364C10.8538 8.22546 11.1082 8.2173 11.3286 8.58861C11.4925 8.86549 11.6591 9.14064 11.8126 9.42396C11.8858 9.5596 11.9772 9.60467 12.1177 9.60167C12.4932 9.59308 12.8696 9.59094 13.2451 9.60167C13.4034 9.60682 13.4984 9.54372 13.5751 9.39477C14.0397 8.49031 13.8323 7.32659 13.0777 6.63591C12.3555 5.97485 11.2444 5.96111 10.5218 6.61144C10.3445 6.7707 10.1874 6.95485 10.0169 7.12398C9.86134 7.27679 9.71453 7.27722 9.55901 7.12698C9.47076 7.04113 9.38845 6.94841 9.30575 6.85569C8.84276 6.33757 8.28481 6.10191 7.61525 6.13882C6.17881 6.21781 5.25995 8.12329 6.02606 9.44628C6.05034 9.4966 6.08778 9.53803 6.13368 9.56537C6.17957 9.59271 6.23189 9.60474 6.28407 9.59995C6.50131 9.587 6.71907 9.588 6.93621 9.60296C7.14633 9.62399 7.24091 9.52655 7.31372 9.32565C7.50881 8.78693 7.7221 8.25551 7.92826 7.72151C7.98643 7.57127 8.08418 7.46696 8.23851 7.46395C8.38453 7.46052 8.48266 7.55538 8.54835 7.69232C8.57843 7.75585 8.60969 7.81852 8.63937 7.88248C8.97493 8.60421 9.31063 9.32551 9.64646 10.0464C9.67733 10.1138 9.69197 10.1962 9.7723 10.249ZM8.27096 8.62939C8.08576 9.10587 7.91481 9.52269 7.76207 9.94894C7.66986 10.2065 7.51554 10.3147 7.26465 10.3069C7.10637 10.3022 6.94531 10.2713 6.77159 10.3387C6.82501 10.4027 6.8626 10.4516 6.90376 10.4962C7.80757 11.4771 8.71416 12.455 9.61283 13.4418C9.74776 13.5899 9.8277 13.5852 9.96027 13.4418C10.8546 12.4605 11.7568 11.4878 12.6547 10.5108C12.7022 10.4589 12.7758 10.422 12.7762 10.3052C12.4596 10.3052 12.143 10.3027 11.8288 10.3052C11.7493 10.3113 11.6698 10.2925 11.5997 10.2512C11.5296 10.2099 11.4718 10.1478 11.4331 10.0721C11.3413 9.90687 11.244 9.74547 11.1478 9.58321C11.0018 9.33639 11.0022 9.33724 10.8708 9.58321C10.6065 10.0863 10.3398 10.5877 10.0766 11.0912C9.99746 11.2414 9.90605 11.3737 9.73114 11.3664C9.55624 11.3591 9.47235 11.22 9.40152 11.0659C9.18664 10.5993 8.9686 10.134 8.75175 9.66821C8.60177 9.33725 8.44744 9.00757 8.27096 8.62939Z" fill="white"/>
</svg>





