<?xml version="1.0" encoding="utf-8"?>
<!-- Generator: Adobe Illustrator 16.0.0, SVG Export Plug-In . SVG Version: 6.00 Build 0)  -->
<!DOCTYPE svg PUBLIC "-//W3C//DTD SVG 1.1//EN" "http://www.w3.org/Graphics/SVG/1.1/DTD/svg11.dtd">
<svg width="19" height="20" viewBox="0 0 19 20" fill="none" xmlns="http://www.w3.org/2000/svg">
<ellipse cx="9.78212" cy="9.96108" rx="9.02724" ry="9.0428" fill="#BA1A27"/>
<path d="M9.76645 14.4759C8.84408 14.513 7.9518 14.3785 7.07723 14.1339C6.66503 14.0233 6.2758 13.8462 5.92647 13.6102C5.32631 13.1965 5.1953 12.6268 5.30683 11.9656C5.57726 10.3485 6.48149 9.1943 8.05802 8.52678C8.28463 8.43063 8.28198 8.43401 8.10228 8.25816C7.43042 7.60497 7.20514 6.82443 7.47512 5.95408C7.74068 5.09637 8.36032 4.56252 9.28092 4.36306C10.3064 4.13999 11.3536 4.59878 11.8923 5.49275C12.395 6.33022 12.2592 7.44009 11.5647 8.1578C11.5271 8.20118 11.4853 8.24113 11.4399 8.27714C11.2731 8.39606 11.3209 8.45045 11.4908 8.52256C13.2382 9.26388 14.1597 10.5601 14.2969 12.3666C14.3376 12.9043 14.0707 13.3125 13.6233 13.6207C13.0094 14.0424 12.2986 14.2237 11.5687 14.3473C10.9747 14.453 10.3703 14.4961 9.76645 14.4759ZM9.85984 13.7784C10.2099 13.7527 10.6375 13.7363 11.0611 13.6878C11.7294 13.6123 12.3853 13.4816 12.9806 13.1615C13.4542 12.9085 13.5861 12.6492 13.5166 12.1385C13.506 12.0618 13.4909 11.9859 13.479 11.9095C13.178 9.99256 11.1593 8.62039 9.15744 8.9687C7.43883 9.26936 6.21858 10.5348 6.03092 12.19C5.98179 12.6213 6.13759 12.9266 6.52708 13.1366C6.71913 13.2409 6.9204 13.3289 7.12857 13.3998C7.98809 13.6899 8.8848 13.7384 9.85984 13.7784ZM9.78814 5.05884C8.85868 5.05462 8.13946 5.72847 8.11822 6.62329C8.09874 7.45317 8.86798 8.19154 9.76601 8.20503C10.6574 8.21895 11.4346 7.48353 11.4377 6.62371C11.4408 5.7639 10.699 5.06306 9.78814 5.05884Z" fill="white"/>
</svg>


