<?xml version="1.0" encoding="utf-8"?>
<!-- Generator: Adobe Illustrator 16.0.0, SVG Export Plug-In . SVG Version: 6.00 Build 0)  -->
<!DOCTYPE svg PUBLIC "-//W3C//DTD SVG 1.1//EN" "http://www.w3.org/Graphics/SVG/1.1/DTD/svg11.dtd">
<svg width="10" height="11" viewBox="0 0 10 11" fill="none" xmlns="http://www.w3.org/2000/svg">
<path d="M5.13736 10.9196H1.09529C0.759124 10.9196 0.64238 10.7868 0.642029 10.4067V2.42341C0.642029 2.04529 0.770728 1.90102 1.11182 1.90062C2.38896 1.90062 3.66611 1.89706 4.94467 1.9038C5.11134 1.9038 5.1989 1.85861 5.27485 1.67431C5.53049 1.05243 5.97567 0.732577 6.58857 0.747242C7.18178 0.761114 7.59531 1.10396 7.83759 1.69849C7.90405 1.86257 7.98246 1.90657 8.12874 1.90261C8.49198 1.89349 8.85523 1.89785 9.21882 1.90023C9.53529 1.90261 9.67103 2.05401 9.67103 2.40439C9.67103 5.0787 9.67103 7.75302 9.67103 10.4273C9.67103 10.7801 9.5476 10.9188 9.23429 10.9188C7.86806 10.9199 6.50242 10.9201 5.13736 10.9196ZM5.15565 10.0988C6.35122 10.0988 7.54678 10.096 8.74235 10.1019C8.89426 10.1019 8.94525 10.0563 8.94419 9.87918C8.93751 8.88196 8.94103 7.88434 8.94103 6.88712C8.94103 5.57916 8.93892 4.2712 8.94349 2.96324C8.94349 2.80034 8.90059 2.73851 8.7536 2.74604C8.54262 2.75674 8.33164 2.75833 8.12066 2.74604C7.96875 2.73653 7.89526 2.79717 7.83477 2.95849C7.58476 3.62674 6.95041 4.00287 6.31605 3.89784C6.14023 3.86851 5.97426 3.67271 5.80758 3.76942C5.65322 3.8586 5.54808 4.05083 5.4134 4.18797C5.34434 4.26288 5.25203 4.30438 5.15619 4.3036C5.06035 4.30282 4.96858 4.25982 4.90049 4.1838C4.83239 4.10777 4.79338 4.00474 4.79178 3.89673C4.79018 3.78871 4.82612 3.68428 4.89192 3.60573C4.9851 3.48682 5.08884 3.37981 5.18765 3.26685C5.25587 3.18758 5.3392 3.12892 5.2745 2.98425C5.21402 2.8487 5.17393 2.74366 5.00339 2.74644C3.86057 2.75595 2.71786 2.75595 1.57527 2.74644C1.41211 2.74644 1.36711 2.80391 1.36746 2.98425C1.37191 5.27622 1.37191 7.56832 1.36746 9.86055C1.36746 10.0548 1.42126 10.1043 1.58758 10.1031C2.77647 10.0952 3.96606 10.0988 5.15565 10.0988ZM5.89409 2.32393C5.89301 2.5198 5.96008 2.70834 6.0809 2.84912C6.20173 2.98991 6.36668 3.07171 6.5404 3.077C6.89414 3.08413 7.2166 2.72504 7.2173 2.32393C7.218 1.92282 6.89485 1.56293 6.5411 1.57086C6.36711 1.57574 6.20176 1.65735 6.08058 1.79816C5.95939 1.93898 5.89206 2.12775 5.89303 2.32393H5.89409Z" fill="black"/>
<path d="M5.15494 6.9702C5.81625 6.9702 6.4778 6.9702 7.13958 6.9702C7.2936 6.9702 7.43179 7.00508 7.52322 7.15886C7.55565 7.21215 7.57656 7.27326 7.58424 7.3373C7.59193 7.40134 7.5862 7.46651 7.56749 7.5276C7.54879 7.58869 7.51764 7.64398 7.47655 7.68904C7.43545 7.7341 7.38556 7.76768 7.33087 7.78708C7.24631 7.81395 7.15838 7.8248 7.07066 7.81918C5.79422 7.81918 4.51789 7.81918 3.24168 7.81918C3.18296 7.82109 3.1242 7.81817 3.06586 7.81046C2.85699 7.77479 2.71422 7.59683 2.72126 7.38359C2.72723 7.1549 2.87809 6.98724 3.09927 6.97456C3.26876 6.96584 3.43895 6.97178 3.60879 6.97138L5.15494 6.9702Z" fill="black"/>
<path d="M5.13773 5.84654C4.47595 5.84654 3.81394 5.84654 3.15169 5.84654C2.89042 5.84654 2.7255 5.688 2.72233 5.44107C2.71917 5.19414 2.88338 5.02649 3.1443 5.02649C4.48568 5.02649 5.82729 5.02649 7.16914 5.02649C7.42619 5.02649 7.59357 5.19454 7.59111 5.44107C7.58865 5.6876 7.42267 5.84614 7.16141 5.84654C6.48626 5.8476 5.8117 5.8476 5.13773 5.84654Z" fill="black"/>
</svg>

