<?xml version="1.0" encoding="utf-8"?>
<!-- Generator: Adobe Illustrator 16.0.0, SVG Export Plug-In . SVG Version: 6.00 Build 0)  -->
<!DOCTYPE svg PUBLIC "-//W3C//DTD SVG 1.1//EN" "http://www.w3.org/Graphics/SVG/1.1/DTD/svg11.dtd">
<svg width="19" height="19" viewBox="0 0 19 19" fill="none" xmlns="http://www.w3.org/2000/svg">
<circle cx="9.72375" cy="9.27417" r="9" fill="#40B54A"/>
<path d="M9.82724 14.3357C9.32973 14.3524 8.83306 14.2815 8.35726 14.1257C8.13132 14.0582 7.91793 13.95 7.72637 13.8056C7.39831 13.5535 7.32655 13.2044 7.38688 12.8016C7.53474 11.8131 8.0292 11.1078 8.89076 10.7011C9.01457 10.6423 9.013 10.6444 8.91442 10.5373C8.5485 10.1391 8.42548 9.66225 8.57492 9.13084C8.71963 8.60657 9.05992 8.28057 9.56069 8.15833C10.1214 8.02222 10.6935 8.30242 10.9873 8.84896C11.1198 9.1063 11.1736 9.40126 11.1413 9.69275C11.109 9.98423 10.9922 10.2577 10.8071 10.4751C10.7863 10.5014 10.7634 10.5259 10.7389 10.5482C10.6474 10.6209 10.6738 10.6541 10.7665 10.6982C11.7215 11.151 12.2254 11.9433 12.3003 13.0478C12.3224 13.3763 12.1765 13.6258 11.932 13.814C11.5965 14.0728 11.2081 14.1828 10.8091 14.258C10.4855 14.3224 10.1562 14.3484 9.82724 14.3357ZM9.8781 13.9094C10.0693 13.8938 10.3032 13.8833 10.5346 13.8539C10.8998 13.8081 11.2582 13.7279 11.5839 13.5325C11.8425 13.3771 11.9147 13.2196 11.8764 12.907C11.8709 12.8604 11.8626 12.8138 11.8559 12.7671C11.6915 11.5959 10.5882 10.7562 9.49405 10.97C8.55481 11.1536 7.88764 11.9274 7.78512 12.939C7.75871 13.2023 7.84388 13.3889 8.05641 13.5174C8.16148 13.581 8.2715 13.6349 8.38526 13.6783C8.85527 13.8556 9.3454 13.885 9.8781 13.9094ZM9.83867 8.58052C9.33041 8.578 8.93729 8.98969 8.92585 9.53664C8.91521 10.0437 9.33554 10.4949 9.82645 10.5028C10.3174 10.5108 10.7385 10.0618 10.7401 9.53664C10.7387 9.28285 10.6432 9.03992 10.4745 8.86082C10.3057 8.68171 10.0773 8.58096 9.83907 8.58052H9.83867Z" fill="white"/>
<path d="M13.9966 9.19087V9.41856C13.9966 10.7133 13.9966 12.0081 13.9966 13.3031C13.9966 13.937 13.6196 14.3386 13.0246 14.3391C10.8236 14.3391 8.62273 14.3391 6.42197 14.3391C5.82815 14.3391 5.45237 13.9358 5.45198 13.3006C5.45198 12.0059 5.45198 10.711 5.45198 9.41604V9.13878C5.36208 9.23078 5.30451 9.29253 5.24379 9.34882C5.08606 9.50132 4.8826 9.503 4.75169 9.35513C4.6267 9.21398 4.62906 9.00351 4.77259 8.8464C5.09868 8.491 5.43069 8.1419 5.76033 7.79071C6.71271 6.77577 7.66509 5.76126 8.61747 4.74716C9.28779 4.03301 10.1632 4.03301 10.8339 4.74716C12.0843 6.07745 13.334 7.40871 14.5829 8.74095C14.6157 8.7754 14.6492 8.80901 14.6795 8.84597C14.816 9.00981 14.8223 9.21523 14.6957 9.35554C14.5636 9.50215 14.3609 9.50132 14.2048 9.34336C14.1521 9.28086 14.1045 9.21368 14.0624 9.14256L13.9966 9.19087ZM11.5373 13.6409C11.9971 13.63 12.4572 13.6379 12.9174 13.6367C13.2514 13.6367 13.3369 13.5451 13.3373 13.1889C13.3373 12.4327 13.3373 11.6765 13.3373 10.9204C13.3373 10.1575 13.3346 9.39461 13.3401 8.63173C13.3427 8.56616 13.3318 8.50078 13.3082 8.44017C13.2846 8.37957 13.2487 8.32522 13.2033 8.28096C12.2525 7.27442 11.3039 6.26621 10.3575 5.25631C9.95259 4.82614 9.49677 4.8253 9.09261 5.25379C8.13891 6.26677 7.18588 7.28086 6.23349 8.29608C6.19271 8.33556 6.16042 8.38397 6.13885 8.43799C6.11727 8.49201 6.10692 8.55036 6.1085 8.60905C6.11165 10.1421 6.11244 11.675 6.11087 13.2078C6.11087 13.5388 6.20195 13.6363 6.50793 13.6379C6.9744 13.6379 7.44126 13.6291 7.90733 13.643" fill="white"/>
</svg>





