<?xml version="1.0" encoding="UTF-8"?>
<svg width="248px" height="158px" viewBox="0 0 248 158" version="1.1" xmlns="http://www.w3.org/2000/svg" xmlns:xlink="http://www.w3.org/1999/xlink">
    <!-- Generator: Sketch 64 (93537) - https://sketch.com -->
    <title>login text</title>
    <desc>Created with Sketch.</desc>
    <g id="0327_시안" stroke="none" stroke-width="1" fill="none" fill-rule="evenodd">
        <g id="07.로그인" transform="translate(-118.000000, -668.000000)" fill="#FFFFFF" fill-rule="nonzero">
            <path d="M169.15,691.885 C169.285,691.255 169.285,690.4 169.15,689.815 C164.875,689.77 158.26,689.725 151.465,689.725 C151.51,688.06 151.51,686.035 151.465,684.145 L156.382013,684.144055 C160.583038,684.141576 164.420345,684.132586 167.125,684.1 C167.26,683.47 167.26,682.705 167.125,682.12 L159.16,682.03 C159.205,679.15 159.205,675.505 159.16,672.76 L161.426827,672.759147 C163.4322,672.7568 165.223,672.748 166.675,672.715 C166.81,672.085 166.81,671.32 166.675,670.735 C158.98,670.6 141.565,670.6 133.87,670.735 C133.735,671.32 133.735,672.085 133.87,672.715 C135.85,672.76 138.415,672.76 141.295,672.76 C141.25,675.505 141.25,679.15 141.295,682.03 L133.42,682.12 C133.285,682.705 133.285,683.47 133.42,684.1 C137.155,684.145 143.05,684.145 149.035,684.145 C148.99,686.035 148.99,688.06 149.035,689.725 C142.465,689.725 135.94,689.77 131.35,689.815 C131.215,690.4 131.215,691.255 131.35,691.885 C141.25,692.02 160.285,691.93 169.15,691.885 Z M156.82,682.03 L143.635,682.03 C143.68,679.15 143.68,675.505 143.635,672.76 C147.865,672.805 152.59,672.805 156.82,672.76 C156.775,675.505 156.775,679.15 156.82,682.03 Z M166.225,709.435 C166.36,706.6 166.495,700.39 166.225,697.105 C160.6,696.88 138.55,696.925 134.14,697.105 C134.005,697.735 134.005,698.545 134.14,699.175 C138.55,699.265 160.6,699.175 163.93,699.175 C163.93,701.425 163.84,706.645 163.93,709.435 C164.47,709.525 165.685,709.525 166.225,709.435 Z M208.75,690.76 C208.84,686.35 208.84,674.11 208.75,669.925 C208.12,669.745 207.13,669.745 206.41,669.925 C206.41,670.96 206.41,672.535 206.365,674.335 C203.8,674.29 199.525,674.29 197.995,674.335 C197.905,674.875 197.905,675.73 197.995,676.405 C199.525,676.495 203.845,676.495 206.365,676.45 L206.365,683.335 C203.8,683.29 199.525,683.29 197.995,683.335 C197.905,683.875 197.905,684.73 197.995,685.405 C199.525,685.495 203.845,685.495 206.365,685.45 C206.41,687.61 206.41,689.5 206.41,690.76 C207.175,690.895 208.165,690.895 208.75,690.76 Z M184.765,688.915 C192.37,688.915 196.015,685.45 196.015,679.78 C196.015,674.11 192.37,670.645 184.765,670.645 C177.16,670.645 173.515,674.11 173.515,679.78 C173.515,685.45 177.16,688.915 184.765,688.915 Z M184.765,686.845 C178.555,686.845 175.855,684.01 175.855,679.78 C175.855,675.55 178.555,672.715 184.765,672.715 C190.975,672.715 193.675,675.55 193.675,679.78 C193.675,684.01 190.975,686.845 184.765,686.845 Z M208.75,709.21 C208.93,704.035 208.93,698.455 208.75,693.19 C202.585,693.055 183.28,693.055 177.115,693.19 C176.98,698.455 176.89,704.035 177.115,709.21 C183.28,709.48 202.585,709.48 208.75,709.21 Z M179.455,707.14 C179.32,704.035 179.365,698.455 179.455,695.26 C183.235,695.17 202.63,695.125 206.41,695.26 C206.5,698.455 206.5,704.035 206.41,707.14 C202.63,707.275 183.235,707.275 179.455,707.14 Z M259.6,691.435 C259.69,686.89 259.69,674.245 259.6,669.925 C258.97,669.745 257.98,669.745 257.26,669.925 C257.215,674.245 257.215,686.89 257.26,691.435 C258.025,691.57 259.015,691.57 259.6,691.435 Z M246.865,686.98 C247.09,683.56 247.09,675.1 246.865,671.14 C242.725,670.96 228.91,670.96 225.265,671.14 C225.085,674.83 225.085,683.02 225.265,686.98 C229.495,687.205 243.085,687.16 246.865,686.98 Z M227.515,684.955 C227.425,682.75 227.425,675.37 227.515,673.165 C232.285,673.12 240.7,673.075 244.615,673.165 C244.705,675.37 244.705,682.84 244.615,684.955 C240.61,685.09 231.52,685.045 227.515,684.955 Z M227.425,709.615 C231.565,708.13 238.225,705.565 243.94,703.225 C249.61,705.43 256.225,707.905 260.365,709.3 C260.815,708.76 261.175,707.95 261.265,707.32 C257.125,705.745 250.78,703.36 245.02,701.29 L245.02,697.555 L249.304844,697.554297 C253.494062,697.552187 257.31625,697.54375 260.05,697.51 C260.185,696.88 260.185,696.025 260.05,695.44 C256.405,695.395 250.825,695.35 245.02,695.35 C245.02,693.64 245.02,691.93 244.975,690.355 C244.255,690.175 243.535,690.175 242.815,690.355 C242.77,691.93 242.77,693.64 242.77,695.35 C237.1,695.35 231.475,695.395 227.515,695.44 C227.38,696.025 227.38,696.88 227.515,697.51 C231.475,697.555 237.1,697.555 242.77,697.555 L242.77,701.335 C237.01,703.495 230.665,705.97 226.525,707.635 C226.615,708.265 226.975,709.075 227.425,709.615 Z M300.01,676.18 C300.145,675.64 300.145,674.695 300.01,674.155 C298.525,674.11 293.71,674.11 288.535,674.11 C288.58,672.31 288.58,669.88 288.49,668.755 C287.77,668.575 286.825,668.575 286.105,668.755 C286.015,669.88 286.015,672.31 286.06,674.11 C280.615,674.11 275.305,674.11 273.775,674.155 C273.64,674.695 273.64,675.64 273.775,676.18 C277.015,676.27 296.77,676.27 300.01,676.18 Z M308.47,700.75 C308.515,697.6 308.515,691.795 308.515,685.9 C310.09,685.945 312.61,685.945 313.51,685.855 C313.6,685.18 313.6,684.325 313.51,683.785 C312.61,683.74 310.09,683.74 308.515,683.785 C308.515,678.16 308.515,672.805 308.47,669.925 C307.84,669.745 306.85,669.745 306.13,669.925 C306.085,676.135 306.085,694.225 306.13,700.75 C306.895,700.885 307.885,700.885 308.47,700.75 Z M287.275,695.485 C295.15,695.485 298.93,693.325 298.93,687.205 C298.93,681.085 295.15,678.925 287.275,678.925 C279.4,678.925 275.62,681.085 275.62,687.205 C275.62,693.325 279.4,695.485 287.275,695.485 Z M287.275,693.415 C280.57,693.415 277.915,691.39 277.915,687.205 C277.915,683.02 280.57,680.995 287.275,680.995 C293.98,680.995 296.635,683.02 296.635,687.205 C296.635,691.39 293.98,693.415 287.275,693.415 Z M309.19,709.255 C309.28,708.625 309.28,707.815 309.19,707.185 C304.24,707.095 286.24,707.14 280.21,707.185 C280.255,704.935 280.255,700.525 280.21,698.41 C279.58,698.275 278.5,698.275 277.915,698.41 C277.825,700.66 277.735,706.51 277.915,709.21 C286.15,709.435 304.24,709.435 309.19,709.255 Z M349.87,709.525 C349.915,706.735 349.96,697.6 349.96,688.69 C351.76,688.735 353.515,688.735 355.135,688.645 C355.225,687.97 355.225,687.115 355.135,686.575 C353.515,686.53 351.76,686.53 349.96,686.53 C349.96,679.195 349.915,672.4 349.87,669.925 C349.24,669.745 348.25,669.745 347.53,669.925 C347.395,675.595 347.395,704.08 347.53,709.525 C348.295,709.66 349.285,709.66 349.87,709.525 Z M343.21,706.06 C343.3,705.385 343.3,704.665 343.21,704.08 C341.815,704.035 339.745,704.035 337.315,703.99 C337.36,695.665 337.405,681.94 337.315,673.705 C339.565,673.66 341.5,673.66 342.805,673.615 C342.895,672.94 342.895,672.22 342.805,671.635 C337.54,671.5 321.88,671.5 316.525,671.635 C316.435,672.22 316.435,672.94 316.525,673.615 C318.01,673.66 320.215,673.66 322.825,673.705 C322.735,681.94 322.78,695.71 322.825,703.99 C320.08,704.035 317.695,704.035 316.12,704.08 C316.03,704.665 316.03,705.385 316.12,706.06 C321.61,706.195 337.81,706.195 343.21,706.06 Z M334.975,703.99 L325.165,703.99 C325.21,695.71 325.255,681.94 325.165,673.705 L334.975,673.705 C334.885,681.94 334.93,695.665 334.975,703.99 Z M157.045,767.975 C157.135,762.53 157.135,733.1 157.045,727.475 C155.695,727.205 151.825,727.205 150.61,727.475 C150.61,729.41 150.565,735.665 150.565,742.73 C149.845,742.685 149.125,742.685 148.405,742.685 L148.404358,741.292539 C148.398721,735.157004 148.35686,729.793023 148.315,727.7 C146.965,727.475 143.095,727.43 141.88,727.7 C141.745,732.425 141.7,762.125 141.88,767.57 C143.455,767.705 147.1,767.705 148.315,767.57 C148.315,765.005 148.36,757.085 148.36,748.895 L150.565,748.895 C150.565,757.265 150.565,765.41 150.61,767.975 C152.185,768.065 155.83,768.155 157.045,767.975 Z M124.285,765.77 C125.68,763.205 127.795,758.885 129.955,754.205 C132.205,758.705 134.365,762.89 135.805,765.275 C137.47,764.825 140.08,763.34 141.205,762.215 C139.18,758.165 136.345,752.9 133.51,747.77 C133.6,743.765 133.555,738.41 133.51,734.72 C136.03,734.675 138.325,734.675 139.81,734.63 C139.945,733.055 139.945,730.445 139.81,728.735 C131.755,728.555 123.745,728.645 120.1,728.735 C119.92,730.355 119.92,732.83 120.1,734.63 C121.315,734.675 123.655,734.72 126.355,734.72 C126.31,738.32 126.265,743.585 126.355,747.68 C123.655,753.08 120.82,758.975 118.84,763.16 C120.01,764.105 122.845,765.455 124.285,765.77 Z M181.66,736.565 C181.795,734.99 181.795,732.47 181.66,730.76 C179.41,730.715 177.115,730.67 174.865,730.67 C174.91,729.095 174.865,727.52 174.82,726.575 C173.245,726.305 169.105,726.35 167.89,726.575 C167.845,727.52 167.8,729.095 167.8,730.67 C164.965,730.67 162.535,730.715 161.05,730.76 C160.87,732.38 160.87,734.765 161.05,736.565 C164.38,736.745 177.07,736.655 181.66,736.565 Z M198.895,767.975 C198.985,762.53 198.985,733.1 198.895,727.475 C197.545,727.205 193.675,727.205 192.46,727.475 C192.46,729.41 192.415,735.665 192.415,742.73 C191.65,742.685 190.795,742.685 189.985,742.685 C189.985,735.98 189.94,729.95 189.895,727.7 C188.545,727.475 184.675,727.43 183.46,727.7 C183.325,732.425 183.28,762.125 183.46,767.57 C185.035,767.705 188.68,767.705 189.895,767.57 L189.895758,766.885332 C189.901657,763.784941 189.94,756.455 189.94,748.895 L192.415,748.895 C192.415,757.265 192.415,765.41 192.46,767.975 C194.035,768.065 197.68,768.155 198.895,767.975 Z M171.355,766.76 C178.825,766.76 181.3,762.71 181.3,752.585 C181.3,742.46 178.825,738.41 171.355,738.41 C163.885,738.41 161.41,742.46 161.41,752.585 C161.41,762.71 163.885,766.76 171.355,766.76 Z M171.355,761.09 C168.52,761.09 167.755,759.155 167.755,752.585 C167.755,746.015 168.52,744.08 171.355,744.08 C174.145,744.08 174.955,746.015 174.955,752.585 C174.955,759.155 174.145,761.09 171.355,761.09 Z M239.8,750.065 C239.935,745.61 239.89,732.335 239.8,727.475 C238.225,727.25 234.31,727.295 233.095,727.475 C233.05,728.105 233.05,729.095 233.05,730.355 C231.115,730.355 229.27,730.355 228.145,730.4 C228.01,732.11 228.01,734.72 228.145,736.43 C229.315,736.475 231.115,736.52 233.005,736.52 L233.005,740.345 C231.07,740.345 229.27,740.345 228.145,740.39 C228.01,742.1 228.01,744.71 228.145,746.42 C229.315,746.465 231.16,746.51 233.05,746.51 L233.050553,747.52333 C233.052396,748.595178 233.060385,749.476538 233.095,750.065 C234.67,750.2 238.405,750.245 239.8,750.065 Z M214.915,748.265 C223.375,748.265 227.065,744.665 227.065,738.005 C227.065,731.39 223.375,727.745 214.915,727.745 C206.455,727.745 202.765,731.39 202.765,738.005 C202.765,744.665 206.455,748.265 214.915,748.265 Z M214.915,742.595 C210.865,742.595 209.29,740.93 209.29,738.005 C209.29,735.08 210.865,733.415 214.915,733.415 C218.875,733.415 220.54,735.08 220.54,738.005 C220.54,740.93 218.875,742.595 214.915,742.595 Z M240.565,759.74 C240.565,753.755 237.1,750.695 223.105,750.695 C209.785,750.695 205.645,753.125 205.645,759.74 C205.645,765.77 209.11,768.83 223.105,768.83 C236.425,768.83 240.565,766.4 240.565,759.74 Z M223.512574,763.069347 L223.105,763.07 C213.793971,763.07 212.521202,761.934159 212.485782,759.834651 L212.485,759.74 C212.485,757.49 213.61,756.455 223.105,756.455 C232.555,756.455 233.725,757.625 233.725,759.74 C233.725,762.001739 232.632372,763.039735 223.512574,763.069347 L223.512574,763.069347 Z M269.905,735.125 C270.04,733.595 269.995,731.03 269.905,729.455 C268.105,729.41 264.595,729.365 260.725,729.365 C260.725,728.465 260.725,727.565 260.68,726.8 C258.88,726.53 254.83,726.53 253.615,726.8 C253.57,727.565 253.525,728.465 253.525,729.365 L252.41739,729.365778 C248.047249,729.371923 244.455769,729.413462 243.625,729.455 C243.445,731.12 243.445,733.415 243.625,735.125 C246.28,735.215 265.99,735.215 269.905,735.125 Z M279.625,752.315 C279.67,751.28 279.67,749.705 279.67,747.815 C281.515,747.815 282.865,747.77 283.585,747.68 C283.72,745.97 283.72,743.495 283.585,741.785 C282.64,741.74 281.335,741.695 279.715,741.695 L279.715,736.565 C281.515,736.565 282.865,736.52 283.585,736.43 C283.72,734.72 283.72,732.245 283.585,730.535 C282.64,730.49 281.29,730.445 279.67,730.445 C279.67,729.275 279.625,728.24 279.625,727.475 C278.05,727.25 274.135,727.295 272.92,727.475 C272.785,730.895 272.785,748.445 272.92,752.315 C274.495,752.45 278.23,752.495 279.625,752.315 Z M257.125,751.28 C265.9,751.28 269.68,749.435 269.68,743.765 C269.68,738.32 266.305,736.25 257.125,736.25 C248.35,736.25 244.57,738.095 244.57,743.765 C244.57,749.21 247.945,751.28 257.125,751.28 Z M257.125,746.015 C252.355,746.015 250.87,745.25 250.87,743.765 C250.87,742.325 252.175,741.56 257.125,741.56 C261.895,741.56 263.38,742.325 263.38,743.765 C263.38,745.25 262.075,746.015 257.125,746.015 Z M280.39,760.91 C280.39,755.69 276.925,753.035 262.93,753.035 C249.61,753.035 245.47,755.105 245.47,760.91 C245.47,766.1165 248.858428,768.770678 262.46739,768.829017 L262.93,768.83 C276.25,768.83 280.39,766.76 280.39,760.91 Z M263.34349,763.249532 L262.93,763.25 C253.574632,763.25 252.344898,762.463648 252.310753,760.977033 L252.31,760.91 C252.31,759.335 253.435,758.615 262.93,758.615 C272.425,758.615 273.55,759.425 273.55,760.91 C273.55,762.506176 272.457845,763.228629 263.34349,763.249532 Z M323.095,767.975 C323.185,762.53 323.185,733.1 323.095,727.475 C321.745,727.205 317.875,727.205 316.66,727.475 C316.615,732.2 316.57,762.53 316.66,767.975 C318.235,768.065 321.88,768.155 323.095,767.975 Z M314.41,767.57 C314.455,762.215 314.545,733.37 314.41,727.7 C313.06,727.475 309.19,727.43 307.975,727.7 C307.93,728.825 307.93,731.3 307.885,734.495 C306.445,734.45 304.915,734.45 303.655,734.495 C302.26,729.455 299.515,727.7 295.06,727.7 C288.113895,727.7 285.265148,731.929531 285.205944,746.404546 L285.205,746.87 C285.205,761.72 288.04,766.04 295.06,766.04 C299.875,766.04 302.71,764.015 304.015,757.94 C305.185,757.94 306.535,757.94 307.885,757.895 L307.885587,758.774827 C307.891,762.8268 307.933,766.1 307.975,767.57 C309.55,767.705 313.195,767.705 314.41,767.57 Z M295.160689,759.739073 L295.06,759.74 C292.483896,759.74 291.792859,757.98645 291.775344,747.296625 L291.775,746.87 C291.775,735.8 292.45,734 295.06,734 C297.67,734 298.3,735.8 298.3,746.87 C298.3,757.796234 297.686257,759.691683 295.160689,759.739073 Z M307.84,751.595 C306.805,751.595 305.725,751.55 304.78,751.595 C304.825,750.155 304.87,748.58 304.87,746.87 C304.87,744.62 304.825,742.595 304.69,740.84 C305.68,740.84 306.805,740.84 307.885,740.795 C307.84,744.26 307.84,747.995 307.84,751.595 Z M362.92,750.965 C363.055,746.015 363.055,734.495 362.92,728.645 C361.165,728.51 357.79,728.51 356.035,728.645 L356.035,733.73 C351.13,733.685 341.005,733.685 336.055,733.73 C336.055,731.525 336.055,729.59 336.01,728.645 C334.48,728.51 330.88,728.465 329.125,728.645 C328.945,733.865 328.99,745.7 329.125,750.965 C332.77,751.28 359.725,751.19 362.92,750.965 Z M336.01,744.89 C336.01,743.945 336.055,742.1 336.055,739.985 C340.96,740.03 351.175,740.03 356.035,739.985 L356.035,744.89 C354.1,744.98 338.17,744.98 336.01,744.89 Z M365.35,766.895 C365.53,765.005 365.53,762.71 365.35,761.045 C363.37,761 356.845,760.955 349.51,760.955 C349.51,758.3 349.51,755.285 349.465,753.485 C347.8,753.26 343.93,753.215 342.58,753.485 C342.535,755.015 342.49,758.12 342.49,760.955 C336.28,760.955 330.295,760.955 326.65,761.045 C326.47,762.8 326.47,765.275 326.65,766.895 C331.96,767.075 361.48,767.165 365.35,766.895 Z M172.03,807.93 C172.165,807.3 172.165,806.535 172.03,805.95 L163.84,805.86 C163.93,801.135 163.93,794.43 163.84,790.02 L166.036563,790.019297 C168.162813,790.017187 170.06125,790.00875 171.58,789.975 C171.715,789.345 171.715,788.58 171.58,787.995 C163.795,787.86 146.2,787.86 138.415,787.995 C138.28,788.58 138.28,789.345 138.415,789.975 C140.44,790.02 143.095,790.02 146.065,790.02 C145.975,794.43 145.975,801.135 146.065,805.86 L137.965,805.95 C137.83,806.535 137.83,807.3 137.965,807.93 C146.02,808.02 163.975,808.02 172.03,807.93 Z M161.59,805.86 L148.315,805.86 C148.405,801.135 148.405,794.43 148.315,790.02 C152.59,790.065 157.315,790.065 161.59,790.02 C161.5,794.43 161.5,801.135 161.59,805.86 Z M173.875,823.995 C174.01,823.32 174.01,822.555 173.875,821.925 C172.39,821.88 168.97,821.88 164.695,821.88 C164.74,818.595 164.785,812.475 164.695,810.405 C163.975,810.27 163.12,810.225 162.355,810.405 C162.265,812.475 162.265,818.595 162.355,821.835 L147.595,821.835 C147.64,818.595 147.685,812.475 147.595,810.405 C146.875,810.27 146.02,810.225 145.255,810.405 C145.165,812.475 145.165,818.595 145.255,821.835 C141.16,821.88 137.785,821.88 136.075,821.925 C135.94,822.555 135.94,823.23 136.075,823.995 C142.105,824.13 168.925,824.175 173.875,823.995 Z M180.49,800.145 C184.675,798.975 191.38,797.04 196.465,795.51 C201.415,796.95 208.165,798.75 212.35,799.875 C212.71,799.335 213.025,798.525 213.025,797.805 C209.02,796.68 202.405,794.835 197.59,793.62 C197.635,792.675 197.635,791.595 197.59,790.605 C203.395,790.605 209.065,790.605 212.62,790.56 C212.755,789.93 212.755,789.12 212.62,788.535 C209.065,788.49 203.395,788.445 197.59,788.445 C197.635,787.14 197.635,785.43 197.545,784.35 C196.825,784.17 195.925,784.17 195.205,784.35 C195.115,785.43 195.115,787.14 195.16,788.445 C189.355,788.445 183.73,788.49 180.175,788.535 C180.04,789.12 180.04,789.93 180.175,790.56 C183.73,790.605 189.355,790.605 195.16,790.605 C195.115,791.595 195.115,792.72 195.16,793.665 C190.39,794.925 183.775,796.905 179.77,798.075 C179.815,798.795 180.13,799.605 180.49,800.145 Z M213.25,825.435 C213.385,824.805 213.385,823.995 213.25,823.365 L182.605,823.365 L182.605,818.955 L212.215,818.955 C212.395,817.065 212.395,812.115 212.215,810.225 C209.11,810.18 203.44,810.135 197.59,810.135 C197.635,808.65 197.635,807.03 197.59,805.68 L198.94596,805.679427 C205.2566,805.6742 211.285,805.635 215.275,805.635 C215.41,805.005 215.41,804.15 215.275,803.565 C206.41,803.43 187.375,803.43 177.475,803.565 C177.34,804.15 177.34,805.005 177.475,805.635 C182.065,805.68 188.59,805.725 195.16,805.725 C195.115,807.03 195.115,808.65 195.16,810.135 C189.535,810.135 184,810.18 180.49,810.225 C180.31,810.675 180.31,811.755 180.49,812.385 L210.01,812.385 L210.01,816.705 L180.4,816.705 C180.175,819.405 180.265,823.14 180.4,825.435 C185.845,825.705 210.46,825.66 213.25,825.435 Z M264.1,798.345 C264.235,797.715 264.235,796.95 264.1,796.365 L256.135,796.275 C256.18,793.98 256.18,790.965 256.135,788.76 C259.06,788.76 261.67,788.76 263.65,788.715 C263.785,788.085 263.785,787.32 263.65,786.735 C255.955,786.6 238.54,786.6 230.845,786.735 C230.71,787.32 230.71,788.085 230.845,788.715 C232.78,788.76 235.39,788.76 238.27,788.76 C238.225,790.965 238.225,793.98 238.27,796.275 L230.395,796.365 C230.26,796.95 230.26,797.715 230.395,798.345 C238.36,798.435 256.135,798.435 264.1,798.345 Z M253.795,796.275 L240.61,796.275 C240.655,793.98 240.655,790.965 240.61,788.76 C244.84,788.805 249.565,788.805 253.795,788.76 C253.75,790.965 253.75,793.98 253.795,796.275 Z M266.125,804.96 C266.26,804.33 266.26,803.475 266.125,802.89 C257.26,802.755 238.225,802.755 228.325,802.89 C228.19,803.475 228.19,804.33 228.325,804.96 C238.225,805.095 257.26,805.005 266.125,804.96 Z M264.1,825.435 C264.235,824.805 264.235,823.995 264.1,823.365 L233.455,823.365 L233.455,818.73 L263.065,818.73 C263.245,816.795 263.245,811.71 263.065,809.775 C256.54,809.64 239.035,809.64 231.34,809.775 C231.16,810.225 231.16,811.305 231.34,811.935 L260.86,811.935 L260.86,816.48 L231.25,816.48 C231.025,819.225 231.115,823.05 231.25,825.435 C236.695,825.705 261.31,825.66 264.1,825.435 Z M306.22,810.675 C306.31,807.345 306.355,789.435 306.22,785.88 C305.59,785.7 304.645,785.7 303.925,785.88 C303.88,787.275 303.835,790.875 303.835,794.925 C301.315,794.88 298.705,794.88 296.14,794.925 C296.14,791.01 296.095,787.41 296.05,786.105 C295.42,785.925 294.475,785.925 293.755,786.105 C293.62,789.255 293.62,805.095 293.755,808.11 C294.52,808.245 295.465,808.245 296.05,808.11 C296.095,806.625 296.14,801.81 296.14,797.04 C298.705,797.085 301.315,797.085 303.835,797.04 L303.835825,800.633715 C303.838943,805.112718 303.853837,809.216163 303.925,810.675 C304.69,810.81 305.635,810.81 306.22,810.675 Z M288.76,805.95 C288.895,805.365 288.895,804.51 288.76,803.97 L273.145,803.97 L273.145,797.58 C275.035,797.67 282.64,797.67 286.96,797.58 C287.095,795.33 287.14,789.39 286.96,787.14 C282.19,787.095 274.225,787.05 271.12,787.14 C270.985,787.77 270.985,788.535 271.12,789.165 C274.135,789.21 282.19,789.21 284.755,789.165 L284.755,795.555 C282.64,795.51 275.035,795.51 270.94,795.555 C270.76,797.805 270.76,803.655 270.94,805.95 C275.755,806.175 286.015,806.085 288.76,805.95 Z M273.37,825.705 C277.51,824.175 285.07,821.025 289.705,819.045 C294.43,820.98 301.9,823.95 306.04,825.39 C306.445,824.895 306.76,824.04 306.94,823.41 C302.89,821.745 295.6,818.955 290.875,817.155 C290.92,815.04 290.92,812.295 290.83,810 C290.11,809.82 289.21,809.82 288.49,810 C288.4,812.34 288.4,815.085 288.445,817.2 C283.765,819.09 276.475,822.015 272.425,823.725 C272.605,824.355 273.01,825.21 273.37,825.705 Z M348.925,807.435 C349.06,806.805 349.06,805.95 348.925,805.365 C344.65,805.32 338.035,805.275 331.24,805.275 C331.285,803.565 331.285,801.54 331.24,799.695 L336.157013,799.694055 C340.358038,799.691576 344.195345,799.682586 346.9,799.65 C347.035,799.02 347.035,798.255 346.9,797.67 L338.935,797.58 C338.98,794.835 338.98,791.37 338.935,788.76 C341.86,788.76 344.47,788.76 346.45,788.715 C346.585,788.085 346.585,787.32 346.45,786.735 C338.755,786.6 321.34,786.6 313.645,786.735 C313.51,787.32 313.51,788.085 313.645,788.715 C315.625,788.76 318.19,788.76 321.07,788.76 C321.025,791.37 321.025,794.835 321.07,797.58 L313.195,797.67 C313.06,798.255 313.06,799.02 313.195,799.65 C316.93,799.695 322.825,799.695 328.81,799.695 C328.765,801.54 328.765,803.565 328.81,805.275 C322.24,805.275 315.715,805.32 311.125,805.365 C310.99,805.95 310.99,806.805 311.125,807.435 C321.025,807.57 340.06,807.48 348.925,807.435 Z M336.595,797.58 L323.41,797.58 C323.455,794.835 323.455,791.37 323.41,788.76 C327.64,788.805 332.365,788.805 336.595,788.76 C336.55,791.37 336.55,794.835 336.595,797.58 Z M346,825.435 C346.225,822.33 346.18,815.805 346,812.43 C340.96,812.295 319.09,812.295 314.05,812.43 C313.87,815.805 313.825,822.33 314.05,825.435 C319.09,825.75 340.96,825.75 346,825.435 Z M316.21,823.365 L316.21,814.455 C319,814.365 341.05,814.365 343.84,814.455 L343.84,823.365 C341.05,823.5 319,823.5 316.21,823.365 Z" id="login-text"></path>
        </g>
    </g>
</svg>