<?xml version="1.0" encoding="UTF-8"?>
<svg width="225px" height="158px" viewBox="0 0 225 158" version="1.1" xmlns="http://www.w3.org/2000/svg" xmlns:xlink="http://www.w3.org/1999/xlink">
    <title>폭염및한파영향예측표출플랫폼</title>
    <g id="0327_시안" stroke="none" stroke-width="1" fill="none" fill-rule="evenodd">
        <g id="07.로그인" transform="translate(-131.000000, -436.000000)" fill="#FFFFFF" fill-rule="nonzero">
            <path d="M169.15,459.885 C169.285,459.255 169.285,458.4 169.15,457.815 C164.875,457.77 158.26,457.725 151.465,457.725 C151.51,456.06 151.51,454.035 151.465,452.145 L156.382013,452.144055 C160.583038,452.141576 164.420345,452.132586 167.125,452.1 C167.26,451.47 167.26,450.705 167.125,450.12 L159.16,450.03 C159.205,447.15 159.205,443.505 159.16,440.76 L161.426827,440.759147 C163.4322,440.7568 165.223,440.748 166.675,440.715 C166.81,440.085 166.81,439.32 166.675,438.735 C162.987813,438.670313 157.068906,438.636621 151.057012,438.633926 L149.487988,438.633926 C143.476094,438.636621 137.557187,438.670313 133.87,438.735 C133.735,439.32 133.735,440.085 133.87,440.715 C135.322,440.748 137.0886,440.7568 139.06332,440.759147 L141.295,440.76 L141.295,440.76 C141.25,443.505 141.25,447.15 141.295,450.03 L133.42,450.12 C133.285,450.705 133.285,451.47 133.42,452.1 C136.124655,452.132586 139.961962,452.141576 144.145899,452.144055 L149.035,452.145 L149.035,452.145 C148.99,454.035 148.99,456.06 149.035,457.725 C142.465,457.725 135.94,457.77 131.35,457.815 C131.215,458.4 131.215,459.255 131.35,459.885 C135.085849,459.935943 140.122517,459.954847 145.422637,459.956219 L147.019539,459.956219 C155.300317,459.953037 163.964811,459.911321 169.15,459.885 Z M156.82,450.03 L143.635,450.03 C143.68,447.15 143.68,443.505 143.635,440.76 C147.865,440.805 152.59,440.805 156.82,440.76 C156.775,443.505 156.775,447.15 156.82,450.03 Z M166.225,477.435 C166.36,474.6 166.495,468.39 166.225,465.105 C163.689789,465.003592 157.818097,464.957029 151.728693,464.952917 L150.012878,464.952917 L150.012878,464.952917 L148.870237,464.954108 C142.408859,464.963564 136.251831,465.018803 134.14,465.105 C134.005,465.735 134.005,466.545 134.14,467.175 C135.391486,467.200541 138.063579,467.211585 141.325306,467.214304 L145.263764,467.214128 C146.289586,467.213349 147.3377,467.212081 148.388724,467.21047 L149.44,467.20875 C149.615135,467.208446 149.790172,467.208134 149.96502,467.207814 L151.011131,467.20581 C156.223208,467.195389 161.104269,467.179371 163.231652,467.175746 L163.784834,467.175049 C163.836581,467.175016 163.885,467.175 163.93,467.175 C163.93,468.615 163.893136,471.271512 163.890187,473.728958 L163.890809,474.638405 C163.893712,475.682088 163.9048,476.6538 163.93,477.435 C164.47,477.525 165.685,477.525 166.225,477.435 Z M208.75,458.76 C208.792955,456.655227 208.815408,452.766865 208.817361,448.821891 L208.817361,447.694707 C208.815408,443.754615 208.792955,439.922386 208.75,437.925 C208.12,437.745 207.13,437.745 206.41,437.925 L206.409984,438.154936 L206.409984,438.154936 L206.409557,438.661645 C206.407934,439.645332 206.400357,440.920714 206.365,442.335 C205.181154,442.314231 203.633047,442.303047 202.158678,442.30145 L201.429665,442.30145 C199.992041,442.303047 198.701154,442.314231 197.995,442.335 C197.905,442.875 197.905,443.73 197.995,444.405 C198.818846,444.453462 200.451627,444.475828 202.176743,444.479126 L202.919643,444.479392 C204.160266,444.477959 205.395769,444.467308 206.365,444.45 L206.365,451.335 C205.181154,451.314231 203.633047,451.303047 202.158678,451.30145 L201.429665,451.30145 C199.992041,451.303047 198.701154,451.314231 197.995,451.335 C197.905,451.875 197.905,452.73 197.995,453.405 C198.818846,453.453462 200.451627,453.475828 202.176743,453.479126 L202.919643,453.479392 C204.160266,453.477959 205.395769,453.467308 206.365,453.45 C206.398,455.034 206.4068,456.4728 206.409147,457.624427 L206.409987,458.499707 C206.41,458.5892 206.41,458.676 206.41,458.76 C207.175,458.895 208.165,458.895 208.75,458.76 Z M184.765,456.915 C192.37,456.915 196.015,453.45 196.015,447.78 C196.015,442.11 192.37,438.645 184.765,438.645 C177.16,438.645 173.515,442.11 173.515,447.78 C173.515,453.45 177.16,456.915 184.765,456.915 Z M184.765,454.845 C178.555,454.845 175.855,452.01 175.855,447.78 C175.855,443.55 178.555,440.715 184.765,440.715 C190.975,440.715 193.675,443.55 193.675,447.78 C193.675,452.01 190.975,454.845 184.765,454.845 Z M208.75,477.21 C208.93,472.035 208.93,466.455 208.75,461.19 C202.585,461.055 183.28,461.055 177.115,461.19 C176.98,466.455 176.89,472.035 177.115,477.21 C183.28,477.48 202.585,477.48 208.75,477.21 Z M193.759757,475.24102 L192.105243,475.24102 C186.595816,475.237959 181.255,475.204286 179.455,475.14 C179.32,472.035 179.365,466.455 179.455,463.26 C181.195,463.218571 186.243696,463.186678 191.554987,463.177487 L192.656623,463.175914 L192.656623,463.175914 L193.759757,463.175015 C193.943405,463.174826 194.126865,463.174826 194.310013,463.174826 L195.404155,463.174985 C200.301939,463.177347 204.79,463.202143 206.41,463.26 C206.5,466.455 206.5,472.035 206.41,475.14 C204.61,475.204286 199.269184,475.237959 193.759757,475.24102 Z M259.6,459.435 C259.642955,457.265795 259.665408,453.251498 259.667361,449.177794 L259.667361,448.013805 C259.665408,443.944982 259.642955,439.986818 259.6,437.925 C258.97,437.745 257.98,437.745 257.26,437.925 C257.240568,439.790455 257.229527,443.208246 257.226878,446.855838 L257.226878,450.33855 C257.229527,453.99939 257.240568,457.472386 257.26,459.435 C258.025,459.57 259.015,459.57 259.6,459.435 Z M235.705783,455.132341 L236.761177,455.130958 C240.975976,455.121696 245.0506,455.0664 246.865,454.98 C247.09,451.56 247.09,443.1 246.865,439.14 C244.916765,439.055294 240.825969,439.01045 236.660726,439.005467 L235.099309,439.005467 C230.947768,439.01045 226.980294,439.055294 225.265,439.14 C225.181,440.862 225.1362,443.564 225.1306,446.358773 L225.1306,447.559627 C225.1362,450.3628 225.181,453.132 225.265,454.98 C227.2954,455.088 231.482344,455.133792 235.705783,455.132341 L235.705783,455.132341 Z M237.014291,453.040203 L235.748228,453.038743 C232.581363,453.031561 229.452903,452.998548 227.515,452.955 C227.425,450.75 227.425,443.37 227.515,441.165 C230.049063,441.141094 233.611841,441.117188 236.982132,441.113522 L238.741709,441.113522 C241.045938,441.116484 243.146875,441.13125 244.615,441.165 C244.657188,442.198594 244.6796,444.389048 244.682236,446.642536 L244.682236,447.5447 C244.6796,449.795552 244.657188,451.963594 244.615,452.955 C242.80629,453.015968 239.960473,453.040203 237.014291,453.040203 Z M227.425,477.615 C231.565,476.13 238.225,473.565 243.94,471.225 C249.61,473.43 256.225,475.905 260.365,477.3 C260.815,476.76 261.175,475.95 261.265,475.32 C257.125,473.745 250.78,471.36 245.02,469.29 L245.02,465.555 L249.304844,465.554297 C253.494062,465.552188 257.31625,465.54375 260.05,465.51 C260.185,464.88 260.185,464.025 260.05,463.44 C256.405,463.395 250.825,463.35 245.02,463.35 C245.02,461.64 245.02,459.93 244.975,458.355 C244.255,458.175 243.535,458.175 242.815,458.355 C242.77,459.93 242.77,461.64 242.77,463.35 C237.1,463.35 231.475,463.395 227.515,463.44 C227.38,464.025 227.38,464.88 227.515,465.51 C230.485,465.54375 234.391563,465.552188 238.55125,465.554297 L242.77,465.555 L242.77,465.555 L242.77,469.335 C237.01,471.495 230.665,473.97 226.525,475.635 C226.615,476.265 226.975,477.075 227.425,477.615 Z M300.01,444.18 C300.145,443.64 300.145,442.695 300.01,442.155 C299.033026,442.125395 296.614744,442.115267 293.600871,442.111802 L292.866539,442.111092 C292.742388,442.110992 292.617394,442.110902 292.491608,442.11082 L288.942751,442.110001 C288.807119,442.11 288.671184,442.11 288.535,442.11 C288.58,440.31 288.58,437.88 288.49,436.755 C287.77,436.575 286.825,436.575 286.105,436.755 C286.015,437.88 286.015,440.31 286.06,442.11 L285.661879,442.110001 L285.661879,442.110001 L281.776983,442.110869 C281.652345,442.110948 281.528368,442.111034 281.405106,442.111128 L280.674538,442.111792 C277.429396,442.115247 274.782561,442.125366 273.775,442.155 C273.64,442.695 273.64,443.64 273.775,444.18 C275.270385,444.221538 280.283757,444.243905 285.567745,444.247101 L288.217255,444.247101 C293.501243,444.243905 298.514615,444.221538 300.01,444.18 Z M308.47,468.75 C308.499531,466.682813 308.509683,463.472212 308.513172,459.843127 L308.513999,458.795484 C308.51411,458.619188 308.514209,458.4421 308.514297,458.264297 L308.514999,454.452314 C308.515,454.26835 308.515,454.084219 308.515,453.9 C310.09,453.945 312.61,453.945 313.51,453.855 C313.6,453.18 313.6,452.325 313.51,451.785 C312.61,451.74 310.09,451.74 308.515,451.785 L308.514998,451.241562 L308.514998,451.241562 L308.514227,447.522001 C308.512003,443.560957 308.503387,440.061774 308.47,437.925 C307.84,437.745 306.85,437.745 306.13,437.925 C306.110364,440.634818 306.099296,445.606745 306.096797,450.892751 L306.096797,455.549826 C306.099296,460.853326 306.110364,465.902727 306.13,468.75 C306.895,468.885 307.885,468.885 308.47,468.75 Z M287.275,463.485 C295.15,463.485 298.93,461.325 298.93,455.205 C298.93,449.085 295.15,446.925 287.275,446.925 C279.4,446.925 275.62,449.085 275.62,455.205 C275.62,461.325 279.4,463.485 287.275,463.485 Z M287.275,461.415 C280.57,461.415 277.915,459.39 277.915,455.205 C277.915,451.02 280.57,448.995 287.275,448.995 C293.98,448.995 296.635,451.02 296.635,455.205 C296.635,459.39 293.98,461.415 287.275,461.415 Z M309.19,477.255 C309.28,476.625 309.28,475.815 309.19,475.185 C307.344237,475.151441 303.683996,475.136652 299.506453,475.133634 L295.999347,475.13365 C295.60269,475.133912 295.204682,475.134256 294.806297,475.134675 L293.610986,475.136158 C288.235771,475.143814 282.969492,475.164407 280.21,475.185 C280.255,472.935 280.255,468.525 280.21,466.41 C279.58,466.275 278.5,466.275 277.915,466.41 C277.866786,467.615357 277.818571,469.853878 277.811868,472.087786 L277.811499,472.978643 C277.815242,474.602411 277.844286,476.149286 277.915,477.21 C281.969154,477.320769 288.411833,477.377006 294.499296,477.384079 L296.760085,477.384438 C302.157517,477.379786 306.981538,477.335308 309.19,477.255 Z M349.87,477.525 C349.911786,474.934286 349.953571,466.872628 349.959328,458.600335 L349.959957,457.167499 C349.959986,457.008286 349.96,456.849107 349.96,456.69 C351.76,456.735 353.515,456.735 355.135,456.645 C355.225,455.97 355.225,455.115 355.135,454.575 C353.515,454.53 351.76,454.53 349.96,454.53 L349.959937,454.052435 L349.959937,454.052435 L349.959009,452.631257 C349.952174,446.045926 349.911087,440.184783 349.87,437.925 C349.24,437.745 348.25,437.745 347.53,437.925 C347.469647,440.459824 347.436275,447.554489 347.429885,455.111858 L347.4291,456.308375 C347.429007,456.508236 347.428876,456.708268 347.428876,456.908397 L347.428876,458.710143 C347.428876,458.910178 347.429007,459.110086 347.4291,459.309791 L347.429885,460.505 C347.436275,468.051718 347.469647,475.090765 347.53,477.525 C348.295,477.66 349.285,477.66 349.87,477.525 Z M343.21,474.06 C343.3,473.385 343.3,472.665 343.21,472.08 C341.815,472.035 339.745,472.035 337.315,471.99 C337.338906,467.567344 337.362813,461.620664 337.366478,455.78273 L337.366416,452.711191 C337.363516,448.653281 337.34875,444.793125 337.315,441.705 C339.565,441.66 341.5,441.66 342.805,441.615 C342.895,440.94 342.895,440.22 342.805,439.635 C340.2778,439.5702 335.355592,439.536504 330.32763,439.533912 L329.069762,439.533912 C324.040072,439.536504 319.0954,439.5702 316.525,439.635 C316.435,440.22 316.435,440.94 316.525,441.615 C318.01,441.66 320.215,441.66 322.825,441.705 C322.79125,444.793125 322.776484,448.659609 322.773584,452.723057 L322.773522,455.798488 L322.773522,455.798488 L322.775623,457.862894 C322.782812,463.021201 322.803906,468.10875 322.825,471.99 C320.08,472.035 317.695,472.035 316.12,472.08 C316.03,472.665 316.03,473.385 316.12,474.06 C318.759423,474.124904 323.874345,474.158604 329.074478,474.1611 L330.322922,474.1611 C335.521391,474.158604 340.613846,474.124904 343.21,474.06 Z M334.975,471.99 L325.165,471.99 C325.186094,468.10875 325.207188,463.021201 325.214377,457.862894 L325.216478,455.798488 L325.216478,455.798488 L325.216416,452.723057 C325.213516,448.659609 325.19875,444.793125 325.165,441.705 L334.975,441.705 C334.94125,444.793125 334.926484,448.653281 334.923584,452.711191 L334.923522,455.78273 C334.927188,461.620664 334.951094,467.567344 334.975,471.99 Z M198.4,518.065 C198.535,513.61 198.49,500.335 198.4,495.475 C196.825,495.25 192.91,495.295 191.695,495.475 C191.66125,495.9475 191.652813,496.6225 191.650703,497.462031 L191.65,498.355 L191.65,498.355 L191.264387,498.355013 L191.264387,498.355013 L190.133147,498.355853 C188.7822,498.3582 187.57,498.367 186.745,498.4 C186.61,500.11 186.61,502.72 186.745,504.43 C187.915,504.475 189.715,504.52 191.605,504.52 L191.605,508.345 L191.21996,508.345013 L191.21996,508.345013 L190.09604,508.345853 C188.758,508.3482 187.57,508.357 186.745,508.39 C186.61,510.1 186.61,512.71 186.745,514.42 C187.915,514.465 189.76,514.51 191.65,514.51 L191.650553,515.52333 C191.652396,516.595178 191.660385,517.476538 191.695,518.065 C193.27,518.2 197.005,518.245 198.4,518.065 Z M173.515,516.265 C181.975,516.265 185.665,512.665 185.665,506.005 C185.665,499.39 181.975,495.745 173.515,495.745 C165.055,495.745 161.365,499.39 161.365,506.005 C161.365,512.665 165.055,516.265 173.515,516.265 Z M173.515,510.595 C169.465,510.595 167.89,508.93 167.89,506.005 C167.89,503.08 169.465,501.415 173.515,501.415 C177.475,501.415 179.14,503.08 179.14,506.005 C179.14,508.93 177.475,510.595 173.515,510.595 Z M199.165,527.74 C199.165,521.755 195.7,518.695 181.705,518.695 C168.385,518.695 164.245,521.125 164.245,527.74 C164.245,533.77 167.71,536.83 181.705,536.83 C195.025,536.83 199.165,534.4 199.165,527.74 Z M182.112574,531.069347 L181.705,531.07 C172.393971,531.07 171.121202,529.934159 171.085782,527.834651 L171.085,527.74 C171.085,525.49 172.21,524.455 181.705,524.455 C191.155,524.455 192.325,525.625 192.325,527.74 C192.325,530.001739 191.232372,531.039735 182.112574,531.069347 L182.112574,531.069347 Z M228.505,503.125 C228.64,501.595 228.595,499.03 228.505,497.455 C226.843462,497.413462 223.724882,497.371923 220.211072,497.365778 L219.325,497.365 L219.325,497.365 C219.325,496.465 219.325,495.565 219.28,494.8 C217.48,494.53 213.43,494.53 212.215,494.8 C212.17,495.565 212.125,496.465 212.125,497.365 L211.01739,497.365778 C206.647249,497.371923 203.055769,497.413462 202.225,497.455 C202.045,499.12 202.045,501.415 202.225,503.125 C203.456304,503.166739 208.355813,503.189121 213.646815,503.192146 L216.143147,503.192146 C221.476493,503.189121 226.689348,503.166739 228.505,503.125 Z M238.225,520.315 C238.260357,519.501786 238.267934,518.355204 238.269557,516.984393 L238.269984,516.215097 C238.27,516.083393 238.27,515.95 238.27,515.815 C240.115,515.815 241.465,515.77 242.185,515.68 C242.32,513.97 242.32,511.495 242.185,509.785 C241.24,509.74 239.935,509.695 238.315,509.695 L238.315,504.565 C240.115,504.565 241.465,504.52 242.185,504.43 C242.32,502.72 242.32,500.245 242.185,498.535 C241.24,498.49 239.89,498.445 238.27,498.445 C238.27,497.275 238.225,496.24 238.225,495.475 C236.65,495.25 232.735,495.295 231.52,495.475 C231.45475,497.128 231.421037,502.081925 231.418862,507.196691 L231.418862,508.256184 C231.421037,513.3782 231.45475,518.4445 231.52,520.315 C233.095,520.45 236.83,520.495 238.225,520.315 Z M215.725,519.28 C224.5,519.28 228.28,517.435 228.28,511.765 C228.28,506.32 224.905,504.25 215.725,504.25 C206.95,504.25 203.17,506.095 203.17,511.765 C203.17,517.21 206.545,519.28 215.725,519.28 Z M215.725,514.015 C210.955,514.015 209.47,513.25 209.47,511.765 C209.47,510.325 210.775,509.56 215.725,509.56 C220.495,509.56 221.98,510.325 221.98,511.765 C221.98,513.25 220.675,514.015 215.725,514.015 Z M238.99,528.91 C238.99,523.69 235.525,521.035 221.53,521.035 C208.21,521.035 204.07,523.105 204.07,528.91 C204.07,534.1165 207.458428,536.770678 221.06739,536.829017 L221.53,536.83 C234.85,536.83 238.99,534.76 238.99,528.91 Z M221.94349,531.249532 L221.53,531.25 C212.174632,531.25 210.944898,530.463648 210.910753,528.977033 L210.91,528.91 C210.91,527.335 212.035,526.615 221.53,526.615 C230.885368,526.615 232.115102,527.401352 232.149247,528.844924 L232.15,528.91 C232.15,530.506176 231.057845,531.228629 221.94349,531.249532 Z M281.695,535.975 C281.736379,533.471552 281.758734,525.897949 281.762063,517.898908 L281.762063,513.685218 C281.758734,505.679518 281.736379,498.061207 281.695,495.475 C280.345,495.205 276.475,495.205 275.26,495.475 C275.237989,497.786141 275.215978,506.223243 275.209766,514.877774 L275.209032,516.032481 C275.208926,516.224974 275.208828,516.417445 275.208718,516.609829 L275.208718,522.290353 C275.208812,522.474509 275.208916,522.657931 275.20903,522.840551 L275.20984,523.926153 C275.214676,529.480108 275.229674,534.140272 275.26,535.975 C276.835,536.065 280.48,536.155 281.695,535.975 Z M273.01,535.57 C273.03093,533.079302 273.061595,525.506939 273.074828,517.548345 L273.076679,516.352246 C273.078107,515.354062 273.079241,514.35351 273.080028,513.359763 L273.080803,512.17112 C273.081151,511.973753 273.081151,511.776804 273.081151,511.580348 L273.081151,509.251199 C273.081151,509.059855 273.081151,508.869297 273.081151,508.679598 L273.080168,507.552298 C273.075462,502.159185 273.055523,497.611977 273.01,495.7 C271.66,495.475 267.79,495.43 266.575,495.7 C266.53,496.825 266.53,499.3 266.485,502.495 C265.045,502.45 263.515,502.45 262.255,502.495 C260.86,497.455 258.115,495.7 253.66,495.7 C246.713895,495.7 243.865148,499.929531 243.805944,514.404546 L243.805,514.87 C243.805,529.72 246.64,534.04 253.66,534.04 C258.475,534.04 261.31,532.015 262.615,525.94 C263.785,525.94 265.135,525.94 266.485,525.895 L266.485587,526.774827 C266.491,530.8268 266.533,534.1 266.575,535.57 C268.15,535.705 271.795,535.705 273.01,535.57 Z M253.760689,527.739073 L253.66,527.74 C251.083896,527.74 250.392859,525.98645 250.375344,515.296625 L250.375,514.87 C250.375,503.8 251.05,502 253.66,502 C256.27,502 256.9,503.8 256.9,514.87 C256.9,525.796234 256.286257,527.691683 253.760689,527.739073 L253.760689,527.739073 Z M266.44,519.595 C265.405,519.595 264.325,519.55 263.38,519.595 C263.425,518.155 263.47,516.58 263.47,514.87 C263.47,512.62 263.425,510.595 263.29,508.84 C264.28,508.84 265.405,508.84 266.485,508.795 C266.44,512.26 266.44,515.995 266.44,519.595 Z M288.4,514.285 C291.235,513.835 298.66,512.035 304.69,510.37 C305.83,510.67 307.020612,510.974898 308.221409,511.274742 L309.123285,511.498523 C313.936735,512.685306 318.751429,513.751429 320.98,514.06 C321.835,512.485 322.375,510.46 322.51,508.525 C318.865,507.67 313.285,506.455 308.245,505.33 L308.245,503.26 L309.545703,503.259328 C315.130918,503.253571 319.99,503.211786 321.745,503.17 C321.88,501.55 321.88,499.3 321.745,497.545 C319.353793,497.473621 315.632224,497.458853 311.52316,497.455797 L308.798085,497.455004 C308.614043,497.455 308.429655,497.455 308.245,497.455 C308.245,496.375 308.245,495.295 308.155,494.125 C306.58,493.945 302.26,493.99 301.045,494.125 C300.955,495.295 300.955,496.375 300.955,497.455 L300.526745,497.455069 L300.526745,497.455069 L299.678616,497.455613 C293.924145,497.461136 289.051477,497.503068 287.5,497.545 C287.32,499.21 287.32,501.325 287.5,503.17 C288.626957,503.240435 292.317127,503.255747 296.931204,503.259075 L300.955,503.26 L300.955,503.26 L300.955,505.285 C295.915,506.455 290.335,507.76 286.735,508.705 C286.825,510.685 287.455,512.98 288.4,514.285 Z M323.95,520.765 C324.13,519.01 324.13,516.715 323.95,515.14 C321.672308,515.091538 313.340651,515.043077 304.673778,515.036768 L300.955553,515.036768 C294.779882,515.041479 288.85,515.070769 285.25,515.14 C285.07,516.805 285.07,519.235 285.25,520.765 C287.705161,520.848226 295.335983,520.912211 303.214034,520.930268 L304.864865,520.933368 C305.415229,520.934171 305.965123,520.934742 306.512874,520.935078 L308.688474,520.935078 C315.875911,520.930661 322.285484,520.881129 323.95,520.765 Z M321.475,536.11 C321.55,534.885 321.625,532.090556 321.630556,529.208148 L321.630069,528.342269 C321.62375,526.322639 321.58,524.3325 321.475,522.88 C319.596118,522.776765 313.065817,522.73037 306.200272,522.727775 L304.611928,522.727948 C297.013517,522.732431 289.411176,522.788941 287.59,522.88 C287.41,524.59 287.41,526.885 287.59,528.595 C288.576538,528.634462 290.443575,528.650853 292.840449,528.65429 L294.836404,528.654497 C297.627405,528.651675 300.903235,528.637449 304.254898,528.623616 L305.766886,528.617457 L305.766886,528.617457 L306.776475,528.613499 L306.776475,528.613499 L307.784479,528.609741 C309.629534,528.60308 311.454227,528.597786 313.190512,528.595823 L314.128399,528.595094 C314.283116,528.595032 314.437,528.595 314.59,528.595 C314.59,531.34 314.5,533.815 314.59,536.11 C316.21,536.2 319.855,536.2 321.475,536.11 Z M172.03,575.93 C172.165,575.3 172.165,574.535 172.03,573.95 L163.84,573.86 C163.93,569.135 163.93,562.43 163.84,558.02 L166.036563,558.019297 C168.162813,558.017187 170.06125,558.00875 171.58,557.975 C171.715,557.345 171.715,556.58 171.58,555.995 C167.849688,555.930313 161.866992,555.896621 155.790448,555.893926 L154.204552,555.893926 C148.128008,555.896621 142.145313,555.930313 138.415,555.995 C138.28,556.58 138.28,557.345 138.415,557.975 C139.9,558.008 141.7238,558.0168 143.762173,558.019147 L146.065,558.02 L146.065,558.02 C145.975,562.43 145.975,569.135 146.065,573.86 L137.965,573.95 C137.83,574.535 137.83,575.3 137.965,575.93 C141.656875,575.97125 147.428438,575.993594 153.373307,575.997031 L156.621693,575.997031 C162.566563,575.993594 168.338125,575.97125 172.03,575.93 Z M161.59,573.86 L148.315,573.86 C148.405,569.135 148.405,562.43 148.315,558.02 C152.59,558.065 157.315,558.065 161.59,558.02 C161.5,562.43 161.5,569.135 161.59,573.86 Z M173.875,591.995 C174.01,591.32 174.01,590.555 173.875,589.925 C172.786,589.892 170.6564,589.8832 167.91212,589.880853 L165.11961,589.880002 C164.97905,589.88 164.8375,589.88 164.695,589.88 C164.712419,588.608387 164.729839,586.911967 164.739428,585.190097 L164.743533,584.32889 C164.74466,584.042347 164.745533,583.756946 164.746116,583.474535 L164.74666,582.230116 C164.744448,580.614448 164.729839,579.20629 164.695,578.405 C163.975,578.27 163.12,578.225 162.355,578.405 C162.305645,579.540161 162.283356,581.893273 162.288132,584.321469 L162.290942,585.179736 C162.298809,586.895062 162.320161,588.580806 162.355,589.835 L147.595,589.835 C147.612419,588.580806 147.629839,586.895062 147.639428,585.179736 L147.643533,584.321469 C147.64466,584.035799 147.645533,583.751168 147.646116,583.469437 L147.64666,582.227506 C147.644448,580.614448 147.629839,579.20629 147.595,578.405 C146.875,578.27 146.02,578.225 145.255,578.405 C145.205645,579.540161 145.183356,581.893273 145.188132,584.321469 L145.190942,585.179736 C145.198809,586.895062 145.220161,588.580806 145.255,589.835 C141.16,589.88 137.785,589.88 136.075,589.925 C135.94,590.555 135.94,591.23 136.075,591.995 C138.841706,592.056941 145.985102,592.099936 153.384614,592.110944 L154.524465,592.112383 C154.904719,592.112778 155.28509,592.113086 155.665023,592.113307 L158.497631,592.113307 C165.421639,592.109073 171.720294,592.073353 173.875,591.995 Z M180.49,568.145 C182.8336,567.4898 185.967472,566.594696 189.164566,565.665159 L190.5365,565.265276 C192.593848,564.664088 194.6344,564.0608 196.465,563.51 C201.415,564.95 208.165,566.75 212.35,567.875 C212.71,567.335 213.025,566.525 213.025,565.805 C209.02,564.68 202.405,562.835 197.59,561.62 C197.635,560.675 197.635,559.595 197.59,558.605 L198.211358,558.604998 L198.211358,558.604998 L201.8875,558.604297 C206.097813,558.602188 209.95375,558.59375 212.62,558.56 C212.755,557.93 212.755,557.12 212.62,556.535 C209.065,556.49 203.395,556.445 197.59,556.445 C197.635,555.14 197.635,553.43 197.545,552.35 C196.825,552.17 195.925,552.17 195.205,552.35 C195.115,553.43 195.115,555.14 195.16,556.445 C189.355,556.445 183.73,556.49 180.175,556.535 C180.04,557.12 180.04,557.93 180.175,558.56 C182.84125,558.59375 186.671875,558.602188 190.869531,558.604297 L194.538811,558.604998 C194.745587,558.605 194.952679,558.605 195.16,558.605 C195.115,559.595 195.115,560.72 195.16,561.665 C190.39,562.925 183.775,564.905 179.77,566.075 C179.815,566.795 180.13,567.605 180.49,568.145 Z M197.330412,593.621007 L198.309809,593.620146 C205.312352,593.611909 211.886705,593.544943 213.25,593.435 C213.385,592.805 213.385,591.995 213.25,591.365 L182.605,591.365 L182.605,586.955 L212.215,586.955 C212.395,585.065 212.395,580.115 212.215,578.225 C209.11,578.18 203.44,578.135 197.59,578.135 C197.635,576.65 197.635,575.03 197.59,573.68 L198.94596,573.679427 C205.2566,573.6742 211.285,573.635 215.275,573.635 C215.41,573.005 215.41,572.15 215.275,571.565 C206.41,571.43 187.375,571.43 177.475,571.565 C177.34,572.15 177.34,573.005 177.475,573.635 C181.725,573.676667 187.633951,573.718333 193.701509,573.724278 L195.16,573.725 L195.16,573.725 C195.115,575.03 195.115,576.65 195.16,578.135 C189.535,578.135 184,578.18 180.49,578.225 C180.31,578.675 180.31,579.755 180.49,580.385 L210.01,580.385 L210.01,584.705 L180.4,584.705 C180.175,587.405 180.265,591.14 180.4,593.435 C182.813125,593.554659 188.991432,593.612449 195.366495,593.620121 L196.348345,593.621007 C196.675825,593.621007 197.003341,593.621007 197.330412,593.621007 Z M264.1,566.345 C264.235,565.715 264.235,564.95 264.1,564.365 L256.135,564.275 C256.18,561.98 256.18,558.965 256.135,556.76 L256.715707,556.759987 L256.715707,556.759987 L258.401827,556.759147 C260.4072,556.7568 262.198,556.748 263.65,556.715 C263.785,556.085 263.785,555.32 263.65,554.735 C259.962813,554.670313 254.043906,554.636621 248.032012,554.633926 L246.462988,554.633926 C240.451094,554.636621 234.532187,554.670313 230.845,554.735 C230.71,555.32 230.71,556.085 230.845,556.715 C232.264,556.748 234.046,556.7568 236.03128,556.759147 L237.69772,556.759987 C237.8872,556.76 238.078,556.76 238.27,556.76 C238.225,558.965 238.225,561.98 238.27,564.275 L230.395,564.365 C230.26,564.95 230.26,565.715 230.395,566.345 C234.045625,566.38625 239.757031,566.408594 245.640169,566.412031 L248.854831,566.412031 C254.737969,566.408594 260.449375,566.38625 264.1,566.345 Z M253.795,564.275 L240.61,564.275 C240.655,561.98 240.655,558.965 240.61,556.76 C244.84,556.805 249.565,556.805 253.795,556.76 C253.75,558.965 253.75,561.98 253.795,564.275 Z M266.125,572.96 C266.26,572.33 266.26,571.475 266.125,570.89 C257.26,570.755 238.225,570.755 228.325,570.89 C228.19,571.475 228.19,572.33 228.325,572.96 C232.060849,573.010943 237.097517,573.029847 242.397637,573.031219 L243.994539,573.031119 C252.275317,573.028037 260.939811,572.986321 266.125,572.96 Z M248.180412,593.621007 L249.159809,593.620146 C256.162352,593.611909 262.736705,593.544943 264.1,593.435 C264.235,592.805 264.235,591.995 264.1,591.365 L233.455,591.365 L233.455,586.73 L263.065,586.73 C263.245,584.795 263.245,579.71 263.065,577.775 C256.54,577.64 239.035,577.64 231.34,577.775 C231.16,578.225 231.16,579.305 231.34,579.935 L260.86,579.935 L260.86,584.48 L231.25,584.48 C231.025,587.225 231.115,591.05 231.25,593.435 C233.663125,593.554659 239.841432,593.612449 246.216495,593.620121 L247.198345,593.621007 C247.525825,593.621007 247.853341,593.621007 248.180412,593.621007 L248.180412,593.621007 Z M306.22,578.675 C306.264262,577.037295 306.29764,571.873119 306.304076,566.624367 L306.304999,565.574509 C306.307678,560.504602 306.28418,555.570082 306.22,553.88 C305.59,553.7 304.645,553.7 303.925,553.88 C303.883,555.182 303.841,558.4048 303.835587,562.12152 L303.835,562.925 L303.835,562.925 C301.315,562.88 298.705,562.88 296.14,562.925 C296.14,559.01 296.095,555.41 296.05,554.105 C295.42,553.925 294.475,553.925 293.755,554.105 C293.62,557.255 293.62,573.095 293.755,576.11 C294.52,576.245 295.465,576.245 296.05,576.11 C296.09125,574.74875 296.1325,570.589375 296.139089,566.231484 L296.139897,565.437532 C296.139965,565.305035 296.14,565.1725 296.14,565.04 C298.705,565.085 301.315,565.085 303.835,565.04 L303.835825,568.633715 C303.835917,568.76545 303.836019,568.896861 303.836132,569.027888 L303.836956,569.809003 C303.842009,573.816266 303.860116,577.344884 303.925,578.675 C304.69,578.81 305.635,578.81 306.22,578.675 Z M288.76,573.95 C288.895,573.365 288.895,572.51 288.76,571.97 L273.145,571.97 L273.145,565.58 C274.02407,565.62186 276.139484,565.644251 278.585661,565.647171 L279.70571,565.647171 C279.958213,565.646879 280.212666,565.646393 280.468162,565.645711 L281.236875,565.643083 L281.236875,565.643083 L282.006417,565.639286 C283.798756,565.629064 285.553488,565.609302 286.96,565.58 C287.095,563.33 287.14,557.39 286.96,555.14 C285.37,555.125 283.425,555.11 281.423333,555.1 L280.419159,555.09544 L280.419159,555.09544 L279.413827,555.091852 C278.912253,555.090324 278.413353,555.089213 277.921787,555.088597 L276.005695,555.088955 C273.99625,555.092604 272.24125,555.1075 271.12,555.14 C270.985,555.77 270.985,556.535 271.12,557.165 C272.490455,557.185455 274.902231,557.196612 277.366412,557.198471 L278.843298,557.198471 C281.288884,557.196612 283.589091,557.185455 284.755,557.165 L284.755,563.555 C283.80325,563.53475 281.739775,563.523613 279.3847,563.521588 L277.78045,563.521588 C275.336275,563.523613 272.78275,563.53475 270.94,563.555 C270.856923,564.593462 270.812189,566.398787 270.805799,568.267526 L270.805799,569.203924 C270.812189,571.07426 270.856923,572.890769 270.94,573.95 C275.755,574.175 286.015,574.085 288.76,573.95 Z M273.37,593.705 C277.51,592.175 285.07,589.025 289.705,587.045 C294.43,588.98 301.9,591.95 306.04,593.39 C306.445,592.895 306.76,592.04 306.94,591.41 C302.89,589.745 295.6,586.955 290.875,585.155 C290.92,583.04 290.92,580.295 290.83,578 C290.11,577.82 289.21,577.82 288.49,578 C288.4,580.34 288.4,583.085 288.445,585.2 C286.439286,586.01 283.954184,587.010102 281.45019,588.023192 L280.19875,588.53 C277.285,589.71125 274.45,590.87 272.425,591.725 C272.605,592.355 273.01,593.21 273.37,593.705 Z M348.925,575.435 C349.06,574.805 349.06,573.95 348.925,573.365 C344.65,573.32 338.035,573.275 331.24,573.275 C331.285,571.565 331.285,569.54 331.24,567.695 L336.157013,567.694055 C340.358038,567.691576 344.195345,567.682586 346.9,567.65 C347.035,567.02 347.035,566.255 346.9,565.67 L338.935,565.58 C338.98,562.835 338.98,559.37 338.935,556.76 L339.515707,556.759987 L339.515707,556.759987 L341.201827,556.759147 C343.2072,556.7568 344.998,556.748 346.45,556.715 C346.585,556.085 346.585,555.32 346.45,554.735 C342.762812,554.670313 336.843906,554.636621 330.832012,554.633926 L329.262988,554.633926 C323.251094,554.636621 317.332188,554.670313 313.645,554.735 C313.51,555.32 313.51,556.085 313.645,556.715 C315.097,556.748 316.8636,556.7568 318.83832,556.759147 L320.49828,556.759987 C320.6874,556.76 320.878,556.76 321.07,556.76 C321.025,559.37 321.025,562.835 321.07,565.58 L313.195,565.67 C313.06,566.255 313.06,567.02 313.195,567.65 C315.899655,567.682586 319.736962,567.691576 323.920899,567.694055 L328.81,567.695 L328.81,567.695 C328.765,569.54 328.765,571.565 328.81,573.275 C322.24,573.275 315.715,573.32 311.125,573.365 C310.99,573.95 310.99,574.805 311.125,575.435 C314.860849,575.485943 319.897517,575.504847 325.197637,575.506219 L326.794539,575.506219 C335.075317,575.503037 343.739811,575.461321 348.925,575.435 Z M336.595,565.58 L323.41,565.58 C323.455,562.835 323.455,559.37 323.41,556.76 C327.64,556.805 332.365,556.805 336.595,556.76 C336.55,559.37 336.55,562.835 336.595,565.58 Z M346,593.435 C346.225,590.33 346.18,583.805 346,580.43 C343.596308,580.365615 337.364537,580.331937 330.956086,580.328966 L329.093914,580.328966 C322.685463,580.331937 316.453692,580.365615 314.05,580.43 C313.87,583.805 313.825,590.33 314.05,593.435 C319.09,593.75 340.96,593.75 346,593.435 Z M330.542397,591.466172 L329.507603,591.466172 C329.335206,591.466172 329.162913,591.466042 328.990826,591.465937 L327.961605,591.465 C322.494444,591.458333 317.45,591.425 316.21,591.365 L316.21,582.455 C317.48875,582.41375 322.813438,582.391406 328.475286,582.387969 L331.574714,582.387969 C337.236563,582.391406 342.56125,582.41375 343.84,582.455 L343.84,591.365 C342.6,591.425 337.555556,591.458333 332.088395,591.465 L331.059174,591.465937 C330.887087,591.466042 330.714794,591.466172 330.542397,591.466172 L330.542397,591.466172 Z" id="폭염및한파영향예측표출플랫폼"></path>
        </g>
    </g>
</svg>