<?xml version="1.0" encoding="UTF-8"?>
<svg width="306px" height="22px" viewBox="0 0 306 22" version="1.1" xmlns="http://www.w3.org/2000/svg" xmlns:xlink="http://www.w3.org/1999/xlink">
    <title>폭염및한파영향예측표출플랫폼</title>
    <g id="Symbols" stroke="none" stroke-width="1" fill="none" fill-rule="evenodd">
        <g id="01.-Layout-/-01.-TopBar-/-01.Dark-/-02.-폭염-수정" transform="translate(-28.000000, -22.000000)" fill="#FFFFFF" fill-rule="nonzero">
            <path d="M47.58,35.622 C47.668,34.764 47.668,33.642 47.58,32.872 C46.7088,32.8522 44.03778,32.8324 40.898094,32.828638 L40.1932124,32.8280725 C40.0746267,32.8280244 39.9555333,32.828 39.836,32.828 L39.836,31.464 L40.5612998,31.4635417 C43.1954306,31.4601806 45.523,31.4383333 46.612,31.398 C46.678,30.386 46.678,29.594 46.612,28.736 C46.018,28.714 45.028,28.714 43.796,28.692 L43.796,26.492 C44.896,26.47 45.82,26.47 46.392,26.448 C46.436,25.48 46.436,24.6 46.392,23.786 C45.5736,23.7508 43.35072,23.7332 40.74416,23.728976 L39.9517024,23.7281059 C39.6843936,23.7279583 39.4142688,23.7279583 39.1423488,23.7279583 L38.322224,23.7286719 C35.0283488,23.7327776 31.62296,23.75432 29.87,23.786 C29.804,24.6 29.804,25.59 29.87,26.448 C30.42,26.47 31.322,26.47 32.444,26.492 C32.444,27.218 32.444,28.01 32.466,28.692 C31.212,28.714 30.2,28.714 29.65,28.736 C29.584,29.594 29.584,30.496 29.65,31.398 C30.618,31.43672 32.8296864,31.4584032 35.3555314,31.4630496 L36.404,31.464 L36.404,31.464 L36.404,32.828 L35.9256965,32.8280064 L35.9256965,32.8280064 L34.0488549,32.8288019 C31.9072244,32.8310471 29.9730526,32.8395789 28.66,32.872 C28.572,33.686 28.572,34.874 28.66,35.622 C29.8441404,35.6621404 33.4909264,35.6931259 37.28692,35.702429 L38.1645141,35.7041852 C38.4572264,35.7046385 38.7497686,35.7049579 39.0410876,35.7052515 L39.9103224,35.7052515 C43.5080702,35.7039329 46.7501754,35.6798947 47.58,35.622 Z M35.678,28.692 L35.678,26.514 L40.562,26.514 C40.562,27.218 40.562,28.01 40.584,28.67 C38.978,28.67 37.262,28.67 35.678,28.692 Z M46.37,43.476 C46.436,42.398 46.502,38.724 46.37,36.898 C45.5012075,36.8502642 42.5981474,36.827387 39.4461878,36.823932 L37.788494,36.823932 C34.1885867,36.8275436 30.6673962,36.8548302 29.804,36.898 C29.716,37.734 29.716,38.856 29.804,39.692 C30.2915,39.7115 31.2187841,39.7194773 32.4088213,39.7210385 L33.2724959,39.721157 C35.7761116,39.7189876 39.1003626,39.6974483 41.9862097,39.6928577 L42.669751,39.6920999 C42.7820568,39.6920341 42.8935,39.692 43.004,39.692 C43.004,41.034 42.96,42.354 43.004,43.476 C43.334,43.4943333 43.835875,43.5050278 44.3663958,43.5080833 L45.0076042,43.5080833 C45.538125,43.5050278 46.04,43.4943333 46.37,43.476 Z M67.16,34.104 C67.1868889,33.2166667 67.1991715,31.7049136 67.2013108,30.0641381 L67.2014986,29.1593516 C67.1997147,27.0322222 67.1828148,24.842 67.16,23.61 C66.39,23.5 64.476,23.522 63.882,23.61 C63.8655,23.841 63.861375,24.183375 63.8603437,24.5907188 L63.86,25.018 L63.86,25.018 L63.5467188,25.0180302 L63.5467188,25.0180302 L62.9400741,25.0188148 C62.3517778,25.0204444 61.8286667,25.0253333 61.462,25.04 C61.396,25.876 61.396,27.152 61.462,27.988 C62.034,28.01 62.914,28.032 63.838,28.032 L63.838,29.572 L62.9237778,29.5728148 C62.342,29.5744444 61.8286667,29.5793333 61.462,29.594 C61.396,30.43 61.396,31.706 61.462,32.542 C62.034,32.564 62.936,32.586 63.86,32.586 L63.8603437,33.0428438 C63.861375,33.477 63.8655,33.84 63.882,34.104 C64.652,34.17 66.478,34.192 67.16,34.104 Z M54.994,33.554 C59.262,33.554 60.934,31.772 60.934,28.648 C60.934,25.546 59.262,23.742 54.994,23.742 C50.726,23.742 49.054,25.546 49.054,28.648 C49.054,31.772 50.726,33.554 54.994,33.554 Z M54.994,30.76 C52.97,30.76 52.244,30.056 52.244,28.648 C52.244,27.24 52.97,26.536 54.994,26.536 C56.974,26.536 57.744,27.24 57.744,28.648 C57.744,30.056 56.974,30.76 54.994,30.76 Z M67.16,43.476 C67.19872,42.75 67.2204032,41.3553056 67.2250496,39.8728717 L67.2250496,38.6521779 C67.2204032,37.1650976 67.19872,35.74872 67.16,34.984 C66.8729,34.9521 63.3633683,34.9304789 59.65948,34.9265889 L58.8913783,34.9259583 C58.6350822,34.9259583 58.3788549,34.9259583 58.1236897,34.9259583 L56.985968,34.926976 C53.98904,34.9312 51.3596,34.9488 50.814,34.984 C50.748,37.206 50.704,41.078 50.814,43.476 C51.594,43.546 54.7376364,43.5796364 58.0734215,43.5831074 L59.2788526,43.5831074 C62.8975345,43.5790909 66.4364,43.5408 67.16,43.476 Z M59.02,40.76725 L57.6279636,40.7670816 C55.9267604,40.7643934 54.4474737,40.7520526 54.048,40.726 C53.982,39.846 54.004,38.438 54.048,37.756 C54.774,37.734 56.9355,37.7175 59.0695,37.71475 L60.1886554,37.7146241 C61.9005536,37.7165675 63.4187059,37.7288235 63.926,37.756 C63.97,38.548 63.97,40.088 63.926,40.726 C63.464,40.748 61.2475,40.7645 59.02,40.76725 L59.02,40.76725 Z M92.02,34.324 C92.0459286,33.4683571 92.0582755,31.9981454 92.0610425,30.3842351 L92.06125,29.04125 C92.0585,26.932 92.042,24.798 92.02,23.61 C91.25,23.5 89.336,23.522 88.742,23.61 C88.712,24.37 88.6956364,26.2618182 88.6929091,28.2771901 L88.6929091,29.4931736 C88.6956364,31.5176364 88.712,33.464 88.742,34.324 C89.512,34.39 91.338,34.412 92.02,34.324 Z M85.574,32.608 C85.684,30.518 85.684,26.382 85.574,23.984 C83.902,23.896 75.718,23.896 74.354,23.984 C74.266,26.228 74.266,30.21 74.354,32.608 C76.07,32.718 84.1,32.696 85.574,32.608 Z M77.522,29.858 C77.478,29.066 77.478,27.526 77.522,26.734 C78.908,26.712 81.306,26.69 82.45,26.734 C82.494,27.526 82.494,29.088 82.45,29.858 C81.284,29.924 78.688,29.902 77.522,29.858 Z M75.828,43.674 C77.236,43.41 80.91,42.42 83.946,41.518 C86.916,42.354 90.59,43.256 92.042,43.52 C92.306,43.036 92.812,41.584 92.878,40.814 C91.622625,40.496375 89.8785234,40.0747656 88.0817798,39.6492568 L87.0991382,39.417376 C86.6078281,39.3018438 86.1185,39.187375 85.64,39.076 L85.64,38.13 L86.6239342,38.1292154 C89.206716,38.1251111 91.4186667,38.1055556 92.24,38.086 C92.306,37.316 92.306,36.26 92.24,35.424 C91.1754444,35.3922222 89.5715494,35.3833951 87.7763992,35.3809431 L86.0751564,35.3800075 C85.9305494,35.38 85.7854444,35.38 85.64,35.38 C85.618,34.742 85.618,34.192 85.596,33.84 C84.826,33.752 82.802,33.774 82.208,33.84 C82.186,34.148 82.186,34.72 82.164,35.38 L81.8307058,35.3800832 L81.8307058,35.3800832 L81.1739549,35.3807306 C78.468477,35.3847143 76.1807857,35.4043571 75.454,35.424 C75.366,36.216 75.366,37.206 75.454,38.086 C75.9637931,38.1178621 77.592604,38.1266516 79.6554173,38.1290763 L82.164,38.13 L82.164,38.13 L82.164,39.054 C79.634,39.692 76.774,40.44 74.97,40.902 C74.992,41.606 75.52,43.168 75.828,43.674 Z M111.358,27.79 C111.424,27.042 111.402,25.788 111.358,25.018 C110.478,24.996 108.762,24.974 106.87,24.974 C106.892,24.38 106.87,23.764 106.848,23.28 C105.968,23.148 103.988,23.148 103.394,23.28 C103.35,23.764 103.35,24.402 103.35,24.974 L103.066648,24.9741042 L103.066648,24.9741042 L102.511975,24.9749124 C100.51105,24.97928 98.8972,24.99864 98.51,25.018 C98.422,25.832 98.422,26.954 98.51,27.79 C99.0580444,27.8085778 101.092518,27.8193116 103.404579,27.8222015 L106.0126,27.8222015 C108.36512,27.8193116 110.549867,27.8085778 111.358,27.79 Z M116.11,38.9 C116.12925,38.0915 116.1485,36.1039375 116.153012,33.7921328 L116.153887,33.1235327 C116.153962,33.010875 116.154,32.8976667 116.154,32.784 C117.034,32.784 117.694,32.762 118.046,32.718 C118.112,31.882 118.112,30.584 118.046,29.748 C117.584,29.726 116.924,29.704 116.154,29.704 C116.132,27.042 116.132,24.6 116.11,23.61 C115.34,23.5 113.426,23.522 112.832,23.61 C112.80164,24.37912 112.785246,27.2756664 112.782817,30.3638208 L112.782817,31.9822352 C112.785246,35.0784856 112.80164,38.02968 112.832,38.9 C113.602,38.966 115.428,38.988 116.11,38.9 Z M105.11,36.766 C109.598,36.766 111.248,35.776 111.248,32.608 C111.248,29.44 109.598,28.45 105.11,28.45 C100.622,28.45 98.972,29.44 98.972,32.608 C98.972,35.776 100.622,36.766 105.11,36.766 Z M105.11,34.17 C102.69,34.17 102.052,33.774 102.052,32.608 C102.052,31.442 102.69,31.046 105.11,31.046 C107.53,31.046 108.168,31.442 108.168,32.608 C108.168,33.774 107.53,34.17 105.11,34.17 Z M116.484,43.476 C116.572,42.662 116.572,41.408 116.484,40.616 C115.870047,40.5996279 114.57075,40.5923937 112.930658,40.5908973 L111.642074,40.5907977 C111.530264,40.5908702 111.41746,40.5909618 111.303745,40.5910716 L110.6112,40.5919433 C109.675031,40.5933799 108.691349,40.5958791 107.703221,40.5990158 L106.961965,40.6014813 C105.727392,40.6057674 104.502698,40.6108837 103.372,40.616 C103.416,39.428 103.416,38.856 103.372,37.756 C102.58,37.69 100.776,37.69 100.094,37.756 C100.028,39.054 99.984,41.848 100.094,43.476 C101.03834,43.5278868 104.346955,43.5552987 107.763998,43.5582357 L108.99492,43.5582357 C112.405502,43.5552987 115.653811,43.5278868 116.484,43.476 Z M136.35,43.41 C136.389875,42.2735625 136.411682,38.9147168 136.41542,35.2492736 L136.416,34.104 L136.416,34.104 C137.34,34.104 138.022,34.082 138.374,34.038 C138.462,33.202 138.462,31.75 138.374,30.914 C137.89,30.892 137.23,30.87 136.416,30.87 L136.415121,29.7734635 C136.41063,27.0157692 136.388923,24.6414615 136.35,23.61 C135.58,23.5 133.644,23.478 133.05,23.61 C133.0188,24.8164 132.997433,28.7366327 132.99287,32.8048927 L132.992119,33.7451818 C132.991896,34.2154723 132.991903,34.6851059 132.992152,35.150141 L132.992976,36.072912 C132.9972,39.42536 133.0148,42.3892 133.05,43.41 C133.82,43.476 135.668,43.498 136.35,43.41 Z M131.906,41.936 C131.972,40.924 131.972,39.956 131.906,39.098 L129.948,39.054 C129.97,35.578 129.992,30.518 129.948,27.108 L131.73,27.064 C131.774,26.096 131.774,25.04 131.73,24.226 C130.560857,24.1757143 127.825673,24.1613469 125.014548,24.1705831 L124.170422,24.1740497 C122.343004,24.1830416 120.546457,24.2014857 119.19,24.226 C119.124,25.04 119.124,26.206 119.19,27.064 L120.906,27.108 C120.862,30.518 120.884,35.578 120.906,39.076 L120.27884,39.0765131 C119.784,39.0777959 119.359714,39.0822857 119.014,39.098 C118.948,39.956 118.948,41.034 119.014,41.936 C120.186387,41.9757419 122.3504,41.9975359 124.632666,42.0013819 L126.107534,42.0013819 C128.400377,41.9975359 130.624323,41.9757419 131.906,41.936 Z M124.096,39.054 C124.105625,37.523625 124.111039,35.6984844 124.112242,33.8457095 L124.112242,32.2570796 C124.111039,30.4103203 124.105625,28.61225 124.096,27.13 L126.758,27.13 C126.748375,28.61225 126.742961,30.4103203 126.741758,32.2552373 L126.741758,33.8417939 C126.742961,35.6915234 126.748375,37.51125 126.758,39.032 C125.878,39.032 124.976,39.032 124.096,39.054 Z M161.98,34.654 C162.00731,33.7527586 162.019553,32.1131962 162.021404,30.3323084 L162.021485,29.4328513 L162.021485,29.4328513 L162.019964,28.5264231 C162.015027,26.5669203 161.999724,24.6751034 161.98,23.61 C161.21,23.5 159.296,23.522 158.702,23.61 C158.68,23.918 158.68,24.402 158.68,25.018 L158.366719,25.0180302 L158.366719,25.0180302 L157.760074,25.0188148 C157.171778,25.0204444 156.648667,25.0253333 156.282,25.04 C156.216,25.876 156.216,27.152 156.282,27.988 C156.854,28.01 157.734,28.032 158.658,28.032 L158.658,29.902 L158.345473,29.9020302 L158.345473,29.9020302 L157.743778,29.9028148 C157.162,29.9044444 156.648667,29.9093333 156.282,29.924 C156.216,30.76 156.216,32.036 156.282,32.872 C156.854,32.894 157.756,32.916 158.68,32.916 L158.68003,33.1602936 L158.68003,33.1602936 L158.680815,33.6159259 C158.682444,34.0477778 158.687333,34.4046667 158.702,34.654 C159.472,34.72 161.298,34.742 161.98,34.654 Z M149.814,33.774 C153.95,33.774 155.754,32.014 155.754,28.758 C155.754,25.524 153.95,23.742 149.814,23.742 C145.678,23.742 143.874,25.524 143.874,28.758 C143.874,32.014 145.678,33.774 149.814,33.774 Z M149.814,31.002 C147.834,31.002 147.064,30.188 147.064,28.758 C147.064,27.328 147.834,26.514 149.814,26.514 C151.75,26.514 152.564,27.328 152.564,28.758 C152.564,30.188 151.75,31.002 149.814,31.002 Z M153.818,43.828 C160.33,43.828 162.354,42.64 162.354,39.384 C162.354,36.458 160.66,34.962 153.818,34.962 C147.306,34.962 145.282,36.15 145.282,39.384 C145.282,42.332 146.976,43.828 153.818,43.828 Z M154.121443,41.0112492 L153.818,41.012 C149.198,41.012 148.626,40.44 148.626,39.384 C148.626,38.284 149.176,37.778 153.818,37.778 C158.335333,37.778 158.982579,38.3248602 159.009114,39.3157523 L159.01,39.384 C159.01,40.4810667 158.484173,40.9892069 154.121443,41.0112492 Z M176.698,27.35 C176.764,26.602 176.742,25.348 176.698,24.578 C175.818,24.556 174.102,24.534 172.21,24.534 C172.21,24.094 172.21,23.654 172.188,23.28 C171.308,23.148 169.328,23.148 168.734,23.28 C168.712,23.654 168.69,24.094 168.69,24.534 L168.406648,24.5341042 L168.406648,24.5341042 L167.851975,24.5349124 C165.85105,24.53928 164.2372,24.55864 163.85,24.578 C163.762,25.392 163.762,26.514 163.85,27.35 C164.398044,27.3685778 166.432518,27.3793116 168.744579,27.3822015 L171.3526,27.3822015 C173.70512,27.3793116 175.889867,27.3685778 176.698,27.35 Z M181.45,35.754 C181.464667,35.4166667 181.469556,34.962 181.471185,34.4225926 L181.472,33.554 L181.472,33.554 C182.374,33.554 183.034,33.532 183.386,33.488 C183.452,32.652 183.452,31.442 183.386,30.606 C182.924,30.584 182.286,30.562 181.494,30.562 L181.494,28.054 C182.374,28.054 183.034,28.032 183.386,27.988 C183.452,27.152 183.452,25.942 183.386,25.106 C182.924,25.084 182.264,25.062 181.472,25.062 C181.472,24.49 181.45,23.984 181.45,23.61 C180.68,23.5 178.766,23.522 178.172,23.61 C178.140737,24.402 178.124283,26.7439945 178.122637,29.19095 L178.122637,30.0085071 C178.124283,32.4609474 178.140737,34.8577895 178.172,35.754 C178.942,35.82 180.768,35.842 181.45,35.754 Z M170.45,35.248 C174.74,35.248 176.588,34.346 176.588,31.574 C176.588,28.912 174.938,27.9 170.45,27.9 C166.16,27.9 164.312,28.802 164.312,31.574 C164.312,34.236 165.962,35.248 170.45,35.248 Z M170.45,32.674 C168.118,32.674 167.392,32.3 167.392,31.574 C167.392,30.87 168.03,30.496 170.45,30.496 C172.782,30.496 173.508,30.87 173.508,31.574 C173.508,32.3 172.87,32.674 170.45,32.674 Z M173.288,43.828 C179.8,43.828 181.824,42.816 181.824,39.956 C181.824,37.404 180.13,36.106 173.288,36.106 C166.776,36.106 164.752,37.118 164.752,39.956 C164.752,42.53 166.446,43.828 173.288,43.828 Z M173.591443,41.0994776 L173.288,41.1 C168.646,41.1 168.096,40.704 168.096,39.956 C168.096,39.186 168.646,38.834 173.288,38.834 C177.93,38.834 178.48,39.23 178.48,39.956 C178.48,40.7304 177.954173,41.0841383 173.591443,41.0994776 L173.591443,41.0994776 Z M202.702,43.41 C202.720741,42.2761852 202.731499,39.0151228 202.734276,35.4321129 L202.734955,34.0176397 C202.735,33.7014412 202.735,33.3845889 202.734955,33.0682698 L202.734276,31.6524385 C202.731499,28.0638759 202.720741,24.7812963 202.702,23.61 C202.042,23.478 200.15,23.478 199.556,23.61 C199.545579,24.7042105 199.535158,28.607169 199.531752,32.6953681 L199.531113,33.6058398 C199.531027,33.7577378 199.530951,33.9096234 199.530886,34.0613632 L199.530943,36.7481473 C199.531019,36.8933396 199.531108,37.0375864 199.53121,37.1807544 L199.531983,38.025751 C199.534792,40.5155069 199.542105,42.5693684 199.556,43.41 C200.326,43.454 202.108,43.498 202.702,43.41 Z M198.456,43.212 C198.467815,41.806037 198.485975,37.0879877 198.490034,32.5914255 L198.490222,29.4237037 C198.487778,26.8268889 198.478,24.644 198.456,23.72 C197.796,23.61 195.904,23.588 195.31,23.72 C195.288,24.27 195.288,25.48 195.266,27.042 C194.562,27.02 193.814,27.02 193.198,27.042 C192.516,24.578 191.174,23.72 188.996,23.72 C185.564,23.72 184.178,25.832 184.178,33.092 C184.178,40.352 185.564,42.464 188.996,42.464 C191.35,42.464 192.736,41.474 193.374,38.504 C193.946,38.504 194.606,38.504 195.266,38.482 L195.266706,39.1559076 C195.270632,41.0239446 195.290316,42.5230526 195.31,43.212 C196.08,43.278 197.862,43.278 198.456,43.212 Z M188.996,39.384 C187.746041,39.384 187.403863,38.5395519 187.390418,33.4177153 L187.39,33.092 C187.39,27.68 187.72,26.8 188.996,26.8 C190.245959,26.8 190.567025,27.6444481 190.57961,32.7662847 L190.58,33.092 C190.58,38.504 190.272,39.384 188.996,39.384 Z M195.244,35.402 C194.738,35.402 194.21,35.38 193.748,35.402 C193.77,34.698 193.792,33.928 193.792,33.092 C193.792,31.992 193.77,31.002 193.704,30.144 C194.188,30.144 194.738,30.144 195.266,30.122 C195.244,31.816 195.244,33.642 195.244,35.402 Z M205.98,32.806 C207.366,32.586 210.996,31.706 213.944,30.892 C214.594222,31.0631111 215.278123,31.2374815 215.964318,31.4073855 L216.650115,31.5755145 C218.816864,32.1013964 220.901704,32.5566667 221.908,32.696 C222.326,31.926 222.59,30.936 222.656,29.99 C221.3492,29.6834667 219.533662,29.2822844 217.686575,28.8732148 L216.678812,28.6498252 C216.34376,28.5754489 216.010533,28.5013333 215.682,28.428 L215.682,27.416 L216.665934,27.4152154 C219.248716,27.4111111 221.460667,27.3915556 222.282,27.372 C222.348,26.58 222.348,25.48 222.282,24.622 C221.217444,24.5902222 219.613549,24.5813951 217.818399,24.5789431 L215.682,24.578 L215.682,24.578 C215.682,24.05 215.682,23.522 215.638,22.95 C214.868,22.862 212.756,22.884 212.162,22.95 C212.118,23.522 212.118,24.05 212.118,24.578 L211.143451,24.5787306 C208.484324,24.5827143 206.266786,24.6023571 205.54,24.622 C205.452,25.436 205.452,26.47 205.54,27.372 C206.049793,27.4038621 207.632459,27.4126516 209.653105,27.4150763 L212.118,27.416 L212.118,27.416 L212.118,28.406 C209.654,28.978 206.926,29.616 205.166,30.078 C205.21,31.046 205.518,32.168 205.98,32.806 Z M223.36,35.974 C223.448,35.116 223.448,33.994 223.36,33.224 C222.289071,33.2012143 218.480602,33.1784286 214.421599,33.1739746 L211.89207,33.1737266 C208.954813,33.1765625 206.156,33.191 204.44,33.224 C204.352,34.038 204.352,35.226 204.44,35.974 C205.62414,36.0141404 209.270926,36.0451259 213.06692,36.054429 L213.944514,36.0561852 C214.237226,36.0566385 214.529769,36.0569579 214.821088,36.0571375 L215.690322,36.0572515 C219.28807,36.0559329 222.530175,36.0318947 223.36,35.974 Z M222.15,43.476 C222.216,42.398 222.282,38.834 222.15,37.008 C221.281208,36.9602642 218.378147,36.937387 215.226188,36.933932 L213.568494,36.933932 C209.968587,36.9375436 206.447396,36.9648302 205.584,37.008 C205.496,37.844 205.496,38.966 205.584,39.802 C206.0715,39.8215 206.998784,39.8294773 208.188821,39.8310385 L209.052496,39.831157 C211.556112,39.8289876 214.880363,39.8074483 217.76621,39.8028577 L218.449751,39.8020999 C218.562057,39.8020341 218.6735,39.802 218.784,39.802 C218.784,41.144 218.74,42.354 218.784,43.476 C219.114,43.4943333 219.615875,43.5050278 220.146396,43.5080833 L220.787604,43.5080833 C221.318125,43.5050278 221.82,43.4943333 222.15,43.476 Z M247.34,35.006 C247.406,33.994 247.406,32.982 247.34,32.124 C246.724,32.102 245.624,32.08 244.282,32.08 L244.282,27.328 C245.514,27.328 246.526,27.306 247.12,27.284 C247.164,26.316 247.164,25.216 247.12,24.402 C246.277529,24.3657647 243.916907,24.3481799 241.176252,24.3446379 L240.38385,24.3439583 C240.116924,24.3439583 239.847535,24.3439583 239.576665,24.3441105 L238.760596,24.3449334 C235.486415,24.3496263 232.140588,24.3709412 230.422,24.402 C230.356,25.216 230.356,26.426 230.422,27.284 C230.994,27.306 231.984,27.328 233.238,27.328 L233.238815,28.8777778 C233.240444,29.9777778 233.245333,31.156 233.26,32.08 C231.896,32.102 230.796,32.102 230.202,32.124 C230.136,32.982 230.136,34.104 230.202,35.006 C231.361915,35.0453191 234.340131,35.0670702 237.53337,35.0712531 L239.829184,35.0712531 C243.033926,35.0670702 246.071957,35.0453191 247.34,35.006 Z M236.538,32.08 L236.538,27.35 L240.982,27.35 L240.982344,28.4847188 C240.983375,29.682 240.9875,31.0185 241.004,32.058 C239.53,32.058 237.99,32.058 236.538,32.08 Z M248.22,42.882 C248.308,41.958 248.308,40.836 248.22,40.022 C247.841875,40.006875 247.131,40.0021484 246.18746,40.0006714 L245.070659,40.0000054 C244.970703,40 244.869125,40 244.766,40 C244.788,38.592 244.766,36.986 244.744,36.216 C244.084,36.128 242.236,36.128 241.422,36.216 C241.406769,36.8252308 241.402083,37.7613373 241.400641,38.7177214 L241.4,39.978 L241.4,39.978 L236.098,39.978 L236.09799,39.6695093 L236.09799,39.6695093 L236.097359,38.7177214 C236.095917,37.7613373 236.091231,36.8252308 236.076,36.216 C235.262,36.128 233.414,36.128 232.754,36.216 C232.732,36.986 232.71,38.57 232.732,39.978 L229.3,40.022 C229.212,40.88 229.212,42.09 229.3,42.882 C230.48414,42.9221404 234.130926,42.9531259 237.92692,42.962429 L238.804514,42.9641852 C239.097226,42.9646385 239.389769,42.9649579 239.681088,42.9651375 L240.550322,42.9652515 C244.14807,42.9639329 247.390175,42.9398947 248.22,42.882 Z M250.904,31.31 C252.312,31.222 256.074,30.694 259.11,30.144 C262.058,30.628 265.754,31.134 267.184,31.222 C267.536,30.408 267.624,29.418 267.646,28.472 L260.782,27.592 L260.782,26.954 L261.765934,26.9532154 C264.348716,26.9491111 266.560667,26.9295556 267.382,26.91 C267.448,26.118 267.448,25.15 267.382,24.292 C266.317444,24.2602222 264.713549,24.2513951 262.918399,24.2489431 L261.217156,24.2480075 C261.072549,24.248 260.927444,24.248 260.782,24.248 C260.782,23.83 260.782,23.434 260.738,22.84 C259.968,22.752 257.856,22.774 257.262,22.84 C257.218,23.412 257.218,23.83 257.218,24.248 L256.889582,24.2480832 L256.889582,24.2480832 L256.243451,24.2487306 C253.584324,24.2527143 251.366786,24.2723571 250.64,24.292 C250.552,25.106 250.552,26.008 250.64,26.91 C251.149793,26.9418621 252.732459,26.9506516 254.753105,26.9530763 L257.218,26.954 L257.218,26.954 L257.218,27.592 C254.776,27.944 252.114,28.34 250.376,28.56 C250.332,29.572 250.508,30.606 250.904,31.31 Z M267.69,43.476 C267.734,42.772 267.778,41.76 267.69,41.034 L254.072,41.034 L254.072,40.418 L267.184,40.418 C267.294,39.472 267.294,35.864 267.184,35.006 C265.886,34.984 263.532,34.962 260.716,34.962 L260.716,34.148 L261.758087,34.147362 C264.957582,34.1433299 267.704903,34.1196129 268.46,34.06 C268.548,33.202 268.548,32.366 268.46,31.596 C267.389071,31.5732143 263.580602,31.5504286 259.521599,31.5459746 L256.99207,31.5457266 C254.054812,31.5485625 251.256,31.563 249.54,31.596 C249.452,32.41 249.452,33.312 249.54,34.06 C250.64,34.104 253.83,34.126 257.284,34.148 C257.284,34.434 257.284,34.698 257.306,34.962 C255.172,34.962 252.928,34.984 250.794,35.006 C250.706,35.512 250.706,36.744 250.794,37.47 L263.862,37.47 L263.862,38.086 L250.75,38.086 C250.618,40.11 250.662,42.266 250.75,43.476 C251.956857,43.5325714 254.978041,43.5608571 258.149312,43.5660525 L260.135851,43.56634 C263.692622,43.5616148 267.000536,43.5290357 267.69,43.476 Z M292.352,30.518 C292.418,29.506 292.418,28.824 292.352,27.966 C291.758,27.944 290.768,27.944 289.536,27.922 L289.536,26.382 C290.636,26.36 291.56,26.36 292.132,26.338 C292.176,25.37 292.176,24.6 292.132,23.786 C291.3136,23.7508 289.09072,23.7332 286.48416,23.728976 L285.691702,23.7281059 C285.424394,23.7279583 285.154269,23.7279583 284.882349,23.7279583 L284.062224,23.7286719 C280.768349,23.7327776 277.36296,23.75432 275.61,23.786 C275.544,24.6 275.544,25.48 275.61,26.338 C276.16,26.36 277.062,26.36 278.184,26.382 L278.184,27.922 C276.952,27.944 275.94,27.944 275.39,27.966 C275.324,28.824 275.324,29.616 275.39,30.518 C276.57513,30.5581739 279.621798,30.5800076 282.853363,30.5835009 L284.70851,30.5835009 C287.949681,30.5800076 291.056391,30.5581739 292.352,30.518 Z M281.418,27.922 L281.418,26.404 L286.302,26.404 L286.302,27.9 C284.718,27.9 283.002,27.9 281.418,27.922 Z M293.32,33.95 C293.408,33.092 293.408,32.146 293.32,31.376 C292.249071,31.3532143 288.440602,31.3304286 284.381599,31.3259746 L281.85207,31.3257266 C278.914813,31.3285625 276.116,31.343 274.4,31.376 C274.312,32.19 274.312,33.202 274.4,33.95 C275.58414,33.9901404 279.230926,34.0211259 283.02692,34.030429 L283.904514,34.0321852 C284.197226,34.0326385 284.489769,34.0329579 284.781088,34.0331375 L285.650322,34.0332515 C289.24807,34.0319329 292.490175,34.0078947 293.32,33.95 Z M292.55,43.476 C292.594,42.772 292.638,41.76 292.55,41.034 L278.932,41.034 L278.932,40.33 L292.044,40.33 C292.154,39.384 292.154,35.688 292.044,34.83 C290.814,34.8 288.638545,34.7836364 286.030033,34.7809091 L284.417058,34.7809091 C282.898376,34.7824091 281.279694,34.7880341 279.646262,34.7977841 L278.308256,34.8066818 C278.010959,34.8088636 277.713942,34.8111818 277.417719,34.8136364 L276.531942,34.8214091 C276.237818,34.8241364 275.945,34.827 275.654,34.83 C275.566,35.336 275.566,36.568 275.654,37.294 L288.722,37.294 L288.722,37.998 L275.61,37.998 C275.478,40.022 275.522,42.266 275.61,43.476 C276.816857,43.5325714 279.838041,43.5608571 283.009312,43.5660525 L284.995851,43.56634 C288.552622,43.5616148 291.860536,43.5290357 292.55,43.476 Z M313.142,35.93 C313.160333,35.0958333 313.171028,33.1425694 313.174083,31.012338 L313.174898,30.1530403 C313.175,29.8649504 313.175,29.5759477 313.174898,29.2882653 L313.174083,28.431412 C313.171028,26.3103472 313.160333,24.3891667 313.142,23.61 C312.482,23.5 310.612,23.5 310.018,23.61 C310.018,24.0793333 310.000617,25.3308889 309.996754,26.8856763 L309.996,27.482 L309.996,27.482 L308.566,27.482 C308.566,25.854 308.544,24.424 308.522,23.72 C307.862,23.632 306.014,23.61 305.42,23.72 C305.354,25.15 305.332,32.674 305.42,34.676 C306.19,34.742 307.928,34.742 308.522,34.676 L308.522842,34.3611488 C308.526872,33.4887612 308.544,31.9997647 308.544,30.408 L309.996,30.408 L309.996709,32.5871694 C309.998227,34.0659091 310.003,35.315 310.018,35.93 C310.788,35.974 312.548,36.018 313.142,35.93 Z M304.386,34.5 C304.43,33.708 304.452,32.542 304.386,31.794 L298.16,31.794 L298.16,30.474 C298.755833,30.4923333 299.523542,30.5030278 300.32467,30.5060833 L301.293205,30.5060833 C302.098917,30.5030278 302.882667,30.4923333 303.506,30.474 C303.537565,29.9163478 303.559066,28.6743251 303.563283,27.4025472 L303.563825,26.7098338 C303.561728,25.5635085 303.544261,24.4909565 303.506,23.984 C302.978,23.9657931 301.681543,23.9551201 300.246359,23.951981 L298.425679,23.951981 C296.984216,23.9551201 295.666414,23.9657931 295.102,23.984 C295.014,24.798 295.014,25.876 295.102,26.69 C296.95,26.712 298.776,26.712 300.36,26.69 L300.36,28.01 C299.830625,28.000375 298.98543,27.9949609 298.09523,27.9937578 L297.327497,27.9937578 C296.433688,27.9949609 295.57225,28.000375 295.014,28.01 C294.973385,28.4263077 294.951515,29.5830651 294.948391,30.8270614 L294.948391,31.4533054 C294.951515,32.7082367 294.973385,33.9415385 295.014,34.5 C296.554,34.588 303.022,34.566 304.386,34.5 Z M296.774,43.674 C298.16,43.212 301.658,41.914 304.628,40.682 C307.598,41.87 311.03,43.102 312.504,43.564 C312.834,43.058 313.494,41.54 313.582,40.77 C311.8,40.11 308.896,39.076 306.3,38.152 C306.322,37.382 306.3,36.568 306.256,35.578 C305.486,35.49 303.462,35.512 302.868,35.578 C302.824,36.568 302.802,37.404 302.824,38.196 C302.377529,38.3707059 301.920782,38.5481522 301.461496,38.725921 L300.54183,39.081172 C298.7049,39.7896678 296.909882,40.4775294 295.652,40.99 C295.74,41.738 296.422,43.168 296.774,43.674 Z M333.8,35.358 C333.888,34.5 333.888,33.378 333.8,32.608 C332.9288,32.5882 330.25778,32.5684 327.118094,32.564638 L326.413212,32.5640725 C326.294627,32.5640244 326.175533,32.564 326.056,32.564 L326.056,31.244 L326.7813,31.2435417 C329.415431,31.2401806 331.743,31.2183333 332.832,31.178 C332.898,30.166 332.898,29.374 332.832,28.516 C332.238,28.494 331.248,28.494 330.016,28.472 L330.016,26.492 C331.116,26.47 332.04,26.47 332.612,26.448 C332.656,25.48 332.656,24.6 332.612,23.786 C331.7936,23.7508 329.57072,23.7332 326.96416,23.728976 L326.171702,23.7281059 C325.904394,23.7279583 325.634269,23.7279583 325.362349,23.7279583 L324.542224,23.7286719 C321.248349,23.7327776 317.84296,23.75432 316.09,23.786 C316.024,24.6 316.024,25.59 316.09,26.448 C316.64,26.47 317.542,26.47 318.664,26.492 C318.664,27.13 318.664,27.856 318.686,28.472 C317.432,28.494 316.42,28.494 315.87,28.516 C315.804,29.374 315.804,30.276 315.87,31.178 C316.838,31.21672 319.049686,31.2384032 321.575531,31.2430496 L322.624,31.244 L322.624,31.244 L322.624,32.564 L322.145696,32.5640064 L322.145696,32.5640064 L320.268855,32.5648019 C318.127224,32.5670471 316.193053,32.5755789 314.88,32.608 C314.792,33.422 314.792,34.61 314.88,35.358 C316.06414,35.3981404 319.710926,35.4291259 323.50692,35.438429 L324.384514,35.4401852 C324.677226,35.4406385 324.969769,35.4409579 325.261088,35.4412515 L326.130322,35.4412515 C329.72807,35.4399329 332.970175,35.4158947 333.8,35.358 Z M321.898,28.472 L321.898,26.514 L326.782,26.514 C326.782,27.152 326.782,27.834 326.804,28.45 C325.198,28.45 323.482,28.45 321.898,28.472 Z M332.59,43.476 C332.678,41.826 332.678,38.504 332.59,36.546 C332.062,36.5271429 329.20649,36.5163673 326.008087,36.5136735 L322.768892,36.5136735 C319.562408,36.5163673 316.674571,36.5271429 316.09,36.546 C316.024,38.35 315.98,41.738 316.09,43.476 C316.884444,43.5472963 320.116732,43.5808697 323.527417,43.5832693 L324.34825,43.5832693 C328.047,43.5805 331.743,43.542 332.59,43.476 Z M324.373,40.87725 L323.0068,40.877184 C321.22216,40.87472 319.6628,40.8624 319.258,40.836 L319.258,39.208 C319.797314,39.1916571 321.168247,39.1844196 322.74175,39.1829054 L323.855732,39.1827299 C326.243153,39.1841143 328.7532,39.1960571 329.422,39.208 L329.422,40.836 C328.96,40.858 326.672,40.8745 324.373,40.87725 L324.373,40.87725 Z" id="폭염및한파영향예측표출플랫폼"></path>
        </g>
    </g>
</svg>