<?xml version="1.0" encoding="UTF-8"?>
<svg width="347px" height="22px" viewBox="0 0 347 22" version="1.1" xmlns="http://www.w3.org/2000/svg" xmlns:xlink="http://www.w3.org/1999/xlink">
    <!-- Generator: Sketch 64 (93537) - https://sketch.com -->
    <title>logo</title>
    <desc>Created with Sketch.</desc>
    <g id="Symbols" stroke="none" stroke-width="1" fill="none" fill-rule="evenodd">
        <g id="01.-Layout-/-01.-TopBar-/-01.Dark-/-02.-폭염-수정" transform="translate(-28.000000, -22.000000)" fill="#FFFFFF" fill-rule="nonzero">
            <path d="M47.58,35.622 C47.668,34.764 47.668,33.642 47.58,32.872 C46.612,32.85 43.422,32.828 39.836,32.828 L39.836,31.464 L40.5566782,31.4635417 C43.1769444,31.4601806 45.523,31.4383333 46.612,31.398 C46.678,30.386 46.678,29.594 46.612,28.736 C46.018,28.714 45.006,28.714 43.774,28.692 C43.774,27.966 43.796,27.262 43.796,26.492 C44.896,26.492 45.82,26.47 46.392,26.448 C46.436,25.48 46.436,24.6 46.392,23.786 C44.346,23.698 33.522,23.72 29.87,23.786 C29.804,24.6 29.804,25.59 29.87,26.448 C30.398,26.47 31.322,26.492 32.444,26.492 C32.422,27.218 32.444,28.01 32.444,28.692 C31.212,28.714 30.2,28.736 29.65,28.736 C29.584,29.594 29.584,30.496 29.65,31.398 C30.75,31.442 33.456,31.464 36.404,31.464 L36.404,32.828 C33.346,32.828 30.42,32.85 28.66,32.872 C28.572,33.686 28.572,34.874 28.66,35.622 C31.256,35.71 45.688,35.754 47.58,35.622 Z M40.562,28.692 L35.656,28.692 C35.656,27.966 35.678,27.262 35.678,26.514 L40.562,26.514 C40.54,27.218 40.562,28.01 40.562,28.692 Z M46.37,43.476 C46.436,42.398 46.502,38.724 46.37,36.898 C44.368,36.788 31.564,36.81 29.804,36.898 C29.716,37.734 29.716,38.856 29.804,39.692 C31.454,39.758 38.142,39.692 43.004,39.692 C43.004,41.034 42.96,42.354 43.004,43.476 C43.796,43.52 45.578,43.52 46.37,43.476 Z M67.16,34.104 C67.226,31.926 67.204,25.986 67.16,23.61 C66.39,23.5 64.476,23.522 63.882,23.61 C63.86,23.918 63.86,24.424 63.838,25.018 C62.914,25.018 62.012,25.04 61.462,25.04 C61.396,25.876 61.396,27.152 61.462,27.988 C62.034,28.032 62.914,28.054 63.838,28.032 L63.838,29.572 C62.892,29.572 62.012,29.594 61.462,29.594 C61.396,30.43 61.396,31.706 61.462,32.542 C62.034,32.586 62.936,32.608 63.838,32.586 C63.86,33.224 63.86,33.752 63.882,34.104 C64.652,34.17 66.478,34.192 67.16,34.104 Z M54.994,33.554 C59.262,33.554 60.934,31.772 60.934,28.648 C60.934,25.546 59.262,23.742 54.994,23.742 C50.726,23.742 49.054,25.546 49.054,28.648 C49.054,31.772 50.726,33.554 54.994,33.554 Z M54.994,30.76 C52.97,30.76 52.244,30.056 52.244,28.648 C52.244,27.24 52.97,26.536 54.994,26.536 C56.974,26.536 57.744,27.24 57.744,28.648 C57.744,30.056 56.974,30.76 54.994,30.76 Z M67.16,43.476 C67.248,41.826 67.248,36.722 67.16,34.984 C66.566,34.918 52.178,34.896 50.814,34.984 C50.748,37.206 50.704,41.078 50.814,43.476 C52.53,43.63 65.686,43.608 67.16,43.476 Z M54.048,40.726 C53.982,39.846 54.004,38.438 54.048,37.756 C55.5,37.712 62.694,37.69 63.926,37.756 C63.97,38.548 63.97,40.088 63.926,40.726 C63.002,40.77 55.06,40.792 54.048,40.726 Z M92.02,34.324 C92.086,32.146 92.064,25.986 92.02,23.61 C91.25,23.5 89.336,23.522 88.742,23.61 C88.676,25.282 88.676,32.432 88.742,34.324 C89.512,34.39 91.338,34.412 92.02,34.324 Z M85.574,32.608 C85.684,30.518 85.684,26.382 85.574,23.984 C83.902,23.896 75.718,23.896 74.354,23.984 C74.266,26.228 74.266,30.21 74.354,32.608 C76.07,32.718 84.1,32.696 85.574,32.608 Z M77.522,29.858 C77.478,29.066 77.478,27.526 77.522,26.734 C78.908,26.712 81.306,26.69 82.45,26.734 C82.494,27.526 82.494,29.088 82.45,29.858 C81.284,29.924 78.688,29.902 77.522,29.858 Z M75.828,43.674 C77.214,43.41 80.91,42.42 83.924,41.518 C86.916,42.354 90.59,43.256 92.042,43.52 C92.306,43.036 92.812,41.584 92.878,40.814 C91.052,40.352 88.192,39.692 85.64,39.076 L85.64,38.13 L86.6181399,38.1292154 C89.1893333,38.1251111 91.4186667,38.1055556 92.24,38.086 C92.306,37.316 92.306,36.26 92.24,35.424 C90.744,35.402 88.258,35.38 85.64,35.38 C85.618,34.742 85.618,34.214 85.596,33.84 C84.826,33.752 82.802,33.774 82.208,33.84 C82.186,34.148 82.164,34.72 82.164,35.38 C79.04,35.38 76.268,35.402 75.454,35.424 C75.366,36.216 75.366,37.206 75.454,38.086 C76.158,38.13 78.996,38.152 82.164,38.152 L82.164,39.054 C79.612,39.692 76.752,40.418 74.97,40.902 C74.992,41.606 75.52,43.168 75.828,43.674 Z M111.358,27.79 C111.424,27.042 111.402,25.788 111.358,25.018 C110.478,24.996 108.762,24.974 106.87,24.974 C106.87,24.38 106.87,23.764 106.848,23.28 C105.968,23.148 103.988,23.148 103.394,23.28 C103.35,23.786 103.328,24.402 103.328,24.974 C100.974,24.974 98.928,24.996 98.51,25.018 C98.422,25.832 98.422,26.954 98.51,27.79 C99.808,27.834 109.444,27.834 111.358,27.79 Z M116.11,38.9 C116.132,37.976 116.154,35.49 116.154,32.784 C117.012,32.784 117.694,32.762 118.046,32.718 C118.112,31.882 118.112,30.584 118.046,29.748 C117.584,29.748 116.924,29.704 116.154,29.704 C116.132,27.042 116.132,24.6 116.11,23.61 C115.34,23.5 113.426,23.522 112.832,23.61 C112.766,25.282 112.766,37.008 112.832,38.9 C113.602,38.966 115.428,38.988 116.11,38.9 Z M105.11,36.766 C109.598,36.766 111.248,35.776 111.248,32.608 C111.248,29.44 109.598,28.45 105.11,28.45 C100.622,28.45 98.972,29.44 98.972,32.608 C98.972,35.776 100.622,36.766 105.11,36.766 Z M105.11,34.17 C102.69,34.17 102.052,33.774 102.052,32.608 C102.052,31.442 102.69,31.046 105.11,31.046 C107.53,31.046 108.168,31.442 108.168,32.608 C108.168,33.774 107.53,34.17 105.11,34.17 Z M116.484,43.476 C116.572,42.662 116.572,41.408 116.484,40.616 C114.834,40.572 108.234,40.594 103.372,40.616 C103.416,39.428 103.416,38.856 103.372,37.756 C102.58,37.69 100.776,37.69 100.094,37.756 C100.028,39.054 99.984,41.848 100.094,43.476 C102.096,43.586 114.724,43.586 116.484,43.476 Z M136.35,43.41 C136.394,42.134 136.416,38.196 136.416,34.104 C137.296,34.104 138.022,34.082 138.374,34.038 C138.462,33.202 138.462,31.75 138.374,30.914 C137.89,30.914 137.208,30.87 136.416,30.87 C136.394,27.658 136.372,24.798 136.35,23.61 C135.58,23.5 133.644,23.478 133.05,23.61 C132.984,26.162 132.962,40.858 133.05,43.41 C133.82,43.476 135.668,43.498 136.35,43.41 Z M131.906,41.936 C131.972,40.924 131.972,39.956 131.906,39.098 C131.4,39.098 130.718,39.076 129.948,39.054 C129.97,35.578 129.992,30.518 129.948,27.108 C130.63,27.108 131.246,27.086 131.73,27.064 C131.774,26.096 131.774,25.04 131.73,24.226 C129.684,24.138 122.842,24.16 119.19,24.226 C119.124,25.04 119.124,26.206 119.19,27.064 C119.63,27.086 120.224,27.108 120.906,27.108 C120.862,30.518 120.862,35.578 120.906,39.076 C120.136,39.076 119.476,39.098 119.014,39.098 C118.948,39.956 118.948,41.034 119.014,41.936 C121.61,42.024 129.068,42.024 131.906,41.936 Z M126.736,39.054 L124.096,39.054 C124.118,35.578 124.118,30.54 124.096,27.13 L126.736,27.13 L126.736,39.054 Z M162.002,43.41 C162.046,40.748 162.046,26.36 162.002,23.61 C161.342,23.478 159.45,23.478 158.856,23.61 C158.834,24.556 158.834,27.614 158.834,31.068 C158.482,31.046 158.13,31.046 157.756,31.046 C157.756,27.856 157.756,24.82 157.734,23.72 C157.074,23.61 155.182,23.588 154.588,23.72 C154.522,26.03 154.5,40.55 154.588,43.212 C155.358,43.278 157.14,43.278 157.734,43.212 C157.734,41.936 157.756,38.108 157.756,34.082 L158.834,34.082 C158.834,38.086 158.834,42.156 158.856,43.41 C159.626,43.454 161.408,43.498 162.002,43.41 Z M145.986,42.332 C146.668,41.056 147.702,38.966 148.758,36.7 C149.858,38.9 150.914,40.924 151.618,42.09 C152.432,41.87 153.708,41.144 154.258,40.594 C153.246,38.614 151.882,36.04 150.496,33.532 C150.54,31.574 150.518,28.978 150.496,27.152 C151.728,27.152 152.828,27.13 153.576,27.108 C153.642,26.338 153.642,25.062 153.576,24.226 C149.638,24.138 145.722,24.182 143.94,24.226 C143.852,25.018 143.852,26.228 143.94,27.108 C144.534,27.152 145.678,27.174 146.976,27.174 C146.954,28.912 146.954,31.486 146.976,33.488 C145.678,36.128 144.292,39.01 143.324,41.056 C143.896,41.518 145.282,42.178 145.986,42.332 Z M174.036,28.054 C174.102,27.284 174.102,26.052 174.036,25.216 L170.714,25.172 L170.713185,24.4134074 C170.711556,23.9228889 170.706667,23.478 170.692,23.17 C169.922,23.038 167.898,23.06 167.304,23.17 C167.282,23.632 167.26,24.402 167.26,25.172 C165.874,25.194 164.686,25.194 163.96,25.216 C163.872,26.008 163.872,27.174 163.96,28.054 C165.588,28.142 171.792,28.098 174.036,28.054 Z M182.462,43.41 C182.506,40.748 182.506,26.36 182.462,23.61 C181.802,23.478 179.91,23.478 179.316,23.61 C179.294,24.556 179.294,27.614 179.294,31.068 C178.92,31.046 178.502,31.046 178.084,31.046 L178.083269,28.0768388 C178.081727,26.1043061 178.076929,24.4664286 178.062,23.72 C177.402,23.61 175.51,23.588 174.916,23.72 C174.85,26.03 174.828,40.55 174.916,43.212 C175.686,43.278 177.468,43.278 178.062,43.212 C178.062,41.936 178.084,38.108 178.084,34.082 L179.294,34.082 C179.294,38.086 179.294,42.156 179.316,43.41 C180.086,43.454 181.868,43.498 182.462,43.41 Z M168.998,42.816 C172.65,42.816 173.86,40.836 173.86,35.886 C173.86,30.936 172.65,28.956 168.998,28.956 C165.346,28.956 164.136,30.936 164.136,35.886 C164.136,40.836 165.346,42.816 168.998,42.816 Z M168.998,40.044 C167.612,40.044 167.238,39.098 167.238,35.886 C167.238,32.674 167.612,31.728 168.998,31.728 C170.362,31.728 170.758,32.674 170.758,35.886 C170.758,39.098 170.362,40.044 168.998,40.044 Z M202.46,34.654 C202.526,32.476 202.504,25.986 202.46,23.61 C201.69,23.5 199.776,23.522 199.182,23.61 C199.16,23.918 199.16,24.402 199.138,25.018 C198.214,25.018 197.312,25.04 196.762,25.04 C196.696,25.876 196.696,27.152 196.762,27.988 C197.334,28.032 198.214,28.054 199.138,28.032 L199.138,29.902 C198.192,29.902 197.312,29.924 196.762,29.924 C196.696,30.76 196.696,32.036 196.762,32.872 C197.334,32.916 198.236,32.938 199.138,32.916 C199.16,33.664 199.16,34.28 199.182,34.654 C199.952,34.72 201.778,34.742 202.46,34.654 Z M190.294,33.774 C194.43,33.774 196.234,32.014 196.234,28.758 C196.234,25.524 194.43,23.742 190.294,23.742 C186.158,23.742 184.354,25.524 184.354,28.758 C184.354,32.014 186.158,33.774 190.294,33.774 Z M190.294,31.002 C188.314,31.002 187.544,30.188 187.544,28.758 C187.544,27.328 188.314,26.514 190.294,26.514 C192.23,26.514 193.044,27.328 193.044,28.758 C193.044,30.188 192.23,31.002 190.294,31.002 Z M194.298,43.828 C200.81,43.828 202.834,42.64 202.834,39.384 C202.834,36.458 201.14,34.962 194.298,34.962 C187.786,34.962 185.762,36.15 185.762,39.384 C185.762,42.332 187.456,43.828 194.298,43.828 Z M194.601443,41.0112492 L194.298,41.012 C189.780667,41.012 189.133421,40.4651398 189.106886,39.453682 L189.106,39.384 C189.106,38.284 189.656,37.778 194.298,37.778 C198.815333,37.778 199.462579,38.3248602 199.489114,39.3157523 L199.49,39.384 C199.49,40.4810667 198.964173,40.9892069 194.601443,41.0112492 L194.601443,41.0112492 Z M217.178,27.35 C217.244,26.602 217.222,25.348 217.178,24.578 C216.298,24.556 214.582,24.534 212.69,24.534 C212.69,24.094 212.69,23.654 212.668,23.28 C211.788,23.148 209.808,23.148 209.214,23.28 L209.148,24.534 C206.794,24.534 204.748,24.556 204.33,24.578 C204.242,25.392 204.242,26.514 204.33,27.35 C205.628,27.394 215.264,27.394 217.178,27.35 Z M221.93,35.754 C221.93,35.27 221.952,34.478 221.952,33.554 C222.81,33.554 223.514,33.532 223.866,33.488 C223.932,32.652 223.932,31.442 223.866,30.606 C223.404,30.606 222.744,30.562 221.974,30.562 L221.974,28.054 C222.832,28.054 223.514,28.032 223.866,27.988 C223.932,27.152 223.932,25.942 223.866,25.106 C223.404,25.106 222.744,25.062 221.952,25.062 C221.93,24.49 221.93,23.984 221.93,23.61 C221.16,23.5 219.246,23.522 218.652,23.61 C218.586,25.282 218.586,33.862 218.652,35.754 C219.422,35.82 221.248,35.842 221.93,35.754 Z M210.93,35.248 C215.22,35.248 217.068,34.346 217.068,31.574 C217.068,28.912 215.418,27.9 210.93,27.9 C206.64,27.9 204.792,28.802 204.792,31.574 C204.792,34.236 206.442,35.248 210.93,35.248 Z M210.93,32.674 C208.598,32.674 207.872,32.3 207.872,31.574 C207.872,30.87 208.51,30.496 210.93,30.496 C213.262,30.496 213.988,30.87 213.988,31.574 C213.988,32.3 213.35,32.674 210.93,32.674 Z M213.768,43.828 C220.28,43.828 222.304,42.816 222.304,39.956 C222.304,37.404 220.61,36.106 213.768,36.106 C207.256,36.106 205.232,37.118 205.232,39.956 C205.232,42.53 206.926,43.828 213.768,43.828 Z M214.071443,41.0994776 L213.768,41.1 C209.229156,41.1 208.602465,40.7214044 208.576854,40.0053447 L208.576,39.956 C208.576,39.186 209.126,38.834 213.768,38.834 C218.41,38.834 218.96,39.23 218.96,39.956 C218.96,40.7304 218.434173,41.0841383 214.071443,41.0994776 L214.071443,41.0994776 Z M243.182,43.41 C243.226,40.748 243.226,26.36 243.182,23.61 C242.522,23.478 240.63,23.478 240.036,23.61 C240.014,25.92 239.992,40.748 240.036,43.41 C240.806,43.454 242.588,43.498 243.182,43.41 Z M238.936,43.212 C238.958,40.594 239.002,26.492 238.936,23.72 C238.276,23.61 236.384,23.588 235.79,23.72 C235.768,24.27 235.746,25.48 235.746,27.042 C235.02,27.042 234.294,27.02 233.678,27.042 C232.996,24.578 231.654,23.72 229.476,23.72 C226.044,23.72 224.658,25.832 224.658,33.092 C224.658,40.352 226.044,42.464 229.476,42.464 C231.83,42.464 233.216,41.452 233.854,38.504 L235.724,38.504 C235.746,40.66 235.768,42.442 235.79,43.212 C236.56,43.278 238.342,43.278 238.936,43.212 Z M229.476,39.384 C228.226041,39.384 227.883863,38.5395519 227.870418,33.4177153 L227.87,33.092 C227.87,27.68 228.2,26.8 229.476,26.8 C230.752,26.8 231.06,27.68 231.06,33.092 C231.06,38.504 230.752,39.384 229.476,39.384 Z M235.724,35.402 L234.206,35.402 C234.25,34.698 234.272,33.928 234.272,33.092 C234.272,31.992 234.228,31.024 234.162,30.144 C234.668,30.166 235.196,30.144 235.724,30.144 L235.724,35.402 Z M262.652,35.094 C262.718,32.674 262.718,27.042 262.652,24.182 C261.794,24.116 260.144,24.116 259.286,24.182 C259.264,24.666 259.264,25.7 259.264,26.668 C256.866,26.646 251.938,26.646 249.518,26.668 C249.518,25.634 249.496,24.622 249.496,24.182 C248.748,24.116 246.988,24.094 246.13,24.182 C246.042,26.734 246.064,32.52 246.13,35.094 C247.912,35.248 261.09,35.204 262.652,35.094 Z M249.496,32.124 C249.496,31.662 249.518,30.76 249.518,29.726 C251.916,29.748 256.91,29.748 259.264,29.726 C259.264,30.738 259.286,31.684 259.286,32.124 C258.34,32.168 250.552,32.168 249.496,32.124 Z M263.84,42.882 C263.928,41.958 263.928,40.836 263.84,40.022 C262.872,40 259.682,39.978 256.096,39.978 C256.096,38.68 256.096,37.206 256.074,36.326 C255.26,36.216 253.368,36.194 252.708,36.326 C252.664,37.096 252.642,38.592 252.664,39.978 C249.628,39.978 246.68,40 244.92,40.022 C244.832,40.88 244.832,42.09 244.92,42.882 C247.516,42.97 261.948,43.014 263.84,42.882 Z M287.82,35.006 C287.886,33.994 287.886,32.982 287.82,32.124 C287.204,32.102 286.082,32.102 284.74,32.08 C284.762,30.606 284.762,28.824 284.74,27.328 C285.972,27.328 287.006,27.306 287.6,27.284 C287.644,26.316 287.644,25.216 287.6,24.402 C285.554,24.314 274.554,24.336 270.902,24.402 C270.836,25.216 270.836,26.426 270.902,27.284 C271.452,27.306 272.486,27.328 273.718,27.328 L273.718,32.08 C272.376,32.102 271.276,32.124 270.682,32.124 C270.616,32.982 270.616,34.104 270.682,35.006 C273.278,35.094 284.982,35.094 287.82,35.006 Z M281.462,32.08 L276.996,32.08 C277.018,30.606 277.018,28.846 276.996,27.35 L281.462,27.35 L281.462,32.08 Z M288.7,42.882 C288.788,41.958 288.788,40.836 288.7,40.022 C288.15,40 286.852,40 285.246,40 C285.246,38.592 285.246,36.986 285.224,36.216 C284.564,36.128 282.716,36.128 281.902,36.216 C281.858,37.118 281.858,38.658 281.88,39.978 L276.578,39.978 C276.578,38.658 276.578,37.118 276.556,36.216 C275.742,36.128 273.894,36.128 273.234,36.216 C273.212,36.986 273.19,38.57 273.212,39.978 L269.78,40.022 C269.692,40.88 269.692,42.09 269.78,42.882 C272.376,42.97 286.808,43.014 288.7,42.882 Z M291.384,31.31 C292.792,31.244 296.554,30.716 299.568,30.166 C302.538,30.628 306.212,31.134 307.664,31.222 C308.016,30.408 308.104,29.418 308.126,28.472 C306.366,28.274 303.704,27.9 301.262,27.592 L301.262,26.954 L302.24014,26.9532154 C304.811333,26.9491111 307.040667,26.9295556 307.862,26.91 C307.928,26.118 307.928,25.15 307.862,24.292 C306.366,24.27 303.88,24.248 301.262,24.248 C301.262,23.83 301.24,23.434 301.218,22.84 C300.448,22.752 298.336,22.774 297.742,22.84 C297.698,23.434 297.698,23.83 297.698,24.248 C294.64,24.248 291.912,24.27 291.12,24.292 C291.032,25.106 291.032,26.008 291.12,26.91 C291.802,26.954 294.596,26.976 297.698,26.976 L297.698,27.592 C295.256,27.944 292.594,28.34 290.856,28.56 C290.812,29.572 290.988,30.606 291.384,31.31 Z M308.17,43.476 C308.214,42.772 308.258,41.76 308.17,41.034 L294.552,41.034 L294.552,40.418 L307.664,40.418 C307.774,39.472 307.774,35.864 307.664,35.006 C306.366,34.984 303.99,34.962 301.196,34.962 L301.196,34.148 L302.238087,34.147362 C305.437582,34.1433299 308.184903,34.1196129 308.94,34.06 C309.028,33.202 309.028,32.366 308.94,31.596 C306.872,31.552 294.596,31.508 290.02,31.596 C289.932,32.41 289.932,33.312 290.02,34.06 C291.098,34.104 294.31,34.126 297.764,34.148 L297.764,34.962 L291.274,35.006 C291.186,35.512 291.186,36.744 291.274,37.47 L304.342,37.47 L304.342,38.086 L291.23,38.086 C291.098,40.11 291.142,42.266 291.23,43.476 C294.046,43.608 306.74,43.586 308.17,43.476 Z M332.832,30.518 C332.898,29.506 332.898,28.824 332.832,27.966 C332.238,27.944 331.226,27.944 330.016,27.922 L330.016,26.382 C331.116,26.382 332.04,26.36 332.612,26.338 C332.656,25.37 332.656,24.6 332.612,23.786 C330.566,23.698 319.742,23.72 316.09,23.786 C316.024,24.6 316.024,25.48 316.09,26.338 C316.618,26.36 317.542,26.382 318.664,26.382 L318.664,27.922 C317.432,27.944 316.42,27.966 315.87,27.966 C315.804,28.824 315.804,29.616 315.87,30.518 C318.466,30.606 329.994,30.606 332.832,30.518 Z M326.782,27.922 L321.898,27.922 L321.898,26.404 L326.782,26.404 L326.782,27.922 Z M333.8,33.95 C333.888,33.092 333.888,32.146 333.8,31.376 C331.732,31.332 319.456,31.288 314.88,31.376 C314.792,32.19 314.792,33.202 314.88,33.95 C317.476,34.038 331.908,34.082 333.8,33.95 Z M333.03,43.476 C333.074,42.772 333.118,41.76 333.03,41.034 L319.412,41.034 L319.412,40.33 L332.524,40.33 C332.634,39.384 332.634,35.688 332.524,34.83 C329.818,34.764 322.536,34.764 316.134,34.83 C316.046,35.336 316.046,36.568 316.134,37.294 L329.202,37.294 L329.202,37.998 L316.09,37.998 C315.958,40.022 316.002,42.266 316.09,43.476 C318.906,43.608 331.6,43.586 333.03,43.476 Z M353.622,35.93 C353.666,33.928 353.666,25.48 353.622,23.61 C352.962,23.5 351.092,23.5 350.498,23.61 C350.476,24.138 350.476,25.7 350.476,27.504 C349.948,27.504 349.486,27.482 349.024,27.482 C349.024,25.92 349.024,24.424 349.002,23.72 C348.342,23.632 346.494,23.61 345.9,23.72 C345.834,25.15 345.812,32.674 345.9,34.676 C346.67,34.742 348.408,34.742 349.002,34.676 L349.002842,34.3619548 C349.006872,33.4933287 349.024,32.0191765 349.024,30.408 C349.486,30.43 349.97,30.43 350.476,30.408 L350.476709,32.5819628 C350.478227,34.0652273 350.483,35.33 350.498,35.93 C351.268,35.974 353.028,36.018 353.622,35.93 Z M344.866,34.5 C344.91,33.708 344.932,32.542 344.866,31.794 L338.64,31.794 L338.64,30.474 C340.07,30.518 342.49,30.518 343.986,30.474 C344.052,29.308 344.074,25.15 343.986,23.984 C342.71,23.94 336.946,23.94 335.582,23.984 C335.494,24.798 335.494,25.876 335.582,26.69 C337.43,26.712 339.256,26.712 340.84,26.69 L340.84,28.01 C339.63,27.988 336.77,27.988 335.494,28.01 C335.406,28.912 335.406,33.29 335.494,34.5 C337.034,34.588 343.502,34.566 344.866,34.5 Z M337.254,43.674 C338.618,43.19 342.138,41.914 345.108,40.682 C348.078,41.87 351.51,43.08 352.984,43.564 C353.314,43.058 353.974,41.54 354.062,40.77 C352.28,40.11 349.354,39.098 346.78,38.174 C346.78,37.404 346.78,36.568 346.736,35.578 C345.966,35.49 343.942,35.512 343.348,35.578 C343.304,36.59 343.282,37.404 343.304,38.196 C340.752,39.186 337.892,40.264 336.132,40.99 C336.22,41.738 336.902,43.168 337.254,43.674 Z M374.28,35.358 C374.368,34.5 374.368,33.378 374.28,32.608 C373.312,32.586 370.122,32.564 366.536,32.564 L366.536,31.244 L367.256678,31.2435417 C369.876944,31.2401806 372.223,31.2183333 373.312,31.178 C373.378,30.166 373.378,29.374 373.312,28.516 C372.718,28.494 371.706,28.494 370.474,28.472 C370.474,27.812 370.496,27.174 370.496,26.492 C371.596,26.492 372.52,26.47 373.092,26.448 C373.136,25.48 373.136,24.6 373.092,23.786 C371.046,23.698 360.222,23.72 356.57,23.786 C356.504,24.6 356.504,25.59 356.57,26.448 C357.098,26.47 358.022,26.492 359.144,26.492 L359.144,28.472 C357.912,28.494 356.9,28.516 356.35,28.516 C356.284,29.374 356.284,30.276 356.35,31.178 C357.45,31.222 360.156,31.244 363.104,31.244 L363.104,32.564 C360.046,32.564 357.12,32.586 355.36,32.608 C355.272,33.422 355.272,34.61 355.36,35.358 C357.956,35.446 372.388,35.49 374.28,35.358 Z M367.262,28.472 L362.356,28.472 C362.356,27.812 362.378,27.196 362.378,26.514 L367.262,26.514 L367.262,28.472 Z M373.07,43.476 C373.158,41.826 373.158,38.504 373.07,36.546 C371.838,36.502 357.934,36.502 356.57,36.546 C356.504,38.35 356.46,41.738 356.57,43.476 C358.286,43.63 371.376,43.608 373.07,43.476 Z M359.738,40.836 L359.738,39.208 C361.19,39.164 368.67,39.186 369.902,39.208 L369.902,40.836 C368.978,40.88 360.75,40.902 359.738,40.836 Z" id="logo"></path>
        </g>
    </g>
</svg>