<?xml version="1.0" encoding="utf-8"?>
<!-- Generator: Adobe Illustrator 16.0.0, SVG Export Plug-In . SVG Version: 6.00 Build 0)  -->
<!DOCTYPE svg PUBLIC "-//W3C//DTD SVG 1.1//EN" "http://www.w3.org/Graphics/SVG/1.1/DTD/svg11.dtd">
<svg width="19" height="19" viewBox="0 0 19 19" fill="none" xmlns="http://www.w3.org/2000/svg">
<circle cx="9.961" cy="9.81274" r="9" fill="#FFB24E"/>
<path d="M9.96943 15.4372C9.00358 15.4252 8.05413 15.3136 7.15901 14.8645C5.82968 14.197 5.16034 13.0066 4.98141 11.4274C4.84416 10.2144 5.00202 9.04385 5.39782 7.90999C5.44466 7.77114 5.44091 7.66897 5.35098 7.55527C4.44836 6.43294 5.04042 5.22468 5.89292 4.72011C6.53369 4.34076 7.19601 4.25693 7.87145 4.60588C7.97731 4.65828 8.06443 4.63785 8.16139 4.59436C9.36144 4.05188 10.5613 4.05188 11.7611 4.59436C11.8918 4.65409 11.9953 4.62789 12.1152 4.56764C13 4.12646 14.2267 4.53777 14.7556 5.4458C15.1462 6.11699 15.1153 6.79395 14.6389 7.45153C14.5054 7.63596 14.4764 7.78005 14.5546 8.01059C14.9532 9.18165 15.1036 10.3925 14.9069 11.6354C14.5958 13.6049 13.5326 14.8137 11.7826 15.225C11.1866 15.3674 10.5788 15.4386 9.96943 15.4372ZM9.97927 14.8273C10.6055 14.7833 11.244 14.7566 11.8674 14.5654C12.845 14.2646 13.6576 13.7124 14.0712 12.6319C14.6225 11.1916 14.5026 9.73548 14.0619 8.28829C14.015 8.1311 13.9302 8.14839 13.8277 8.21808C13.5517 8.40061 13.25 8.52909 12.9354 8.59795C12.5873 8.67445 12.2679 8.60372 12.0398 8.29563C11.3873 7.41432 11.0505 6.44185 11.4365 5.29594C11.4753 5.18119 11.4697 5.11937 11.3611 5.07797C10.4619 4.72735 9.48348 4.72495 8.58296 5.07116C8.47148 5.11256 8.44899 5.17595 8.49209 5.30799C8.864 6.45338 8.53377 7.42847 7.87426 8.30558C7.65786 8.59376 7.35152 8.67236 7.02036 8.60477C6.71907 8.54548 6.42874 8.43037 6.16131 8.26419C5.92149 8.11381 5.90697 8.11853 5.82032 8.40304C5.5243 9.34541 5.42465 10.351 5.52897 11.343C5.69572 12.8787 6.39739 13.9439 7.73046 14.4553C8.45649 14.7341 9.21108 14.7849 9.97927 14.8273ZM8.08177 6.36063C8.0916 5.52544 7.85365 5.17124 7.31124 5.03553C6.74447 4.89406 5.98379 5.22154 5.64935 5.75127C5.39407 6.15577 5.39501 6.61476 5.67277 7.01244C6.02079 7.51021 6.47936 7.81778 7.02786 7.97549C7.27892 8.04727 7.44942 7.95715 7.59416 7.7397C7.89768 7.27809 8.0649 6.76251 8.08177 6.36063ZM11.8398 6.35016C11.851 6.76618 12.0271 7.29696 12.3489 7.76747C12.4852 7.96553 12.6487 8.03994 12.8806 7.97706C13.4178 7.84123 13.8976 7.50492 14.2413 7.02345C14.5537 6.59223 14.5354 6.05883 14.1944 5.64123C13.8389 5.20582 13.3846 5.00305 12.859 5.00776C12.1948 5.0151 11.829 5.4327 11.8379 6.35016H11.8398Z" fill="white"/>
<path d="M9.95258 13.7632C9.35068 13.7338 8.79422 13.5677 8.35064 13.082C7.76888 12.4438 7.80073 11.5363 8.4195 10.9411C9.25559 10.1368 10.6833 10.1415 11.511 10.9516C12.1161 11.5436 12.1466 12.4422 11.5751 13.0741C11.1264 13.5698 10.5643 13.737 9.95258 13.7632ZM9.95539 10.9715C9.49214 10.9715 9.06542 11.0972 8.72302 11.4829C8.412 11.835 8.41247 12.2573 8.71787 12.6193C9.29119 13.3005 10.6229 13.3005 11.2004 12.622C11.5128 12.2552 11.5091 11.8266 11.1831 11.4666C10.8454 11.0941 10.4238 10.9736 9.95539 10.9715Z" fill="white"/>
<path d="M8.47663 9.5285C8.46492 9.70979 8.38295 9.82402 8.2162 9.82611C8.04945 9.82821 7.9478 9.72132 7.94406 9.53846C7.94102 9.49879 7.94559 9.45886 7.95745 9.42132C7.96932 9.38379 7.98821 9.34952 8.01286 9.3208C8.03751 9.29209 8.06736 9.26959 8.1004 9.2548C8.13345 9.24002 8.16893 9.2333 8.20449 9.23508C8.36656 9.22984 8.45649 9.34459 8.47663 9.5285Z" fill="white"/>
<path d="M11.7058 9.83085C11.5451 9.81408 11.4458 9.72029 11.4477 9.53219C11.4496 9.34409 11.5498 9.23458 11.711 9.2351C11.7465 9.23262 11.7821 9.23866 11.8154 9.25282C11.8487 9.26698 11.8789 9.28893 11.904 9.31721C11.9291 9.34548 11.9486 9.37943 11.961 9.41678C11.9734 9.45412 11.9785 9.49401 11.9761 9.53376C11.9761 9.71558 11.8721 9.81408 11.7058 9.83085Z" fill="white"/>
<path d="M9.19562 12.0341C9.19562 11.9476 9.19281 11.8607 9.19562 11.7721C9.20264 11.6024 9.27759 11.4902 9.43356 11.4766C9.59938 11.4614 9.70992 11.562 9.72538 11.7386C9.74411 11.9454 9.74411 12.1537 9.72538 12.3605C9.72389 12.398 9.71559 12.4347 9.70098 12.4684C9.68638 12.5022 9.66577 12.5322 9.64043 12.5567C9.61509 12.5812 9.58554 12.5997 9.5536 12.611C9.52165 12.6223 9.48798 12.6263 9.45464 12.6225C9.29351 12.6126 9.20264 12.5015 9.19655 12.3165C9.19327 12.2253 9.19562 12.1295 9.19562 12.0341Z" fill="white"/>
<path d="M10.7231 12.0582C10.7231 12.1536 10.7283 12.2494 10.7231 12.3443C10.7231 12.3816 10.7165 12.4185 10.7037 12.453C10.6908 12.4874 10.672 12.5187 10.6483 12.5449C10.6246 12.5712 10.5965 12.5919 10.5656 12.606C10.5347 12.62 10.5016 12.627 10.4683 12.6267C10.4051 12.6338 10.3418 12.6132 10.292 12.5691C10.2422 12.525 10.2096 12.4609 10.2013 12.3904C10.1637 12.1684 10.1626 11.9406 10.198 11.7181C10.2229 11.5536 10.3306 11.4645 10.4847 11.4776C10.629 11.4902 10.7091 11.5887 10.7222 11.7464C10.7301 11.8497 10.7231 11.9545 10.7231 12.0582Z" fill="white"/>
</svg>





