<?xml version="1.0" encoding="utf-8"?>
<!-- Generator: Adobe Illustrator 16.0.0, SVG Export Plug-In . SVG Version: 6.00 Build 0)  -->
<!DOCTYPE svg PUBLIC "-//W3C//DTD SVG 1.1//EN" "http://www.w3.org/Graphics/SVG/1.1/DTD/svg11.dtd">
<svg width="19" height="19" viewBox="0 0 19 19" fill="none" xmlns="http://www.w3.org/2000/svg">
<circle cx="9.72375" cy="9.12964" r="9" fill="#40B54A"/>
<path d="M9.70692 9.05169C9.32772 9.32709 8.99032 9.54436 8.69174 9.79365C8.21401 10.1996 7.64849 10.4149 6.97131 10.4341C6.67273 10.442 6.56822 10.5391 6.57181 10.7972C6.58733 12.1107 6.57897 13.4241 6.57897 14.7386C6.57897 14.8125 6.57897 14.8864 6.57897 14.9603C6.57539 15.1573 6.49119 15.3086 6.22545 15.3096C5.95971 15.3105 5.88507 15.1509 5.88507 14.9583C5.88507 13.8498 5.88507 12.7414 5.88507 11.6333C5.88507 11.4037 5.87671 11.1736 5.88507 10.9435C5.89821 10.6612 5.85939 10.44 5.55066 10.2218C5.01321 9.84045 5.16728 9.13446 5.80206 8.8497C6.26486 8.64229 6.73603 8.44522 7.21495 8.2654C7.6731 8.10276 8.05665 7.8241 8.31015 7.46974C8.72817 6.89184 9.36235 6.53367 10.1614 6.39572C10.718 6.3002 11.2915 6.29168 11.8519 6.3706C12.1576 6.41698 12.4383 6.54059 12.6551 6.72433C13.4314 7.34017 13.7652 8.13188 13.9766 8.96991C14.145 9.63797 14.2048 10.3169 14.2227 10.9987C14.2394 11.616 14.0626 12.1954 13.6255 12.695C13.1239 13.267 12.8922 13.8872 12.9561 14.5888C12.9689 14.7366 12.9643 14.8851 12.9424 15.0322C12.9191 15.1928 12.8158 15.3115 12.5954 15.3125C12.3751 15.3135 12.2574 15.1972 12.2449 15.0361C12.181 14.1897 12.2216 13.3571 12.8468 12.628C13.2099 12.2053 13.5073 11.752 13.5037 11.2263C13.4947 10.0439 13.4243 8.86152 12.7399 7.77765C12.6432 7.63424 12.5339 7.4969 12.4127 7.36677C12.1445 7.05934 11.7976 6.89233 11.3181 6.9278C10.992 6.95145 10.6582 6.90366 10.3357 6.95933C9.73379 7.06329 9.23755 7.31997 8.92822 7.7614C8.60117 8.23557 8.08933 8.60453 7.47591 8.80831C7.0579 8.95611 6.65541 9.14234 6.24576 9.31084C6.05287 9.39015 5.90597 9.49558 5.97106 9.69462C6.04093 9.90647 6.24217 9.93652 6.4679 9.9114C6.77305 9.87839 7.0788 9.84439 7.38276 9.8035C7.58001 9.77532 7.76303 9.70034 7.90945 9.58771C8.33941 9.26994 8.77594 8.95858 9.2059 8.64081C9.43819 8.46936 9.69259 8.37723 9.99535 8.49301C10.2981 8.60879 10.4062 8.82457 10.4056 9.09603C10.402 11.025 10.401 12.9541 10.4026 14.8834C10.4076 14.9569 10.4003 15.0307 10.3811 15.1026C10.3652 15.1682 10.32 15.2264 10.2546 15.2658C10.1891 15.3052 10.1081 15.3229 10.0276 15.3155C9.84128 15.3066 9.73797 15.2169 9.71468 15.0691C9.70599 14.9872 9.7036 14.905 9.70752 14.8228C9.70752 13.0164 9.70752 11.2099 9.70752 9.40346L9.70692 9.05169Z" fill="white"/>
<path d="M10.3645 2.94211C10.7461 2.94527 11.1182 3.05618 11.4338 3.26088C11.7494 3.46557 11.9944 3.75486 12.1379 4.09228C12.2815 4.42969 12.3171 4.80011 12.2403 5.15681C12.1634 5.51351 11.9777 5.84051 11.7063 6.09657C11.435 6.35263 11.0903 6.52629 10.7157 6.59562C10.3411 6.66496 9.95333 6.62688 9.60136 6.48618C9.2494 6.34549 8.94897 6.10848 8.73799 5.80505C8.52701 5.50162 8.41491 5.14536 8.41584 4.78121C8.41606 4.53802 8.46678 4.29729 8.56505 4.07292C8.66333 3.84854 8.80722 3.64498 8.98842 3.47398C9.16961 3.30297 9.38451 3.16793 9.62071 3.07664C9.85691 2.98535 10.1097 2.93963 10.3645 2.94211ZM9.14145 4.77665C9.13821 4.93079 9.16707 5.08401 9.22637 5.22742C9.28567 5.37083 9.37423 5.50157 9.4869 5.61206C9.59957 5.72255 9.73411 5.81058 9.88272 5.87106C10.0313 5.93153 10.191 5.96324 10.3526 5.96434C10.6802 5.96668 10.9953 5.84476 11.2286 5.62539C11.462 5.40602 11.5944 5.10718 11.5969 4.7946C11.5993 4.48203 11.4716 4.18132 11.2417 3.95864C11.0118 3.73596 10.6987 3.60954 10.3711 3.6072C10.2095 3.60553 10.0492 3.63461 9.89945 3.69274C9.74974 3.75086 9.61368 3.83688 9.4992 3.94575C9.38472 4.05463 9.29412 4.18418 9.23269 4.32684C9.17127 4.46951 9.14025 4.62242 9.14145 4.77665Z" fill="white"/>
</svg>




