<?xml version="1.0" encoding="utf-8"?>
<!-- Generator: Adobe Illustrator 16.0.0, SVG Export Plug-In . SVG Version: 6.00 Build 0)  -->
<!DOCTYPE svg PUBLIC "-//W3C//DTD SVG 1.1//EN" "http://www.w3.org/Graphics/SVG/1.1/DTD/svg11.dtd">
<svg width="19" height="19" viewBox="0 0 19 19" fill="none" xmlns="http://www.w3.org/2000/svg">
<circle cx="9.72375" cy="9.72241" r="9" fill="#40B54A"/>
<path d="M7.85302 5.79568C8.48933 5.8205 9.09458 6.09981 9.55183 6.57965C9.68518 6.71636 9.7558 6.72362 9.89861 6.5852C10.6948 5.81277 11.6175 5.57651 12.6244 5.97726C13.6178 6.37244 14.1957 7.1735 14.3603 8.31334C14.4317 8.80594 14.3603 9.2776 14.1981 9.73559C14.1445 9.88554 14.1429 9.96586 14.3204 9.94151C14.3663 9.93639 14.4126 9.93639 14.4585 9.94151C14.6636 9.96116 14.7883 10.0928 14.7891 10.288C14.7899 10.4832 14.6656 10.6238 14.4609 10.6358C14.2769 10.6469 14.0925 10.6469 13.9085 10.6358C13.7507 10.6264 13.6379 10.6849 13.527 10.8066C12.3779 12.0579 11.2262 13.3065 10.0718 14.5526C9.78894 14.8585 9.66387 14.8589 9.38455 14.5564C8.24596 13.3237 7.10843 12.09 5.97194 10.8554C5.83149 10.702 5.69262 10.6157 5.48984 10.6362C5.3322 10.6475 5.17405 10.6475 5.01641 10.6362C4.79548 10.6264 4.66529 10.4948 4.66134 10.2944C4.6574 10.094 4.78838 9.95775 5.00576 9.94023C5.30244 9.91673 5.30244 9.91673 5.20302 9.60101C4.62307 7.73872 5.9242 5.78927 7.85302 5.79568ZM9.71398 10.5879C9.74712 10.5349 9.78223 10.4858 9.81064 10.432C10.0737 9.93866 10.3351 9.44478 10.5949 8.95034C10.7922 8.57395 11.0459 8.56583 11.2656 8.93539C11.429 9.21095 11.5951 9.4848 11.7481 9.76677C11.8211 9.90178 11.9123 9.94664 12.0523 9.94365C12.4267 9.9351 12.8019 9.93296 13.1763 9.94365C13.3341 9.94877 13.4288 9.88597 13.5053 9.73772C13.9685 8.83755 13.7618 7.67933 13.0094 6.99192C12.2894 6.33399 11.1816 6.32032 10.4612 6.96757C10.2845 7.12607 10.1278 7.30935 9.95779 7.47768C9.80275 7.62978 9.65638 7.6302 9.50133 7.48067C9.41335 7.39523 9.33129 7.30295 9.24884 7.21066C8.78725 6.695 8.23097 6.46045 7.56344 6.49719C6.13133 6.5758 5.21525 8.47227 5.97904 9.78899C6.00325 9.83908 6.04057 9.88031 6.08633 9.90752C6.13209 9.93473 6.18425 9.9467 6.23627 9.94194C6.45286 9.92905 6.66996 9.93004 6.88644 9.94493C7.09593 9.96586 7.19022 9.86888 7.26282 9.66894C7.45732 9.13277 7.66996 8.60386 7.87551 8.07238C7.9335 7.92285 8.03095 7.81904 8.18481 7.81605C8.33039 7.81263 8.42823 7.90705 8.49372 8.04333C8.52371 8.10656 8.55487 8.16894 8.58446 8.23259C8.91902 8.95091 9.2537 9.6688 9.58852 10.3863C9.61929 10.4533 9.63389 10.5354 9.71398 10.5879ZM8.21716 8.97597C8.03253 9.4502 7.8621 9.86504 7.70981 10.2893C7.61789 10.5456 7.46402 10.6533 7.2139 10.6456C7.05609 10.6409 6.89552 10.6101 6.72232 10.6772C6.77558 10.7409 6.81306 10.7896 6.85409 10.834C7.75518 11.8102 8.65903 12.7834 9.55499 13.7656C9.68952 13.913 9.76921 13.9083 9.90138 13.7656C10.793 12.789 11.6925 11.8209 12.5877 10.8485C12.635 10.7968 12.7084 10.7601 12.7088 10.6439C12.3932 10.6439 12.0776 10.6413 11.7643 10.6439C11.685 10.6499 11.6057 10.6312 11.5358 10.5901C11.4659 10.549 11.4083 10.4872 11.3698 10.4119C11.2783 10.2474 11.1812 10.0868 11.0853 9.92527C10.9398 9.67962 10.9402 9.68047 10.8092 9.92527C10.5456 10.426 10.2797 10.925 10.0174 11.4261C9.93846 11.5757 9.84733 11.7072 9.67295 11.7C9.49857 11.6927 9.41493 11.5543 9.34431 11.4009C9.13009 10.9365 8.9127 10.4734 8.69651 10.0099C8.54698 9.68047 8.39312 9.35236 8.21716 8.97597Z" fill="white"/>
</svg>






