<?xml version="1.0" encoding="utf-8"?>
<!-- Generator: Adobe Illustrator 16.0.0, SVG Export Plug-In . SVG Version: 6.00 Build 0)  -->
<!DOCTYPE svg PUBLIC "-//W3C//DTD SVG 1.1//EN" "http://www.w3.org/Graphics/SVG/1.1/DTD/svg11.dtd">
<svg width="19" height="19" viewBox="0 0 19 19" fill="none" xmlns="http://www.w3.org/2000/svg">
<circle cx="9.961" cy="9.42029" r="9" fill="#FFB24E"/>
<path d="M11.1345 15.0453H8.29555C7.91763 15.0453 7.91763 15.0453 7.91718 14.6695C7.91718 14.3555 7.91354 14.0415 7.91718 13.7279C7.91718 13.5904 7.90854 13.5296 7.73049 13.5874C7.10728 13.7901 6.49951 13.6114 6.12704 13.1367C5.76002 12.6685 5.74321 12.0672 6.10115 11.5408C6.62443 10.7718 7.15437 10.0073 7.69097 9.2473C7.80044 9.0927 7.78181 9.00862 7.64827 8.88205C6.58264 7.86572 5.52276 6.84384 4.46864 5.81642C4.41413 5.76386 4.30284 5.71876 4.34554 5.63073C4.37824 5.56328 4.48181 5.59744 4.5563 5.59744C5.60104 5.59744 6.64578 5.59306 7.69051 5.59744C7.87221 5.59744 7.96896 5.55671 8.04436 5.37847C8.40775 4.52447 9.31213 4.16317 10.1924 4.51966C10.3673 4.59017 10.4768 4.56739 10.618 4.45703C12.4159 3.04596 15.0019 3.99193 15.3684 6.20006C15.4741 6.78191 15.3662 7.38107 15.0632 7.89448C14.9587 8.06966 14.9523 8.1809 15.1204 8.34119C15.6491 8.84395 15.7318 9.59941 15.3475 10.213C15.2621 10.3496 15.2567 10.4503 15.3439 10.59C15.7073 11.1677 15.6578 11.8474 15.2181 12.3672C15.174 12.4157 15.1414 12.4729 15.1227 12.5348C15.1041 12.5967 15.0997 12.6618 15.11 12.7255C15.1686 13.2488 14.9692 13.6548 14.474 13.9036C14.4291 13.9221 14.3916 13.9541 14.3671 13.9948C14.3425 14.0355 14.3323 14.0828 14.3378 14.1295C14.3423 14.3262 14.3378 14.5237 14.3378 14.7208C14.3378 15.0392 14.3378 15.04 14.0162 15.0405L11.1345 15.0453ZM8.6653 10.3172C8.6653 11.5789 8.66939 12.8407 8.66121 14.1024C8.66121 14.3052 8.72616 14.3621 8.93375 14.3612C10.4012 14.3533 11.8687 14.3533 13.3362 14.3612C13.5283 14.3612 13.6028 14.3174 13.6015 14.1177C13.5937 12.535 13.6078 10.9522 13.5919 9.36993C13.5774 7.90806 12.4859 6.65465 11.0028 6.36867C10.3214 6.23729 9.631 6.30692 8.9442 6.28327C8.7248 6.27583 8.6603 6.34415 8.66166 6.5548C8.66757 7.8082 8.6653 9.06292 8.6653 10.3172ZM14.3432 13.0355C14.3669 13.014 14.3839 12.9865 14.3924 12.9562C14.4009 12.926 14.4005 12.894 14.3914 12.8639C14.3051 12.5026 14.3941 12.1964 14.6553 11.9162C14.906 11.6473 14.9255 11.2522 14.7102 10.9395C14.4622 10.58 14.4609 10.2454 14.7071 9.8832C14.9533 9.52102 14.8933 9.11854 14.574 8.80716C14.1552 8.399 14.1061 8.13623 14.3877 7.63697C14.5767 7.30062 14.6848 6.94019 14.6694 6.56794C14.6339 5.71876 14.2224 5.06928 13.417 4.70797C12.6117 4.34667 11.8272 4.42681 11.1418 4.97293C10.733 5.29964 10.355 5.41088 9.86311 5.16256C9.53833 4.99789 9.13634 5.11264 8.89196 5.3754C8.84336 5.42752 8.76251 5.48183 8.79703 5.5589C8.83155 5.63598 8.91921 5.59613 8.98326 5.59657C9.46747 5.5992 9.95123 5.59657 10.4368 5.59657C10.9686 5.59375 11.494 5.70851 11.9726 5.93204C13.5506 6.67173 14.326 7.90587 14.3423 9.58671C14.3496 10.7258 14.3432 11.8636 14.3432 13.0355ZM7.91718 10.283L7.85722 10.2734C7.46431 10.8427 7.06503 11.4121 6.68166 11.9871C6.51269 12.2415 6.55039 12.5126 6.74435 12.7399C6.8307 12.838 6.94581 12.9086 7.07455 12.9425C7.20328 12.9763 7.33963 12.9718 7.46567 12.9296C7.74502 12.842 7.90991 12.623 7.914 12.3116C7.92036 11.7861 7.91672 11.2605 7.91718 10.735V10.283ZM6.08707 6.28677L7.9149 8.04864V6.42473C7.9149 6.30429 7.83405 6.2859 7.73321 6.28634C7.17405 6.28721 6.6158 6.28677 6.08707 6.28677Z" fill="white"/>
<path d="M10.5758 8.35386C10.5766 8.41401 10.5651 8.47373 10.5418 8.52954C10.5185 8.58535 10.4839 8.63614 10.4401 8.67896C10.3963 8.72178 10.3441 8.75579 10.2865 8.77899C10.2289 8.8022 10.1672 8.81414 10.1048 8.81414C9.97988 8.80972 9.8617 8.75859 9.77527 8.67157C9.68885 8.58456 9.64097 8.46851 9.6418 8.34803C9.64262 8.22756 9.69209 8.11213 9.7797 8.02622C9.86732 7.94032 9.98619 7.8907 10.1111 7.88788C10.1735 7.88861 10.2351 7.9013 10.2924 7.9252C10.3496 7.9491 10.4014 7.98374 10.4446 8.0271C10.4879 8.07046 10.5217 8.12168 10.5442 8.17777C10.5668 8.23387 10.5775 8.29373 10.5758 8.35386Z" fill="white"/>
</svg>






