<?xml version="1.0" encoding="utf-8"?>
<!-- Generator: Adobe Illustrator 16.0.0, SVG Export Plug-In . SVG Version: 6.00 Build 0)  -->
<!DOCTYPE svg PUBLIC "-//W3C//DTD SVG 1.1//EN" "http://www.w3.org/Graphics/SVG/1.1/DTD/svg11.dtd">
<svg width="19" height="19" viewBox="0 0 19 19" fill="none" xmlns="http://www.w3.org/2000/svg">
<circle cx="9.78753" cy="9.42029" r="9" fill="#FFB24E"/>
<path d="M7.82351 7.24617C7.68432 7.10351 7.56222 6.99867 7.46317 6.87333C6.98798 6.27031 6.80439 5.55607 6.79756 4.7835C6.79457 4.46444 6.90259 4.36006 7.19675 4.35778C8.25771 4.35003 9.13039 4.73427 9.69822 5.74113C9.77849 5.88334 9.82631 5.83776 9.88693 5.72836C10.4714 4.70875 11.362 4.33453 12.4379 4.36097C12.6745 4.36644 12.7816 4.47766 12.7795 4.75432C12.7718 5.66911 12.5374 6.49137 11.8829 7.12903C11.8537 7.15413 11.8227 7.17683 11.7903 7.19694C11.8206 7.29722 11.8808 7.284 11.9243 7.29722C13.2542 7.70744 14.0731 8.79588 14.252 10.2645C14.4967 12.2846 13.4882 14.0681 11.7134 14.9706C11.1594 15.2481 10.5759 15.453 9.97574 15.5809C9.8719 15.6088 9.76384 15.6139 9.65809 15.5959C8.408 15.3275 7.25524 14.8471 6.36165 13.8247C5.08893 12.3689 5.01592 10.2695 5.78015 8.81092C6.17806 8.0502 6.78902 7.57024 7.56777 7.32594C7.63565 7.30315 7.70354 7.28309 7.82351 7.24617ZM9.31782 7.97864C8.46136 7.55611 7.12929 7.90981 6.53114 8.74255C5.7921 9.77448 5.70159 10.9331 6.07602 12.1319C6.4227 13.2436 7.19419 13.9496 8.15994 14.4473C9.09281 14.9286 10.0325 15.1556 11.0162 14.6173C11.1238 14.5585 11.2399 14.5193 11.3501 14.4665C13.0023 13.6725 13.8989 12.1132 13.6662 10.311C13.5032 9.05523 12.797 8.15093 11.6955 7.88155C11.2583 7.7749 10.7989 7.72476 10.395 7.93032C9.70036 8.28266 9.232 8.86744 9.08385 9.70019C9.05866 9.84148 9.05951 9.98825 9.02877 10.1277C9.01535 10.1879 8.98322 10.2414 8.93763 10.2796C8.89203 10.3178 8.83567 10.3383 8.77773 10.3378C8.6441 10.3447 8.54761 10.269 8.49552 10.1368C8.46136 10.0507 8.4699 9.96045 8.47631 9.86837C8.52797 9.13044 8.82256 8.51557 9.3191 7.97864H9.31782ZM9.32892 7.19649C9.53513 7.23523 9.48091 7.07433 9.4681 6.96859C9.33532 5.86328 8.66374 5.14859 7.62583 4.99271C7.45505 4.96673 7.39699 5.02416 7.40852 5.21103C7.47469 6.26848 8.32816 7.15729 9.33062 7.19649H9.32892ZM10.2618 7.19649C11.2745 7.12447 12.0626 6.31133 12.1621 5.24886C12.1749 5.11213 12.2048 4.96718 11.9866 4.99043C10.9526 5.1021 10.2003 5.90202 10.1021 6.99822C10.0902 7.14225 10.1038 7.24617 10.2631 7.19467L10.2618 7.19649Z" fill="white"/>
</svg>




