<?xml version="1.0" encoding="utf-8"?>
<!-- Generator: Adobe Illustrator 16.0.0, SVG Export Plug-In . SVG Version: 6.00 Build 0)  -->
<!DOCTYPE svg PUBLIC "-//W3C//DTD SVG 1.1//EN" "http://www.w3.org/Graphics/SVG/1.1/DTD/svg11.dtd">
<svg width="19" height="19" viewBox="0 0 19 19" fill="none" xmlns="http://www.w3.org/2000/svg">
<ellipse cx="9.78212" cy="9.76659" rx="9.02724" ry="9.0428" fill="#FFB24E"/>
<path d="M14.8592 9.7677C14.9015 12.5332 12.5701 14.862 9.77112 14.8541C7.01167 14.8462 4.68895 12.5435 4.70436 9.73763C4.71938 6.96263 7.04289 4.65719 9.83119 4.68013C12.576 4.70426 14.8995 6.99665 14.8592 9.7677ZM9.78297 5.35262C7.32232 5.40246 5.3877 7.29532 5.38533 9.76611C5.38533 12.2187 7.30176 14.167 9.77941 14.1725C12.2571 14.178 14.1933 12.2302 14.1865 9.75978C14.1802 7.27237 12.2282 5.39653 9.78297 5.35262Z" fill="white"/>
<path d="M11.2228 8.58416C11.2228 8.83495 11.1185 8.97618 10.9173 8.98883C10.7161 9.00149 10.5944 8.88559 10.5592 8.63281C10.5146 8.30883 10.3687 8.05922 10.0486 7.94134C9.76323 7.83611 9.50278 7.89268 9.27671 8.09047C9.15806 8.1919 9.07464 8.32841 9.03849 8.48033C9.00234 8.63226 9.01531 8.79176 9.07555 8.93583C9.21308 9.2875 9.49725 9.4216 9.85453 9.43624C10.1628 9.44851 10.4588 9.56017 10.6985 9.75457C10.9381 9.94897 11.1086 10.2157 11.1845 10.515C11.3524 11.1875 11.0457 11.8786 10.415 12.1638C10.1924 12.2646 10.0889 12.3667 10.1087 12.6215C10.1264 12.8501 9.90354 12.9996 9.69091 12.9324C9.52649 12.8802 9.4352 12.7559 9.4601 12.5858C9.49211 12.3623 9.39291 12.2694 9.19648 12.1831C8.66491 11.9458 8.3764 11.5186 8.3515 10.9299C8.34162 10.6954 8.45979 10.5581 8.65503 10.5458C8.8562 10.5332 8.97871 10.6487 9.01073 10.8813C9.07001 11.3002 9.2609 11.5316 9.61819 11.6183C9.8058 11.6625 10.0032 11.6334 10.1701 11.5368C10.337 11.4403 10.4607 11.2836 10.5161 11.0989C10.6347 10.7033 10.4272 10.284 10.0458 10.1574C9.94574 10.1248 9.84185 10.1053 9.73675 10.0996C9.04274 10.064 8.49141 9.59447 8.36375 8.92277C8.30307 8.59895 8.35584 8.26408 8.51316 7.97468C8.67047 7.68527 8.92271 7.45902 9.22731 7.33412C9.39884 7.26173 9.47116 7.18143 9.4597 6.99155C9.44468 6.72967 9.57116 6.59082 9.78299 6.58964C9.99483 6.58845 10.1245 6.7273 10.1114 6.9872C10.1023 7.17272 10.1624 7.26094 10.3399 7.33293C10.8742 7.5505 11.218 8.05803 11.2228 8.58416Z" fill="white"/>
</svg>






