<?xml version="1.0" encoding="utf-8"?>
<!-- Generator: Adobe Illustrator 16.0.0, SVG Export Plug-In . SVG Version: 6.00 Build 0)  -->
<!DOCTYPE svg PUBLIC "-//W3C//DTD SVG 1.1//EN" "http://www.w3.org/Graphics/SVG/1.1/DTD/svg11.dtd">
<svg width="19" height="19" viewBox="0 0 19 19" fill="none" xmlns="http://www.w3.org/2000/svg">
<ellipse cx="9.78212" cy="9.60506" rx="9.02724" ry="9.0428" fill="#D16127"/>
<path d="M14.2837 13.3022C14.1038 12.2306 13.711 11.3108 12.997 10.6362C12.6432 10.2779 12.2134 10.004 11.7394 9.83467C11.5736 9.77452 11.5504 9.73179 11.6748 9.58865C12.1086 9.08873 12.3792 8.51703 12.3663 7.83747C12.3643 7.71798 12.4281 7.65285 12.5106 7.58149C12.864 7.27489 12.8549 6.77331 12.4836 6.48663C12.3798 6.40799 12.3106 6.2919 12.2909 6.16303C12.1136 5.34033 11.6433 4.74208 10.8941 4.36206C10.713 4.26996 10.4992 4.23262 10.379 4.0397C10.3666 4.02291 10.3505 4.00919 10.332 3.99963C10.3134 3.99006 10.2929 3.98489 10.2721 3.98452C9.87469 4.0314 9.42509 3.78621 9.08986 4.19196C9.07038 4.21561 9.02894 4.22224 8.99704 4.23345C8.04065 4.58194 7.46287 5.2557 7.26369 6.25472C7.25715 6.29476 7.2423 6.33298 7.22011 6.36692C7.19791 6.40086 7.16886 6.42977 7.13482 6.45178C6.70469 6.75838 6.68812 7.26577 7.09918 7.60804C7.13774 7.63644 7.16847 7.67418 7.18847 7.71772C7.20848 7.76126 7.21711 7.80917 7.21355 7.85697C7.19573 8.53902 7.47834 9.10159 7.91261 9.60318C8.0104 9.71519 8.02864 9.76041 7.86869 9.82347C6.2899 10.4458 5.54816 11.7045 5.28048 13.3034C5.2121 13.7092 5.44125 14.0017 5.84237 14.0884C6.15647 14.1564 6.47555 14.1137 6.79213 14.1212C7.02998 14.127 9.36666 14.1257 9.78229 14.1187C10.1967 14.1257 12.5342 14.127 12.772 14.1212C13.0886 14.1137 13.4077 14.1564 13.7222 14.0884C14.1217 14.0004 14.3508 13.7079 14.2837 13.3022ZM10.6732 4.76449C11.2633 5.05905 11.6433 5.52205 11.8202 6.15847C11.8616 6.30948 11.8057 6.34392 11.6719 6.33811C11.5475 6.33313 11.4232 6.33811 11.2989 6.33811H11.1332C10.7465 6.33811 10.7474 6.33811 10.6496 5.96845C10.5555 5.61208 10.5447 5.24533 10.512 4.88148C10.5012 4.75163 10.5331 4.69396 10.6732 4.76449ZM9.45451 5.90124C9.54289 5.48241 9.5766 5.05386 9.55479 4.62633C9.54526 4.4189 9.65383 4.40977 9.80964 4.41184C9.96544 4.41392 10.0782 4.40769 10.0699 4.62135C10.0491 5.15364 10.0831 5.68302 10.2389 6.19788C10.2692 6.29745 10.241 6.3406 10.1358 6.33769C10.0305 6.33479 9.9153 6.33769 9.80425 6.33769C9.35879 6.33728 9.36128 6.33769 9.45451 5.90124ZM7.75556 6.15515C7.93209 5.51043 8.32492 5.04826 8.92328 4.75743C9.03475 4.70309 9.08903 4.72466 9.08903 4.85825C9.09555 5.28638 9.04057 5.71323 8.92577 6.12569C8.87894 6.28583 8.79814 6.35553 8.63073 6.33935C8.5147 6.32815 8.3966 6.33935 8.27933 6.33935C8.14839 6.33935 8.01745 6.33603 7.8865 6.33935C7.75556 6.34267 7.72034 6.27878 7.75432 6.15515H7.75556ZM7.44312 7.27075C7.32378 7.23507 7.26535 7.14628 7.27737 7.01726C7.2898 6.89694 7.36024 6.82517 7.47668 6.81646C7.62089 6.80609 7.76675 6.80733 7.91095 6.80733C8.5386 6.80733 9.16638 6.80733 9.7943 6.80733H11.8662C11.935 6.80733 12.0042 6.80733 12.0734 6.81231C12.2105 6.82102 12.2942 6.89819 12.303 7.03261C12.3117 7.16703 12.2201 7.24876 12.0982 7.28153C12.0371 7.29214 11.9749 7.29507 11.913 7.29025C10.4983 7.29025 9.08392 7.29025 7.66978 7.29025C7.59327 7.29478 7.51651 7.28821 7.44188 7.27075H7.44312ZM7.75225 8.44235C7.69755 8.29009 7.68967 8.13286 7.6818 7.97313C7.67393 7.8134 7.7452 7.75491 7.90266 7.75615C8.53086 7.76071 9.15906 7.75615 9.78726 7.75615C10.4088 7.75615 11.0304 7.76154 11.652 7.75283C11.8409 7.75034 11.9097 7.81175 11.9006 8.00383C11.8804 8.32886 11.777 8.64321 11.6002 8.91656C11.3285 9.37006 10.9324 9.73584 10.459 9.97034C10.0069 10.194 9.55894 10.1981 9.10933 9.9637C8.46125 9.63097 7.99838 9.13312 7.751 8.44235H7.75225ZM11.3963 10.4562C11.3814 10.71 11.3009 10.9556 11.1626 11.1689C11.1079 11.2519 11.0519 11.2934 10.9666 11.2104C10.7693 11.0175 10.5729 10.8242 10.3748 10.6321C10.2965 10.5566 10.3334 10.5167 10.4163 10.4877C10.6123 10.421 10.7981 10.3276 10.9687 10.2101C11.0747 10.1363 11.1808 10.1114 11.2964 10.1753C11.412 10.2392 11.3884 10.3475 11.395 10.4562H11.3963ZM9.19263 10.6429C8.99704 10.8271 8.80366 11.0133 8.6125 11.2017C8.53211 11.2805 8.47616 11.2677 8.41649 11.1768C8.24615 10.9229 8.16656 10.6188 8.19066 10.3139C8.20102 10.1579 8.31166 10.1516 8.43555 10.1334C8.47752 10.1455 8.51808 10.162 8.55655 10.1828C8.7459 10.3087 8.94955 10.4116 9.1632 10.4893C9.27177 10.5275 9.2697 10.5702 9.19138 10.6429H9.19263ZM13.5593 13.6436C13.1242 13.647 10.4014 13.649 9.96627 13.6528C9.90494 13.6528 9.84196 13.6528 9.78229 13.659C9.72096 13.6536 9.65797 13.6536 9.59789 13.6528C9.16279 13.649 6.43991 13.647 6.00481 13.6436C5.81585 13.6436 5.73173 13.552 5.74126 13.3578C5.75204 13.1404 5.81005 12.9346 5.87097 12.7301C6.15109 11.7916 6.64088 11.0063 7.5061 10.4943C7.64699 10.4114 7.71909 10.3923 7.73401 10.5956C7.76509 11.0266 7.96813 11.3838 8.24038 11.7091C8.41732 11.9198 8.5205 11.9273 8.71775 11.7377C9.02646 11.4411 9.33932 11.1465 9.63808 10.8412C9.75204 10.7254 9.82455 10.7233 9.93851 10.8412C10.2373 11.1486 10.546 11.4456 10.8543 11.7431C11.047 11.9285 11.1651 11.919 11.3345 11.7103C11.6138 11.3664 11.8318 10.9938 11.8384 10.5333C11.8384 10.4026 11.889 10.3948 11.9889 10.4504L12.056 10.4893V10.4931C12.9212 11.005 13.411 11.7904 13.6911 12.7288C13.752 12.9334 13.81 13.1392 13.8208 13.3566C13.8316 13.552 13.7471 13.6424 13.5581 13.6436H13.5593Z" fill="white"/>
</svg>



