<?xml version="1.0" encoding="utf-8"?>
<!-- Generator: Adobe Illustrator 16.0.0, SVG Export Plug-In . SVG Version: 6.00 Build 0)  -->
<!DOCTYPE svg PUBLIC "-//W3C//DTD SVG 1.1//EN" "http://www.w3.org/Graphics/SVG/1.1/DTD/svg11.dtd">
<svg width="8" height="16" viewBox="0 0 8 16" fill="none" xmlns="http://www.w3.org/2000/svg">
<path d="M6.22566 6.05448C6.22566 7.10355 6.22967 8.15318 6.22222 9.20396C6.21795 9.29316 6.23512 9.38208 6.2723 9.46328C6.30949 9.54448 6.3656 9.61559 6.43593 9.67066C7.45004 10.5548 7.81099 12.0511 7.32972 13.3315C6.83126 14.6594 5.59543 15.5379 4.21636 15.5436C2.21106 15.5522 0.658963 13.9603 0.760947 11.9761C0.77829 11.5406 0.883684 11.1132 1.07077 10.7195C1.25786 10.3258 1.52277 9.97412 1.84954 9.68555C1.92566 9.623 1.98604 9.54348 2.02584 9.45338C2.06565 9.36328 2.08375 9.26511 2.07871 9.16674C2.07336 7.0961 2.07336 5.02565 2.07871 2.95539C2.07871 1.98764 2.65853 1.20314 3.5506 0.924837C4.86836 0.514832 6.1953 1.49747 6.22853 2.90729C6.22853 2.92619 6.22853 2.94566 6.22853 2.96456L6.22566 6.05448ZM3.02349 6.2612C3.02349 7.3389 3.01547 8.41659 3.02865 9.49372C3.03266 9.80924 2.93067 10.024 2.67801 10.2215C1.86729 10.8549 1.55848 11.6938 1.76818 12.7039C1.97443 13.6986 2.89343 14.5151 3.86113 14.5884C5.03509 14.6772 6.02227 14.0902 6.42275 13.0652C6.81866 12.0517 6.52588 10.9007 5.67392 10.2593C5.38286 10.0412 5.26828 9.80122 5.27286 9.44218C5.28661 7.30626 5.27859 5.16976 5.28031 3.03384C5.28031 2.66564 5.19551 2.33122 4.91191 2.07812C4.55726 1.76203 4.14245 1.69675 3.71159 1.87541C3.24923 2.06724 3.0338 2.45319 3.02979 2.94165C3.01662 4.04855 3.02349 5.15488 3.02349 6.2612Z" fill="white"/>
<path d="M4.62428 7.77698C4.62428 8.67373 4.6283 9.57047 4.62142 10.4684C4.62142 10.651 4.67241 10.7593 4.842 10.852C5.49573 11.2105 5.78678 11.9234 5.57709 12.5997C5.47396 12.9202 5.26713 13.1973 4.98916 13.3874C4.71118 13.5775 4.37784 13.6699 4.0416 13.6499C3.36496 13.6115 2.78915 13.0715 2.66655 12.3621C2.57086 11.8043 2.88025 11.1635 3.41824 10.8732C3.61763 10.7656 3.67779 10.6407 3.67664 10.4243C3.66919 8.65941 3.67205 6.89455 3.6732 5.1297C3.6732 4.75692 3.80039 4.55707 4.05478 4.51298C4.3848 4.45571 4.61798 4.67045 4.62027 5.05812C4.62772 5.9646 4.62371 6.87108 4.62428 7.77698Z" fill="white"/>
</svg>


