<?xml version="1.0" encoding="utf-8"?>
<!-- Generator: Adobe Illustrator 16.0.0, SVG Export Plug-In . SVG Version: 6.00 Build 0)  -->
<!DOCTYPE svg PUBLIC "-//W3C//DTD SVG 1.1//EN" "http://www.w3.org/Graphics/SVG/1.1/DTD/svg11.dtd">
<svg width="19" height="19" viewBox="0 0 19 19" fill="none" xmlns="http://www.w3.org/2000/svg">
<circle cx="9.72375" cy="9.70178" r="9" fill="#40B54A"/>
<path d="M14.2117 13.3815C14.0324 12.315 13.6408 11.3996 12.929 10.7282C12.5762 10.3716 12.1477 10.0989 11.6751 9.93043C11.5099 9.87056 11.4867 9.82803 11.6107 9.68558C12.0432 9.18802 12.313 8.61903 12.3002 7.94268C12.2981 7.82376 12.3618 7.75893 12.444 7.68791C12.7964 7.38277 12.7873 6.88356 12.4171 6.59824C12.3136 6.51997 12.2447 6.40443 12.225 6.27617C12.0482 5.45736 11.5793 4.86195 10.8324 4.48372C10.6518 4.39205 10.4386 4.35489 10.3188 4.16289C10.3065 4.14617 10.2904 4.13253 10.2719 4.123C10.2535 4.11348 10.233 4.10834 10.2122 4.10797C9.81605 4.15463 9.36781 3.9106 9.03359 4.31443C9.01417 4.33796 8.97286 4.34457 8.94105 4.35572C7.98755 4.70256 7.41151 5.37313 7.21293 6.36742C7.20641 6.40727 7.19161 6.44531 7.16948 6.47909C7.14735 6.51287 7.11838 6.54164 7.08445 6.56355C6.65562 6.8687 6.6391 7.37369 7.04892 7.71434C7.08736 7.7426 7.118 7.78016 7.13794 7.8235C7.15788 7.86683 7.16649 7.91452 7.16295 7.96208C7.14518 8.64091 7.42693 9.20082 7.85989 9.70003C7.95739 9.81152 7.97557 9.85652 7.8161 9.91929C6.24208 10.5387 5.50258 11.7914 5.2357 13.3828C5.16753 13.7866 5.39599 14.0777 5.7959 14.164C6.10905 14.2317 6.42716 14.1892 6.74279 14.1966C6.97993 14.2024 9.30956 14.2012 9.72393 14.1942C10.1371 14.2012 12.4675 14.2024 12.7046 14.1966C13.0203 14.1892 13.3384 14.2317 13.652 14.164C14.0502 14.0765 14.2787 13.7854 14.2117 13.3815ZM10.6122 4.88424C11.2004 5.17741 11.5793 5.63822 11.7557 6.27163C11.797 6.42192 11.7412 6.4562 11.6078 6.45042C11.4839 6.44546 11.3599 6.45042 11.236 6.45042H11.0707C10.6853 6.45042 10.6861 6.45042 10.5886 6.08251C10.4948 5.72782 10.4841 5.36281 10.4514 5.00068C10.4407 4.87144 10.4725 4.81405 10.6122 4.88424ZM9.39714 6.01562C9.48526 5.59877 9.51886 5.17224 9.49712 4.74674C9.48762 4.54029 9.59586 4.5312 9.75119 4.53327C9.90653 4.53533 10.0189 4.52914 10.0106 4.74179C9.98998 5.27155 10.0239 5.79843 10.1792 6.31085C10.2094 6.40995 10.1813 6.45289 10.0763 6.45C9.97139 6.44711 9.85654 6.45 9.74582 6.45C9.30171 6.44959 9.30419 6.45 9.39714 6.01562ZM7.70332 6.26832C7.87931 5.62666 8.27096 5.16667 8.86751 4.87722C8.97864 4.82313 9.03276 4.8446 9.03276 4.97756C9.03927 5.40367 8.98445 5.82849 8.86999 6.23901C8.82331 6.39839 8.74275 6.46776 8.57584 6.45165C8.46017 6.44051 8.34243 6.45165 8.22551 6.45165C8.09496 6.45165 7.96441 6.44835 7.83387 6.45165C7.70332 6.45496 7.6682 6.39137 7.70208 6.26832H7.70332ZM7.39182 7.37864C7.27284 7.34313 7.21459 7.25477 7.22657 7.12635C7.23896 7.00661 7.30919 6.93517 7.42528 6.9265C7.56905 6.91618 7.71447 6.91742 7.85824 6.91742C8.48399 6.91742 9.10988 6.91742 9.73591 6.91742H11.8015C11.8701 6.91742 11.9391 6.91742 12.0081 6.92237C12.1449 6.93105 12.2283 7.00785 12.237 7.14163C12.2457 7.27541 12.1544 7.35676 12.0329 7.38938C11.9719 7.39993 11.9099 7.40285 11.8482 7.39805C10.4378 7.39805 9.02767 7.39805 7.6178 7.39805C7.54152 7.40256 7.46499 7.39602 7.39058 7.37864H7.39182ZM7.70001 8.5447C7.64548 8.39316 7.63763 8.23667 7.62978 8.0777C7.62193 7.91873 7.69299 7.86051 7.84998 7.86175C8.47628 7.86629 9.10258 7.86175 9.72888 7.86175C10.3486 7.86175 10.9683 7.86711 11.588 7.85844C11.7763 7.85597 11.8449 7.91708 11.8358 8.10826C11.8157 8.43175 11.7126 8.74461 11.5363 9.01666C11.2655 9.46802 10.8705 9.83206 10.3986 10.0655C9.94784 10.288 9.50125 10.2921 9.05301 10.0588C8.40687 9.72769 7.94541 9.2322 7.69877 8.5447H7.70001ZM11.3331 10.549C11.3182 10.8016 11.2379 11.0461 11.1001 11.2584C11.0455 11.3409 10.9898 11.3822 10.9046 11.2996C10.708 11.1076 10.5122 10.9152 10.3147 10.724C10.2366 10.6489 10.2734 10.6093 10.356 10.5804C10.5514 10.514 10.7367 10.421 10.9067 10.3041C11.0125 10.2306 11.1182 10.2058 11.2335 10.2694C11.3488 10.333 11.3252 10.4408 11.3318 10.549H11.3331ZM9.13605 10.7348C8.94105 10.9181 8.74826 11.1035 8.55767 11.291C8.47752 11.3694 8.42175 11.3566 8.36226 11.2662C8.19242 11.0135 8.11308 10.7108 8.1371 10.4073C8.14743 10.2521 8.25773 10.2459 8.38126 10.2277C8.4231 10.2398 8.46354 10.2563 8.50189 10.2769C8.69067 10.4022 8.89371 10.5046 9.10671 10.582C9.21495 10.62 9.21289 10.6625 9.13481 10.7348H9.13605ZM13.4896 13.7214C13.0558 13.7247 10.3411 13.7267 9.90736 13.7305C9.84621 13.7305 9.78342 13.7305 9.72393 13.7367C9.66278 13.7313 9.59999 13.7313 9.54008 13.7305C9.1063 13.7267 6.39164 13.7247 5.95785 13.7214C5.76946 13.7214 5.6856 13.6301 5.6951 13.4369C5.70584 13.2205 5.76368 13.0157 5.82441 12.8121C6.10368 11.8781 6.592 11.0965 7.45461 10.587C7.59508 10.5044 7.66696 10.4854 7.68183 10.6877C7.71282 11.1167 7.91525 11.4722 8.18668 11.796C8.36308 12.0057 8.46595 12.0132 8.6626 11.8245C8.97038 11.5292 9.28229 11.2361 9.58016 10.9322C9.69377 10.817 9.76607 10.8149 9.87968 10.9322C10.1775 11.2381 10.4853 11.5338 10.7927 11.8298C10.9848 12.0144 11.1025 12.0049 11.2715 11.7972C11.55 11.4549 11.7673 11.0841 11.7739 10.6258C11.7739 10.4957 11.8243 10.4879 11.9238 10.5432L11.9908 10.582V10.5857C12.8534 11.0953 13.3417 11.8769 13.621 12.8109C13.6817 13.0145 13.7395 13.2193 13.7503 13.4356C13.761 13.6301 13.6767 13.7201 13.4884 13.7214H13.4896Z" fill="white"/>
</svg>




