<?xml version="1.0" encoding="utf-8"?>
<!-- Generator: Adobe Illustrator 16.0.0, SVG Export Plug-In . SVG Version: 6.00 Build 0)  -->
<!DOCTYPE svg PUBLIC "-//W3C//DTD SVG 1.1//EN" "http://www.w3.org/Graphics/SVG/1.1/DTD/svg11.dtd">
<svg width="19" height="19" viewBox="0 0 19 19" fill="none" xmlns="http://www.w3.org/2000/svg">
<circle cx="9.961" cy="9.35205" r="9" fill="#FFB24E"/>
<path d="M14.8809 8.96926C14.4344 9.00167 14.0055 8.95306 13.6247 8.69205C13.4833 8.59571 13.4846 8.72052 13.4825 8.80547C13.4755 9.09714 13.4571 9.38792 13.4409 9.67915C13.3726 10.9093 13.3183 12.1399 13.2562 13.37C13.1953 14.5629 12.1773 15.5325 10.9802 15.5373C10.302 15.5406 9.62391 15.5406 8.94578 15.5373C7.73993 15.5321 6.72361 14.5516 6.66671 13.3477C6.59581 11.8408 6.51746 10.3339 6.44787 8.82693C6.43955 8.65395 6.39797 8.61979 6.24522 8.72052C5.96748 8.90006 5.64004 8.98699 5.30987 8.96882C5.04725 8.96006 4.78464 8.96576 4.52202 8.96663C4.42442 8.96663 4.34695 8.94736 4.34695 8.82562C4.35176 8.43148 4.30712 8.03734 4.36839 7.64583C4.43667 7.2079 4.66865 6.85756 5.02887 6.60137C5.15755 6.50984 5.16981 6.4551 5.05251 6.33861C4.53953 5.83543 4.31105 5.21882 4.34169 4.4993C4.34826 4.35435 4.38765 4.29348 4.54259 4.2891C4.99167 4.27727 4.99123 4.27114 5.0385 4.71082C5.12122 5.48684 5.54578 6.02724 6.22508 6.23C6.34505 6.26101 6.46894 6.27414 6.59274 6.26898C8.83956 6.26898 11.0855 6.26898 13.3306 6.26898C14.0703 6.26898 14.7452 5.68347 14.8507 4.95037C14.8741 4.79197 14.8876 4.63225 14.8909 4.47215C14.8931 4.34077 14.9448 4.29041 15.0743 4.29129C15.6731 4.29698 15.5829 4.23392 15.5764 4.76031C15.5689 5.37341 15.3203 5.89367 14.8888 6.32066C14.7575 6.44941 14.7671 6.50415 14.9115 6.61276C15.3514 6.94296 15.5847 7.38745 15.5808 7.94669C15.5808 8.20244 15.5685 8.4582 15.5843 8.71263C15.5974 8.9224 15.5103 8.98327 15.3177 8.96751C15.1733 8.96006 15.0266 8.96926 14.8809 8.96926ZM7.32019 11.7856C9.09284 10.5992 10.8458 10.6032 12.6062 11.7856C12.6859 11.3039 12.6705 10.8313 12.7003 10.361C12.7673 9.29902 12.8053 8.23529 12.8644 7.17287C12.8723 7.03098 12.8303 6.99157 12.6999 6.992C10.877 6.99376 9.05403 6.99376 7.2309 6.992C7.10616 6.992 7.05276 7.02047 7.06064 7.16718C7.12016 8.2366 7.15824 9.30778 7.22608 10.3772C7.25541 10.8414 7.23878 11.3096 7.32019 11.7856ZM9.882 14.8511C10.254 14.8511 10.553 14.8555 10.8519 14.8511C11.6341 14.8375 12.2473 14.411 12.4692 13.7392C12.5419 13.5202 12.5287 13.2921 12.569 13.07C12.6128 12.8406 12.5283 12.6759 12.3501 12.5178C11.743 11.9833 10.9744 11.6676 10.1669 11.6211C9.35954 11.5746 8.55981 11.7999 7.89532 12.2612C7.51102 12.5283 7.21689 12.8152 7.3854 13.3346C7.38629 13.3418 7.38629 13.3492 7.3854 13.3564C7.41104 13.7198 7.56078 14.0632 7.80951 14.3291C8.05824 14.5951 8.39082 14.7673 8.75144 14.8169C9.15412 14.8748 9.55504 14.8318 9.882 14.8498V14.8511ZM6.31962 7.28016C6.32444 6.99638 6.31568 6.99507 6.02943 6.99157C5.45168 6.98412 5.00217 7.41986 5.03193 8.13763C5.03631 8.23879 5.07964 8.27733 5.17856 8.28127C5.89988 8.30974 6.33407 7.8556 6.31962 7.28016ZM13.8917 6.99288C13.6098 6.9885 13.6081 6.99726 13.605 7.28542C13.5989 7.86611 14.0388 8.31236 14.7526 8.28127C14.8551 8.27689 14.8861 8.22916 14.8953 8.13281C14.9531 7.49694 14.5202 7.00295 13.8917 6.99288Z" fill="white"/>
<path d="M8.6639 9.26445C8.66312 9.35372 8.63597 9.44075 8.58585 9.51461C8.53574 9.58846 8.46491 9.64583 8.38228 9.67949C8.29965 9.71316 8.20891 9.72161 8.12149 9.70378C8.03407 9.68595 7.95387 9.64265 7.891 9.57931C7.82812 9.51598 7.78538 9.43545 7.76815 9.34786C7.75093 9.26027 7.75998 9.16955 7.79418 9.0871C7.82838 9.00465 7.8862 8.93417 7.96035 8.88453C8.0345 8.83489 8.12167 8.8083 8.21089 8.80813C8.27114 8.80629 8.33112 8.81685 8.38712 8.83917C8.44312 8.86149 8.49393 8.89509 8.53641 8.93788C8.57889 8.98067 8.61213 9.03174 8.63406 9.08792C8.65599 9.14409 8.66615 9.20418 8.6639 9.26445V9.26445Z" fill="white"/>
<path d="M11.7229 8.80814C11.8121 8.80996 11.8987 8.83813 11.972 8.8891C12.0452 8.94008 12.1017 9.01158 12.1344 9.09461C12.1671 9.17765 12.1745 9.2685 12.1557 9.35574C12.1369 9.44298 12.0927 9.52271 12.0288 9.5849C11.9648 9.64709 11.8839 9.68895 11.7962 9.70523C11.7085 9.7215 11.6179 9.71146 11.5359 9.67637C11.4539 9.64127 11.3841 9.58269 11.3353 9.50799C11.2865 9.4333 11.2608 9.34583 11.2616 9.25659C11.2604 9.19624 11.2716 9.13629 11.2945 9.08046C11.3174 9.02464 11.3516 8.97412 11.3949 8.93207C11.4381 8.89001 11.4896 8.8573 11.546 8.83598C11.6025 8.81467 11.6627 8.80519 11.7229 8.80814V8.80814Z" fill="white"/>
<path d="M9.31998 13.8036C9.31353 13.8926 9.28091 13.9776 9.22625 14.0481C9.17158 14.1186 9.09731 14.1714 9.01276 14.1997C8.92821 14.2281 8.83717 14.2308 8.75109 14.2075C8.66501 14.1842 8.58772 14.136 8.52896 14.0689C8.4702 14.0018 8.43258 13.9188 8.42084 13.8304C8.4091 13.7419 8.42375 13.652 8.46297 13.5719C8.50218 13.4917 8.56421 13.425 8.64123 13.38C8.71826 13.3351 8.80685 13.3139 8.89586 13.3192C8.95606 13.3215 9.01516 13.3361 9.06954 13.362C9.12393 13.3879 9.17245 13.4247 9.21215 13.47C9.25185 13.5154 9.28189 13.5683 9.30043 13.6257C9.31897 13.683 9.32562 13.7436 9.31998 13.8036V13.8036Z" fill="white"/>
<path d="M11.5089 13.7703C11.5091 13.8596 11.4828 13.9469 11.4335 14.0213C11.3842 14.0957 11.3139 14.1538 11.2317 14.1883C11.1494 14.2229 11.0588 14.2323 10.9712 14.2154C10.8835 14.1985 10.8029 14.156 10.7394 14.0934C10.6758 14.0307 10.6322 13.9506 10.6141 13.8632C10.5959 13.7758 10.604 13.685 10.6373 13.6022C10.6707 13.5194 10.7277 13.4483 10.8013 13.3979C10.875 13.3475 10.9619 13.32 11.0511 13.3188C11.1114 13.316 11.1716 13.3257 11.228 13.3473C11.2844 13.3689 11.3357 13.402 11.3787 13.4444C11.4217 13.4868 11.4554 13.5377 11.4778 13.5937C11.5003 13.6498 11.5108 13.71 11.5089 13.7703V13.7703Z" fill="white"/>
</svg>





