<?xml version="1.0" encoding="utf-8"?>
<!-- Generator: Adobe Illustrator 16.0.0, SVG Export Plug-In . SVG Version: 6.00 Build 0)  -->
<!DOCTYPE svg PUBLIC "-//W3C//DTD SVG 1.1//EN" "http://www.w3.org/Graphics/SVG/1.1/DTD/svg11.dtd">
<svg width="19" height="19" viewBox="0 0 19 19" fill="none" xmlns="http://www.w3.org/2000/svg">
<ellipse cx="9.78212" cy="9.21791" rx="9.02724" ry="9.0428" fill="#BA1A27"/>
<path d="M9.76523 9.13959C9.38488 9.4163 9.04646 9.6346 8.74697 9.88507C8.2678 10.293 7.70057 10.5093 7.02134 10.5286C6.72185 10.5365 6.61703 10.634 6.62063 10.8934C6.6362 12.2131 6.62781 13.5328 6.62781 14.8535C6.62781 14.9277 6.62781 15.002 6.62781 15.0762C6.62422 15.2742 6.53976 15.4262 6.27322 15.4272C6.00668 15.4282 5.93181 15.2678 5.93181 15.0743C5.93181 13.9605 5.93181 12.8469 5.93181 11.7334C5.93181 11.5028 5.92342 11.2716 5.93181 11.0404C5.94499 10.7568 5.90605 10.5345 5.59638 10.3152C5.05731 9.9321 5.21184 9.22275 5.84855 8.93663C6.31275 8.72823 6.78534 8.53023 7.26572 8.34955C7.72525 8.18614 8.10997 7.90616 8.36423 7.55011C8.78351 6.96946 9.41962 6.60959 10.221 6.47099C10.7794 6.37501 11.3546 6.36645 11.9167 6.44574C12.2234 6.49235 12.5049 6.61654 12.7223 6.80116C13.501 7.41992 13.8358 8.2154 14.0479 9.05742C14.2168 9.72865 14.2767 10.4108 14.2947 11.0959C14.3114 11.7161 14.1341 12.2982 13.6957 12.8002C13.1925 13.3749 12.9601 13.9981 13.0242 14.703C13.0371 14.8515 13.0325 15.0007 13.0105 15.1485C12.9871 15.3099 12.8835 15.4292 12.6625 15.4302C12.4414 15.4312 12.3234 15.3143 12.3109 15.1525C12.2468 14.3021 12.2875 13.4655 12.9146 12.7329C13.2788 12.3081 13.5771 11.8527 13.5735 11.3246C13.5645 10.1365 13.4938 8.94851 12.8074 7.85949C12.7104 7.71539 12.6007 7.5774 12.4792 7.44665C12.2102 7.13776 11.8622 6.96996 11.3813 7.0056C11.0542 7.02936 10.7194 6.98134 10.3959 7.03728C9.79218 7.14173 9.29443 7.39963 8.98417 7.84315C8.65613 8.31958 8.14274 8.6903 7.52747 8.89505C7.10819 9.04355 6.70448 9.23067 6.29359 9.39996C6.10012 9.47966 5.95277 9.58559 6.01806 9.78557C6.08814 9.99843 6.28999 10.0286 6.5164 10.0034C6.82248 9.97021 7.12915 9.93606 7.43403 9.89497C7.63188 9.86666 7.81546 9.79132 7.96232 9.67816C8.39358 9.35888 8.83143 9.04603 9.26269 8.72675C9.49569 8.55449 9.75085 8.46192 10.0545 8.57825C10.3582 8.69457 10.4666 8.91139 10.466 9.18414C10.4624 11.1223 10.4614 13.0606 10.463 14.999C10.468 15.0729 10.4607 15.147 10.4415 15.2193C10.4255 15.2852 10.3802 15.3437 10.3145 15.3833C10.2489 15.4229 10.1676 15.4407 10.0869 15.4331C9.89999 15.4242 9.79637 15.3341 9.77301 15.1856C9.7643 15.1033 9.76189 15.0207 9.76583 14.9381C9.76583 13.1231 9.76583 11.3081 9.76583 9.49302L9.76523 9.13959Z" fill="white"/>
<path d="M10.4249 3.00095C10.8076 3.00412 11.1808 3.11556 11.4973 3.32123C11.8139 3.5269 12.0597 3.81757 12.2036 4.15659C12.3476 4.49561 12.3833 4.86778 12.3062 5.22618C12.2292 5.58457 12.0429 5.91313 11.7707 6.17041C11.4986 6.42769 11.1528 6.60217 10.7771 6.67184C10.4013 6.7415 10.0124 6.70324 9.65936 6.56188C9.30633 6.42051 9.005 6.18238 8.79338 5.8775C8.58176 5.57263 8.46932 5.21468 8.47025 4.84879C8.47048 4.60445 8.52134 4.36257 8.61992 4.13713C8.71849 3.91169 8.86282 3.70716 9.04456 3.53534C9.2263 3.36353 9.44186 3.22784 9.67877 3.13612C9.91568 3.04439 10.1693 2.99845 10.4249 3.00095ZM9.19806 4.84421C9.1948 4.99908 9.22376 5.15303 9.28324 5.29712C9.34272 5.44122 9.43154 5.57258 9.54455 5.6836C9.65756 5.79461 9.79252 5.88306 9.94157 5.94383C10.0906 6.00459 10.2508 6.03644 10.4129 6.03755C10.7414 6.0399 11.0575 5.9174 11.2915 5.69699C11.5256 5.47658 11.6585 5.17631 11.6609 4.86225C11.6634 4.54819 11.5352 4.24605 11.3047 4.02231C11.0741 3.79857 10.76 3.67155 10.4314 3.6692C10.2693 3.66752 10.1085 3.69674 9.95835 3.75514C9.80819 3.81355 9.67171 3.89997 9.55689 4.00936C9.44206 4.11876 9.35119 4.24893 9.28958 4.39227C9.22797 4.53561 9.19686 4.68925 9.19806 4.84421Z" fill="white"/>
</svg>



