<?xml version="1.0" encoding="utf-8"?>
<!-- Generator: Adobe Illustrator 16.0.0, SVG Export Plug-In . SVG Version: 6.00 Build 0)  -->
<!DOCTYPE svg PUBLIC "-//W3C//DTD SVG 1.1//EN" "http://www.w3.org/Graphics/SVG/1.1/DTD/svg11.dtd">
<svg width="13" height="14" viewBox="0 0 13 14" fill="none" xmlns="http://www.w3.org/2000/svg">
<path d="M6.52977 13.3067C5.4434 13.3035 4.38174 13.1657 3.39424 12.6718C1.9168 11.9353 0.972395 10.7524 0.55724 9.16322C0.137648 7.55434 0.150324 5.93974 0.638369 4.34292C1.03197 3.05531 1.82109 2.05722 2.96387 1.36262C3.25987 1.18167 3.44178 1.00199 3.37586 0.644526C3.37303 0.623457 3.37303 0.602104 3.37586 0.581035C3.40248 0.304845 3.54382 0.121354 3.82397 0.0877031C4.10413 0.0540525 4.30505 0.187386 4.3735 0.457226C4.42294 0.652146 4.49139 0.718812 4.69865 0.672463C5.91802 0.396907 7.18336 0.396907 8.40273 0.672463C8.58527 0.713733 8.66513 0.672462 8.70886 0.477543C8.73306 0.351096 8.80588 0.239236 8.91164 0.166075C9.0174 0.0929138 9.14762 0.0643114 9.27424 0.086433C9.55249 0.131512 9.73376 0.314369 9.70841 0.585479C9.67038 0.99627 9.86116 1.1931 10.1895 1.40008C11.7912 2.4096 12.5511 3.93086 12.7634 5.77212C12.8905 6.84523 12.8304 7.93229 12.586 8.98481C12.0364 11.3499 10.1419 13.0019 7.7277 13.2388C7.33009 13.2851 6.93007 13.3078 6.52977 13.3067ZM11.7468 6.79688C11.768 6.10259 11.6782 5.40938 11.4806 4.74356C11.2321 3.86028 10.7058 3.08091 9.97968 2.52134C9.87827 2.44198 9.77939 2.3442 9.67545 2.52579C9.53854 2.76515 9.32938 2.86928 9.06064 2.78737C8.77161 2.69912 8.674 2.46674 8.70126 2.19055C8.73105 1.89087 8.5878 1.78865 8.32096 1.72897C7.20547 1.47607 6.04868 1.46698 4.92937 1.7023C4.43815 1.80579 4.37033 1.78611 4.40075 2.29912C4.41533 2.54547 4.27399 2.72325 4.03187 2.79245C3.80496 2.85594 3.59453 2.79245 3.47854 2.59182C3.35177 2.37023 3.24466 2.41912 3.0881 2.54611C2.52843 3.00198 2.07779 3.54737 1.82045 4.21975C1.19613 5.83688 1.16952 7.49847 1.67467 9.13528C2.16335 10.7512 3.31058 11.7277 4.97056 12.0807C5.76713 12.2448 6.58415 12.2855 7.39304 12.2013C9.16775 12.0286 10.5229 11.2337 11.2784 9.56957C11.6606 8.72767 11.7569 7.82227 11.7468 6.79688Z" fill="#3D5BA9"/>
<path d="M6.5646 9.93248C5.92 9.93248 5.27603 9.93629 4.63143 9.93248C4.23592 9.92867 4.01535 9.7382 4.00458 9.41185C3.9938 9.07534 4.22135 8.85376 4.63016 8.85122C5.90796 8.84317 7.18596 8.84317 8.46417 8.85122C8.95095 8.85503 9.22476 9.24169 9.04349 9.62645C8.92813 9.86962 8.71517 9.93439 8.46607 9.93375C7.83225 9.93121 7.19842 9.93248 6.5646 9.93248Z" fill="#3D5BA9"/>
<path d="M7.57743 7.8982C7.25038 7.8982 6.92333 7.90646 6.59691 7.8982C6.25084 7.88677 6.04421 7.68741 6.03407 7.38011C6.02393 7.07281 6.21851 6.84106 6.56458 6.82963C7.2282 6.80868 7.89561 6.80995 8.55733 6.82963C8.62918 6.8295 8.70031 6.84389 8.76649 6.87193C8.83266 6.89998 8.8925 6.9411 8.94244 6.99285C8.99238 7.04459 9.03139 7.1059 9.05714 7.17309C9.08288 7.24028 9.09483 7.31199 9.09228 7.38392C9.08277 7.68931 8.87424 7.88741 8.5269 7.89884C8.21062 7.90646 7.89371 7.8982 7.57743 7.8982Z" fill="#3D5BA9"/>
</svg>
