<?xml version="1.0" encoding="utf-8"?>
<!-- Generator: Adobe Illustrator 16.0.0, SVG Export Plug-In . SVG Version: 6.00 Build 0)  -->
<!DOCTYPE svg PUBLIC "-//W3C//DTD SVG 1.1//EN" "http://www.w3.org/Graphics/SVG/1.1/DTD/svg11.dtd">
<svg width="19" height="19" viewBox="0 0 19 19" fill="none" xmlns="http://www.w3.org/2000/svg">
<circle cx="9.72375" cy="9.29456" r="9" fill="#40B54A"/>
<path d="M14.7855 9.29571C14.8277 12.0481 12.5033 14.3659 9.7128 14.358C6.96168 14.3501 4.64596 12.0584 4.66133 9.26579C4.6763 6.50392 6.99281 4.20939 9.77269 4.23222C12.5092 4.25624 14.8257 6.53778 14.7855 9.29571ZM9.72462 4.90153C7.27139 4.95114 5.34261 6.83503 5.34024 9.29413C5.34024 11.7351 7.2509 13.6741 9.72107 13.6797C12.1912 13.6852 14.1216 11.7465 14.1149 9.28783C14.1086 6.81219 12.1625 4.94523 9.72462 4.90153Z" fill="white"/>
<path d="M11.1601 8.11778C11.1601 8.36739 11.0561 8.50794 10.8555 8.52054C10.6549 8.53314 10.5336 8.41778 10.4985 8.1662C10.454 7.84375 10.3086 7.59532 9.98941 7.478C9.70492 7.37327 9.44526 7.42957 9.21987 7.62643C9.10157 7.72737 9.01841 7.86324 8.98236 8.01445C8.94632 8.16565 8.95925 8.32439 9.01931 8.46778C9.15643 8.81779 9.43974 8.95126 9.79594 8.96582C10.1033 8.97803 10.3984 9.08917 10.6373 9.28265C10.8763 9.47613 11.0462 9.7416 11.1219 10.0395C11.2893 10.7088 10.9835 11.3966 10.3547 11.6804C10.1328 11.7808 10.0296 11.8824 10.0493 12.136C10.067 12.3635 9.8448 12.5123 9.63281 12.4454C9.4689 12.3934 9.37787 12.2698 9.4027 12.1005C9.43461 11.8781 9.33571 11.7856 9.13988 11.6997C8.60991 11.4635 8.32227 11.0383 8.29744 10.4525C8.28759 10.219 8.40541 10.0824 8.60006 10.0702C8.80062 10.0576 8.92277 10.1725 8.95469 10.404C9.01379 10.821 9.20411 11.0513 9.56031 11.1375C9.74736 11.1815 9.94417 11.1525 10.1105 11.0565C10.2769 10.9604 10.4003 10.8045 10.4555 10.6206C10.5738 10.2269 10.3669 9.80954 9.98665 9.68355C9.88688 9.65108 9.7833 9.63175 9.67852 9.62607C8.9866 9.59064 8.43693 9.12331 8.30966 8.45479C8.24916 8.1325 8.30177 7.79922 8.45862 7.51118C8.61546 7.22314 8.86693 6.99797 9.17062 6.87366C9.34163 6.80161 9.41373 6.72168 9.40231 6.5327C9.38733 6.27207 9.51342 6.13388 9.72462 6.1327C9.93582 6.13152 10.0651 6.26971 10.0521 6.52837C10.043 6.71302 10.1029 6.80082 10.2798 6.87248C10.8125 7.08901 11.1553 7.59414 11.1601 8.11778Z" fill="white"/>
</svg>







