<?xml version="1.0" encoding="utf-8"?>
<!-- Generator: Adobe Illustrator 16.0.0, SVG Export Plug-In . SVG Version: 6.00 Build 0)  -->
<!DOCTYPE svg PUBLIC "-//W3C//DTD SVG 1.1//EN" "http://www.w3.org/Graphics/SVG/1.1/DTD/svg11.dtd">
<svg width="19" height="19" viewBox="0 0 19 19" fill="none" xmlns="http://www.w3.org/2000/svg">
<circle cx="9.72375" cy="9.80511" r="9" fill="#FFB24E"/>
<path d="M9.70815 14.2985C8.78856 14.3354 7.89897 14.2016 7.02704 13.9581C6.61608 13.8481 6.22803 13.6718 5.87975 13.4369C5.2814 13.0252 5.15079 12.4582 5.26198 11.8001C5.5316 10.1906 6.4331 9.04189 8.00488 8.37753C8.2308 8.28184 8.22815 8.2852 8.049 8.11019C7.37916 7.46009 7.15456 6.68324 7.42373 5.817C7.68849 4.96336 8.30626 4.43203 9.22408 4.23352C10.2465 4.0115 11.2905 4.46812 11.8275 5.35786C12.3288 6.19137 12.1933 7.29599 11.501 8.0103C11.4635 8.05347 11.4218 8.09323 11.3766 8.12907C11.2102 8.24742 11.2579 8.30156 11.4273 8.37333C13.1694 9.11114 14.0881 10.4013 14.2249 12.1992C14.2655 12.7343 13.9994 13.1406 13.5533 13.4474C12.9413 13.8671 12.2326 14.0475 11.505 14.1705C10.9128 14.2757 10.3102 14.3186 9.70815 14.2985ZM9.80126 13.6043C10.1503 13.5787 10.5766 13.5624 10.9988 13.5141C11.6652 13.439 12.3191 13.3089 12.9126 12.9903C13.3848 12.7385 13.5162 12.4804 13.447 11.9722C13.4364 11.8958 13.4214 11.8202 13.4095 11.7443C13.1094 9.83637 11.0968 8.4707 9.10097 8.81736C7.38755 9.1166 6.17099 10.3761 5.98389 12.0234C5.93491 12.4527 6.09024 12.7566 6.47855 12.9656C6.67003 13.0693 6.87068 13.157 7.07822 13.2275C7.93516 13.5162 8.82915 13.5645 9.80126 13.6043ZM9.72977 4.926C8.80312 4.92181 8.08607 5.59247 8.06489 6.48305C8.04547 7.309 8.81239 8.04387 9.70771 8.0573C10.5964 8.07115 11.3713 7.33922 11.3744 6.48347C11.3774 5.62772 10.6379 4.9302 9.72977 4.926Z" fill="white"/>
</svg>



